  0
SECTION
  2
HEADER
  9
$ANGBASE
  50
0.0
  9
$ANGDIR
  70
1
  9
$MEASUREMENT
  70
1
  0
ENDSEC
  0
SECTION
  2
TABLES
  0
TABLE
  2
LTYPE
  70
4
  0
LTYPE
  5
40F
  2
CONTINUOUS
  70
0
  3
Solid line
  72
65
  73
0
  40
0.0
  0
LTYPE
  5
410
  2
DASHDOT
 70
0
  3
Dash Dot ____ _ ____ _
 72
65
 73
4
 40
2.0
 49
1.25
 49
-0.25
 49
0.25
 49
-0.25
  0
LTYPE
  5
411
  2
DASHED
 70
0
  3
Dashed __ __ __ __ __
 72
65
 73
2
 40
0.75
 49
0.5
 49
-0.25
  0
LTYPE
  5
43B
  2
DOTTED
 70
0
  3
Dotted .  .  .  .
 72
65
 73
2
 40
0.2
 49
0.0
 49
-0.2
  0
ENDTAB
  0
TABLE
  2
STYLE
  70
4
  0
STYLE
  2
KICAD
  70
0
  40
0
  41
1
  42
1
  50
0
  71
0
  3
isocp.shx
  0
STYLE
  2
KICADB
  70
0
  40
0
  41
1
  42
1
  50
0
  71
0
  3
isocp.shx
  0
STYLE
  2
KICADI
  70
0
  40
0
  41
1
  42
1
  50
15
  71
0
  3
isocp.shx
  0
STYLE
  2
KICADBI
  70
0
  40
0
  41
1
  42
1
  50
15
  71
0
  3
isocp.shx
  0
ENDTAB
  0
TABLE
  2
LAYER
  70
1
  0
LAYER
  2
BLACK
  70
0
  62
7
  6
CONTINUOUS
  0
ENDTAB
  0
ENDSEC
  0
SECTION
  2
ENTITIES
0
LINE
8
BLACK
6
CONTINUOUS
10
133.6489699999999914
20
-91.6071219999999897
11
133.9220449999999971
21
-91.653349999999989
0
LINE
8
BLACK
6
CONTINUOUS
10
133.9220449999999971
20
-91.653349999999989
11
134.1871699999999805
21
-91.7334439999999915
0
LINE
8
BLACK
6
CONTINUOUS
10
134.1871699999999805
20
-91.7334439999999915
11
134.4401639999999816
21
-91.8461429999999979
0
LINE
8
BLACK
6
CONTINUOUS
10
134.4401639999999816
20
-91.8461429999999979
11
134.6770339999999919
21
-91.9896669999999972
0
LINE
8
BLACK
6
CONTINUOUS
10
134.6770339999999919
20
-91.9896669999999972
11
134.8940440000000081
21
-92.1617529999999903
0
LINE
8
BLACK
6
CONTINUOUS
10
134.8940440000000081
20
-92.1617529999999903
11
135.0848309999999799
21
-92.3566829999999896
0
LINE
8
BLACK
6
CONTINUOUS
10
135.0848309999999799
20
-92.3566829999999896
11
135.3749569999999949
21
-92.1891799999999932
0
LINE
8
BLACK
6
CONTINUOUS
10
135.3749569999999949
20
-92.1891799999999932
11
135.3768039999999928
21
-92.1885529999999989
0
LINE
8
BLACK
6
CONTINUOUS
10
135.3768039999999928
20
-92.1885529999999989
11
135.3805009999999811
21
-92.1895439999999979
0
LINE
8
BLACK
6
CONTINUOUS
10
135.3805009999999811
20
-92.1895439999999979
11
135.3817870000000028
21
-92.1910099999999915
0
LINE
8
BLACK
6
CONTINUOUS
10
135.3817870000000028
20
-92.1910099999999915
11
135.79342299999999
21
-92.9040049999999979
0
LINE
8
BLACK
6
CONTINUOUS
10
135.79342299999999
20
-92.9040049999999979
11
135.7940499999999986
21
-92.9058519999999959
0
LINE
8
BLACK
6
CONTINUOUS
10
135.7940499999999986
20
-92.9058519999999959
11
135.7930589999999995
21
-92.9095489999999984
0
LINE
8
BLACK
6
CONTINUOUS
10
135.7930589999999995
20
-92.9095489999999984
11
135.791593000000006
21
-92.9108349999999916
0
LINE
8
BLACK
6
CONTINUOUS
10
135.791593000000006
20
-92.9108349999999916
11
135.5014859999999999
21
-93.0783270000000016
0
LINE
8
BLACK
6
CONTINUOUS
10
135.5014859999999999
20
-93.0783270000000016
11
135.5749059999999986
21
-93.3410250000000019
0
LINE
8
BLACK
6
CONTINUOUS
10
135.5749059999999986
20
-93.3410250000000019
11
135.615429000000006
21
-93.6150049999999965
0
LINE
8
BLACK
6
CONTINUOUS
10
135.615429000000006
20
-93.6150049999999965
11
135.6212869999999953
21
-93.8919039999999967
0
LINE
8
BLACK
6
CONTINUOUS
10
135.6212869999999953
20
-93.8919039999999967
11
135.5923870000000022
21
-94.167351999999994
0
LINE
8
BLACK
6
CONTINUOUS
10
135.5923870000000022
20
-94.167351999999994
11
135.5291859999999815
21
-94.4370049999999992
0
LINE
8
BLACK
6
CONTINUOUS
10
135.5291859999999815
20
-94.4370049999999992
11
135.4326810000000023
21
-94.6966079999999977
0
LINE
8
BLACK
6
CONTINUOUS
10
135.4326810000000023
20
-94.6966079999999977
11
135.3043930000000046
21
-94.942065999999997
0
LINE
8
BLACK
6
CONTINUOUS
10
135.3043930000000046
20
-94.942065999999997
11
135.146347999999989
21
-95.1695050000000009
0
LINE
8
BLACK
6
CONTINUOUS
10
135.146347999999989
20
-95.1695050000000009
11
134.9610380000000021
21
-95.3753379999999993
0
LINE
8
BLACK
6
CONTINUOUS
10
134.9610380000000021
20
-95.3753379999999993
11
134.751386999999994
21
-95.5563179999999903
0
LINE
8
BLACK
6
CONTINUOUS
10
134.751386999999994
20
-95.5563179999999903
11
134.5207429999999817
21
-95.7095599999999962
0
LINE
8
BLACK
6
CONTINUOUS
10
134.5207429999999817
20
-95.7095599999999962
11
134.5207159999999931
21
-95.709590999999989
0
LINE
8
BLACK
6
CONTINUOUS
10
134.5207159999999931
20
-95.709590999999989
11
134.5207059999999899
21
-95.7095949999999931
0
LINE
8
BLACK
6
CONTINUOUS
10
134.5207059999999899
20
-95.7095949999999931
11
134.5207069999999874
21
-95.7095959999999906
0
LINE
8
BLACK
6
CONTINUOUS
10
134.5207069999999874
20
-95.7095959999999906
11
134.5207049999999924
21
-95.7095959999999906
0
LINE
8
BLACK
6
CONTINUOUS
10
134.5207049999999924
20
-95.7095959999999906
11
134.2726360000000057
21
-95.832735999999997
0
LINE
8
BLACK
6
CONTINUOUS
10
134.2726360000000057
20
-95.832735999999997
11
134.0110770000000002
21
-95.9238110000000006
0
LINE
8
BLACK
6
CONTINUOUS
10
134.0110770000000002
20
-95.9238110000000006
11
133.7401629999999955
21
-95.9813800000000015
0
LINE
8
BLACK
6
CONTINUOUS
10
133.7401629999999955
20
-95.9813800000000015
11
133.4641699999999958
21
-96.004532999999995
0
LINE
8
BLACK
6
CONTINUOUS
10
133.4641699999999958
20
-96.004532999999995
11
133.1874520000000075
21
-95.9929049999999933
0
LINE
8
BLACK
6
CONTINUOUS
10
133.1874520000000075
20
-95.9929049999999933
11
132.9143739999999809
21
-95.9466809999999981
0
LINE
8
BLACK
6
CONTINUOUS
10
132.9143739999999809
20
-95.9466809999999981
11
132.6492450000000076
21
-95.866587999999993
0
LINE
8
BLACK
6
CONTINUOUS
10
132.6492450000000076
20
-95.866587999999993
11
132.3962479999999857
21
-95.7538909999999959
0
LINE
8
BLACK
6
CONTINUOUS
10
132.3962479999999857
20
-95.7538909999999959
11
132.1593739999999855
21
-95.6103689999999915
0
LINE
8
BLACK
6
CONTINUOUS
10
132.1593739999999855
20
-95.6103689999999915
11
131.9423600000000079
21
-95.4382839999999959
0
LINE
8
BLACK
6
CONTINUOUS
10
131.9423600000000079
20
-95.4382839999999959
11
131.7515620000000069
21
-95.243347
0
LINE
8
BLACK
6
CONTINUOUS
10
131.7515620000000069
20
-95.243347
11
131.4614750000000072
21
-95.41082999999999
0
LINE
8
BLACK
6
CONTINUOUS
10
131.4614750000000072
20
-95.41082999999999
11
131.4596279999999808
21
-95.4114569999999986
0
LINE
8
BLACK
6
CONTINUOUS
10
131.4596279999999808
20
-95.4114569999999986
11
131.4559309999999925
21
-95.4104659999999996
0
LINE
8
BLACK
6
CONTINUOUS
10
131.4559309999999925
20
-95.4104659999999996
11
131.4546449999999993
21
-95.4089999999999918
0
LINE
8
BLACK
6
CONTINUOUS
10
131.4546449999999993
20
-95.4089999999999918
11
131.0430089999999836
21
-94.6960049999999995
0
LINE
8
BLACK
6
CONTINUOUS
10
131.0430089999999836
20
-94.6960049999999995
11
131.0423820000000035
21
-94.6941580000000016
0
LINE
8
BLACK
6
CONTINUOUS
10
131.0423820000000035
20
-94.6941580000000016
11
131.0433730000000025
21
-94.6904609999999991
0
LINE
8
BLACK
6
CONTINUOUS
10
131.0433730000000025
20
-94.6904609999999991
11
131.0448389999999961
21
-94.6891749999999917
0
LINE
8
BLACK
6
CONTINUOUS
10
131.0448389999999961
20
-94.6891749999999917
11
131.3349450000000047
21
-94.5216810000000009
0
LINE
8
BLACK
6
CONTINUOUS
10
131.3349450000000047
20
-94.5216810000000009
11
131.2615239999999801
21
-94.2589839999999981
0
LINE
8
BLACK
6
CONTINUOUS
10
131.2615239999999801
20
-94.2589839999999981
11
131.2209990000000062
21
-93.9850039999999893
0
LINE
8
BLACK
6
CONTINUOUS
10
131.2209990000000062
20
-93.9850039999999893
11
131.215139999999991
21
-93.7081049999999891
0
LINE
8
BLACK
6
CONTINUOUS
10
131.215139999999991
20
-93.7081049999999891
11
131.2440389999999866
21
-93.4326559999999944
0
LINE
8
BLACK
6
CONTINUOUS
10
131.2440389999999866
20
-93.4326559999999944
11
131.3072400000000073
21
-93.1630029999999891
0
LINE
8
BLACK
6
CONTINUOUS
10
131.3072400000000073
20
-93.1630029999999891
11
131.403745999999984
21
-92.9033989999999932
0
LINE
8
BLACK
6
CONTINUOUS
10
131.403745999999984
20
-92.9033989999999932
11
131.5320339999999817
21
-92.6579419999999914
0
LINE
8
BLACK
6
CONTINUOUS
10
131.5320339999999817
20
-92.6579419999999914
11
131.6900809999999922
21
-92.4305030000000016
0
LINE
8
BLACK
6
CONTINUOUS
10
131.6900809999999922
20
-92.4305030000000016
11
131.8753920000000051
21
-92.2246710000000007
0
LINE
8
BLACK
6
CONTINUOUS
10
131.8753920000000051
20
-92.2246710000000007
11
132.085045000000008
21
-92.043691999999993
0
LINE
8
BLACK
6
CONTINUOUS
10
132.085045000000008
20
-92.043691999999993
11
132.3156819999999811
21
-91.8904560000000004
0
LINE
8
BLACK
6
CONTINUOUS
10
132.3156819999999811
20
-91.8904560000000004
11
132.3157159999999806
21
-91.8904189999999943
0
LINE
8
BLACK
6
CONTINUOUS
10
132.3157159999999806
20
-91.8904189999999943
11
132.3157159999999806
21
-91.8904199999999918
0
LINE
8
BLACK
6
CONTINUOUS
10
132.3157159999999806
20
-91.8904199999999918
11
132.3157249999999863
21
-91.8904149999999902
0
LINE
8
BLACK
6
CONTINUOUS
10
132.3157249999999863
20
-91.8904149999999902
11
132.3157249999999863
21
-91.8904139999999927
0
LINE
8
BLACK
6
CONTINUOUS
10
132.3157249999999863
20
-91.8904139999999927
11
132.3157300000000021
21
-91.8904119999999978
0
LINE
8
BLACK
6
CONTINUOUS
10
132.3157300000000021
20
-91.8904119999999978
11
132.5637949999999989
21
-91.7672779999999904
0
LINE
8
BLACK
6
CONTINUOUS
10
132.5637949999999989
20
-91.7672779999999904
11
132.8253530000000069
21
-91.6762059999999934
0
LINE
8
BLACK
6
CONTINUOUS
10
132.8253530000000069
20
-91.6762059999999934
11
133.0962639999999908
21
-91.6186409999999967
0
LINE
8
BLACK
6
CONTINUOUS
10
133.0962639999999908
20
-91.6186409999999967
11
133.3722549999999956
21
-91.595491999999993
0
LINE
8
BLACK
6
CONTINUOUS
10
133.3722549999999956
20
-91.595491999999993
11
133.6489699999999914
21
-91.6071219999999897
0
LINE
8
BLACK
6
CONTINUOUS
10
133.2343689999999867
20
-91.6083689999999962
11
132.9610799999999813
21
-91.6487029999999976
0
LINE
8
BLACK
6
CONTINUOUS
10
132.9610799999999813
20
-91.6487029999999976
11
132.6950039999999831
21
-91.7229770000000002
0
LINE
8
BLACK
6
CONTINUOUS
10
132.6950039999999831
20
-91.7229770000000002
11
132.4403369999999995
21
-91.8300199999999904
0
LINE
8
BLACK
6
CONTINUOUS
10
132.4403369999999995
20
-91.8300199999999904
11
132.3207249999999817
21
-91.8990739999999988
0
LINE
8
BLACK
6
CONTINUOUS
10
132.3207249999999817
20
-91.8990739999999988
11
132.320730999999995
21
-91.899084000000002
0
LINE
8
BLACK
6
CONTINUOUS
10
132.320730999999995
20
-91.899084000000002
11
132.2011109999999974
21
-91.9681470000000019
0
LINE
8
BLACK
6
CONTINUOUS
10
132.2011109999999974
20
-91.9681470000000019
11
131.9810729999999808
21
-92.1351709999999997
0
LINE
8
BLACK
6
CONTINUOUS
10
131.9810729999999808
20
-92.1351709999999997
11
131.7837079999999901
21
-92.3284609999999901
0
LINE
8
BLACK
6
CONTINUOUS
10
131.7837079999999901
20
-92.3284609999999901
11
131.6121310000000051
21
-92.5449679999999972
0
LINE
8
BLACK
6
CONTINUOUS
10
131.6121310000000051
20
-92.5449679999999972
11
131.4690479999999866
21
-92.7812759999999912
0
LINE
8
BLACK
6
CONTINUOUS
10
131.4690479999999866
20
-92.7812759999999912
11
131.3567180000000008
21
-93.0336569999999909
0
LINE
8
BLACK
6
CONTINUOUS
10
131.3567180000000008
20
-93.0336569999999909
11
131.2769119999999816
21
-93.2981279999999913
0
LINE
8
BLACK
6
CONTINUOUS
10
131.2769119999999816
20
-93.2981279999999913
11
131.2308889999999906
21
-93.5705169999999953
0
LINE
8
BLACK
6
CONTINUOUS
10
131.2308889999999906
20
-93.5705169999999953
11
131.2193759999999827
21
-93.8465269999999947
0
LINE
8
BLACK
6
CONTINUOUS
10
131.2193759999999827
20
-93.8465269999999947
11
131.2425539999999842
21
-94.1218029999999999
0
LINE
8
BLACK
6
CONTINUOUS
10
131.2425539999999842
20
-94.1218029999999999
11
131.300058000000007
21
-94.3920009999999934
0
LINE
8
BLACK
6
CONTINUOUS
10
131.300058000000007
20
-94.3920009999999934
11
131.3455179999999984
21
-94.5224309999999974
0
LINE
8
BLACK
6
CONTINUOUS
10
131.3455179999999984
20
-94.5224309999999974
11
131.345517000000001
21
-94.5224309999999974
0
LINE
8
BLACK
6
CONTINUOUS
10
131.345517000000001
20
-94.5224309999999974
11
131.3455289999999991
21
-94.5230389999999971
0
LINE
8
BLACK
6
CONTINUOUS
10
131.3455289999999991
20
-94.5230389999999971
11
131.3457520000000045
21
-94.5234239999999915
0
LINE
8
BLACK
6
CONTINUOUS
10
131.3457520000000045
20
-94.5234239999999915
11
131.3455539999999928
21
-94.5241630000000015
0
LINE
8
BLACK
6
CONTINUOUS
10
131.3455539999999928
20
-94.5241630000000015
11
131.3455830000000049
21
-94.5255209999999977
0
LINE
8
BLACK
6
CONTINUOUS
10
131.3455830000000049
20
-94.5255209999999977
11
131.3449439999999981
21
-94.5264399999999938
0
LINE
8
BLACK
6
CONTINUOUS
10
131.3449439999999981
20
-94.5264399999999938
11
131.3447620000000029
21
-94.527120999999994
0
LINE
8
BLACK
6
CONTINUOUS
10
131.3447620000000029
20
-94.527120999999994
11
131.3440180000000055
21
-94.5277729999999963
0
LINE
8
BLACK
6
CONTINUOUS
10
131.3440180000000055
20
-94.5277729999999963
11
131.3438199999999938
21
-94.5280589999999989
0
LINE
8
BLACK
6
CONTINUOUS
10
131.3438199999999938
20
-94.5280589999999989
11
131.343607999999989
21
-94.5281319999999994
0
LINE
8
BLACK
6
CONTINUOUS
10
131.343607999999989
20
-94.5281319999999994
11
131.3432959999999809
21
-94.5284070000000014
0
LINE
8
BLACK
6
CONTINUOUS
10
131.3432959999999809
20
-94.5284070000000014
11
131.0541680000000042
21
-94.695335
0
LINE
8
BLACK
6
CONTINUOUS
10
131.0541680000000042
20
-94.695335
11
131.4608049999999935
21
-95.3996689999999887
0
LINE
8
BLACK
6
CONTINUOUS
10
131.4608049999999935
20
-95.3996689999999887
11
131.7499320000000012
21
-95.2327420000000018
0
LINE
8
BLACK
6
CONTINUOUS
10
131.7499320000000012
20
-95.2327420000000018
11
131.7503260000000012
21
-95.2326070000000016
0
LINE
8
BLACK
6
CONTINUOUS
10
131.7503260000000012
20
-95.2326070000000016
11
131.7504959999999983
21
-95.2324619999999982
0
LINE
8
BLACK
6
CONTINUOUS
10
131.7504959999999983
20
-95.2324619999999982
11
131.7508420000000058
21
-95.2324319999999886
0
LINE
8
BLACK
6
CONTINUOUS
10
131.7508420000000058
20
-95.2324319999999886
11
131.7517789999999991
21
-95.2321149999999932
0
LINE
8
BLACK
6
CONTINUOUS
10
131.7517789999999991
20
-95.2321149999999932
11
131.7524589999999876
21
-95.2322970000000026
0
LINE
8
BLACK
6
CONTINUOUS
10
131.7524589999999876
20
-95.2322970000000026
11
131.7535749999999837
21
-95.2322039999999959
0
LINE
8
BLACK
6
CONTINUOUS
10
131.7535749999999837
20
-95.2322039999999959
11
131.7547359999999799
21
-95.2329069999999973
0
LINE
8
BLACK
6
CONTINUOUS
10
131.7547359999999799
20
-95.2329069999999973
11
131.7554749999999899
21
-95.2331059999999923
0
LINE
8
BLACK
6
CONTINUOUS
10
131.7554749999999899
20
-95.2331059999999923
11
131.7556960000000004
21
-95.2334899999999891
0
LINE
8
BLACK
6
CONTINUOUS
10
131.7556960000000004
20
-95.2334899999999891
11
131.7562179999999898
21
-95.2338060000000013
0
LINE
8
BLACK
6
CONTINUOUS
10
131.7562179999999898
20
-95.2338060000000013
11
131.7562020000000018
21
-95.2338199999999944
0
LINE
8
BLACK
6
CONTINUOUS
10
131.7562020000000018
20
-95.2338199999999944
11
131.8464290000000005
21
-95.338403999999997
0
LINE
8
BLACK
6
CONTINUOUS
10
131.8464290000000005
20
-95.338403999999997
11
132.0516790000000071
21
-95.523302000000001
0
LINE
8
BLACK
6
CONTINUOUS
10
132.0516790000000071
20
-95.523302000000001
11
132.2784879999999816
21
-95.6810119999999955
0
LINE
8
BLACK
6
CONTINUOUS
10
132.2784879999999816
20
-95.6810119999999955
11
132.5232780000000048
21
-95.809045999999995
0
LINE
8
BLACK
6
CONTINUOUS
10
132.5232780000000048
20
-95.809045999999995
11
132.7821879999999908
21
-95.9053830000000005
0
LINE
8
BLACK
6
CONTINUOUS
10
132.7821879999999908
20
-95.9053830000000005
11
133.051130999999998
21
-95.9685039999999958
0
LINE
8
BLACK
6
CONTINUOUS
10
133.051130999999998
20
-95.9685039999999958
11
133.3258659999999907
21
-95.9974129999999946
0
LINE
8
BLACK
6
CONTINUOUS
10
133.3258659999999907
20
-95.9974129999999946
11
133.6020570000000021
21
-95.9916539999999969
0
LINE
8
BLACK
6
CONTINUOUS
10
133.6020570000000021
20
-95.9916539999999969
11
133.8753480000000025
21
-95.9513169999999889
0
LINE
8
BLACK
6
CONTINUOUS
10
133.8753480000000025
20
-95.9513169999999889
11
134.1414269999999931
21
-95.8770389999999963
0
LINE
8
BLACK
6
CONTINUOUS
10
134.1414269999999931
20
-95.8770389999999963
11
134.3960950000000025
21
-95.7699929999999995
0
LINE
8
BLACK
6
CONTINUOUS
10
134.3960950000000025
20
-95.7699929999999995
11
134.5157069999999919
21
-95.7009359999999987
0
LINE
8
BLACK
6
CONTINUOUS
10
134.5157069999999919
20
-95.7009359999999987
11
134.5157020000000045
21
-95.7009279999999904
0
LINE
8
BLACK
6
CONTINUOUS
10
134.5157020000000045
20
-95.7009279999999904
11
134.6353210000000047
21
-95.6318639999999931
0
LINE
8
BLACK
6
CONTINUOUS
10
134.6353210000000047
20
-95.6318639999999931
11
134.8553579999999954
21
-95.4648380000000003
0
LINE
8
BLACK
6
CONTINUOUS
10
134.8553579999999954
20
-95.4648380000000003
11
135.0527209999999911
21
-95.2715469999999982
0
LINE
8
BLACK
6
CONTINUOUS
10
135.0527209999999911
20
-95.2715469999999982
11
135.2242970000000071
21
-95.0550389999999936
0
LINE
8
BLACK
6
CONTINUOUS
10
135.2242970000000071
20
-95.0550389999999936
11
135.3673780000000022
21
-94.8187309999999997
0
LINE
8
BLACK
6
CONTINUOUS
10
135.3673780000000022
20
-94.8187309999999997
11
135.479707999999988
21
-94.5663509999999974
0
LINE
8
BLACK
6
CONTINUOUS
10
135.479707999999988
20
-94.5663509999999974
11
135.5595140000000072
21
-94.301879999999997
0
LINE
8
BLACK
6
CONTINUOUS
10
135.5595140000000072
20
-94.301879999999997
11
135.6055369999999982
21
-94.0294909999999931
0
LINE
8
BLACK
6
CONTINUOUS
10
135.6055369999999982
20
-94.0294909999999931
11
135.6170510000000036
21
-93.7534819999999911
0
LINE
8
BLACK
6
CONTINUOUS
10
135.6170510000000036
20
-93.7534819999999911
11
135.5938739999999996
21
-93.4782060000000001
0
LINE
8
BLACK
6
CONTINUOUS
10
135.5938739999999996
20
-93.4782060000000001
11
135.5363729999999975
21
-93.2080079999999924
0
LINE
8
BLACK
6
CONTINUOUS
10
135.5363729999999975
20
-93.2080079999999924
11
135.4909140000000036
21
-93.0775780000000026
0
LINE
8
BLACK
6
CONTINUOUS
10
135.4909140000000036
20
-93.0775780000000026
11
135.4909150000000011
21
-93.0775780000000026
0
LINE
8
BLACK
6
CONTINUOUS
10
135.4909150000000011
20
-93.0775780000000026
11
135.4909020000000055
21
-93.0769710000000003
0
LINE
8
BLACK
6
CONTINUOUS
10
135.4909020000000055
20
-93.0769710000000003
11
135.4906790000000001
21
-93.0765849999999944
0
LINE
8
BLACK
6
CONTINUOUS
10
135.4906790000000001
20
-93.0765849999999944
11
135.4908769999999834
21
-93.0758419999999944
0
LINE
8
BLACK
6
CONTINUOUS
10
135.4908769999999834
20
-93.0758419999999944
11
135.4908489999999972
21
-93.0744880000000023
0
LINE
8
BLACK
6
CONTINUOUS
10
135.4908489999999972
20
-93.0744880000000023
11
135.4914870000000064
21
-93.0735679999999945
0
LINE
8
BLACK
6
CONTINUOUS
10
135.4914870000000064
20
-93.0735679999999945
11
135.4916699999999992
21
-93.0728879999999918
0
LINE
8
BLACK
6
CONTINUOUS
10
135.4916699999999992
20
-93.0728879999999918
11
135.4924129999999991
21
-93.0722349999999921
0
LINE
8
BLACK
6
CONTINUOUS
10
135.4924129999999991
20
-93.0722349999999921
11
135.4926119999999798
21
-93.0719500000000011
0
LINE
8
BLACK
6
CONTINUOUS
10
135.4926119999999798
20
-93.0719500000000011
11
135.4928229999999871
21
-93.0718759999999889
0
LINE
8
BLACK
6
CONTINUOUS
10
135.4928229999999871
20
-93.0718759999999889
11
135.4931359999999927
21
-93.0716019999999986
0
LINE
8
BLACK
6
CONTINUOUS
10
135.4931359999999927
20
-93.0716019999999986
11
135.7822630000000004
21
-92.904674
0
LINE
8
BLACK
6
CONTINUOUS
10
135.7822630000000004
20
-92.904674
11
135.3756259999999827
21
-92.2003399999999971
0
LINE
8
BLACK
6
CONTINUOUS
10
135.3756259999999827
20
-92.2003399999999971
11
135.0865000000000009
21
-92.3672669999999982
0
LINE
8
BLACK
6
CONTINUOUS
10
135.0865000000000009
20
-92.3672669999999982
11
135.0861050000000034
21
-92.367401000000001
0
LINE
8
BLACK
6
CONTINUOUS
10
135.0861050000000034
20
-92.367401000000001
11
135.0859360000000038
21
-92.3675470000000018
0
LINE
8
BLACK
6
CONTINUOUS
10
135.0859360000000038
20
-92.3675470000000018
11
135.0855889999999988
21
-92.3675759999999997
0
LINE
8
BLACK
6
CONTINUOUS
10
135.0855889999999988
20
-92.3675759999999997
11
135.084653000000003
21
-92.3678939999999926
0
LINE
8
BLACK
6
CONTINUOUS
10
135.084653000000003
20
-92.3678939999999926
11
135.0839719999999886
21
-92.3677109999999999
0
LINE
8
BLACK
6
CONTINUOUS
10
135.0839719999999886
20
-92.3677109999999999
11
135.08285699999999
21
-92.3678049999999899
0
LINE
8
BLACK
6
CONTINUOUS
10
135.08285699999999
20
-92.3678049999999899
11
135.0816959999999938
21
-92.367100999999991
0
LINE
8
BLACK
6
CONTINUOUS
10
135.0816959999999938
20
-92.367100999999991
11
135.0809559999999863
21
-92.3669029999999935
0
LINE
8
BLACK
6
CONTINUOUS
10
135.0809559999999863
20
-92.3669029999999935
11
135.0807329999999808
21
-92.3665179999999992
0
LINE
8
BLACK
6
CONTINUOUS
10
135.0807329999999808
20
-92.3665179999999992
11
135.0802139999999838
21
-92.3662029999999987
0
LINE
8
BLACK
6
CONTINUOUS
10
135.0802139999999838
20
-92.3662029999999987
11
135.0801969999999983
21
-92.3662169999999918
0
LINE
8
BLACK
6
CONTINUOUS
10
135.0801969999999983
20
-92.3662169999999918
11
134.9899719999999945
21
-92.2616340000000008
0
LINE
8
BLACK
6
CONTINUOUS
10
134.9899719999999945
20
-92.2616340000000008
11
134.7847270000000037
21
-92.0767349999999993
0
LINE
8
BLACK
6
CONTINUOUS
10
134.7847270000000037
20
-92.0767349999999993
11
134.5579219999999907
21
-91.9190229999999957
0
LINE
8
BLACK
6
CONTINUOUS
10
134.5579219999999907
20
-91.9190229999999957
11
134.3131349999999884
21
-91.7909879999999987
0
LINE
8
BLACK
6
CONTINUOUS
10
134.3131349999999884
20
-91.7909879999999987
11
134.0542299999999898
21
-91.6946480000000008
0
LINE
8
BLACK
6
CONTINUOUS
10
134.0542299999999898
20
-91.6946480000000008
11
133.7852890000000059
21
-91.6315249999999963
0
LINE
8
BLACK
6
CONTINUOUS
10
133.7852890000000059
20
-91.6315249999999963
11
133.5105580000000032
21
-91.602612999999991
0
LINE
8
BLACK
6
CONTINUOUS
10
133.5105580000000032
20
-91.602612999999991
11
133.2343689999999867
21
-91.6083689999999962
0
LINE
8
BLACK
6
CONTINUOUS
10
146.9037579999999821
20
-91.6186539999999923
11
147.1746699999999919
21
-91.6762219999999957
0
LINE
8
BLACK
6
CONTINUOUS
10
147.1746699999999919
20
-91.6762219999999957
11
147.4362289999999973
21
-91.7672969999999992
0
LINE
8
BLACK
6
CONTINUOUS
10
147.4362289999999973
20
-91.7672969999999992
11
147.6842589999999973
21
-91.8904189999999943
0
LINE
8
BLACK
6
CONTINUOUS
10
147.6842589999999973
20
-91.8904189999999943
11
147.6843020000000024
21
-91.8904289999999975
0
LINE
8
BLACK
6
CONTINUOUS
10
147.6843020000000024
20
-91.8904289999999975
11
147.9149850000000015
21
-92.0437000000000012
0
LINE
8
BLACK
6
CONTINUOUS
10
147.9149850000000015
20
-92.0437000000000012
11
148.1246349999999836
21
-92.2246799999999922
0
LINE
8
BLACK
6
CONTINUOUS
10
148.1246349999999836
20
-92.2246799999999922
11
148.3099440000000016
21
-92.4305140000000023
0
LINE
8
BLACK
6
CONTINUOUS
10
148.3099440000000016
20
-92.4305140000000023
11
148.4679879999999912
21
-92.6579550000000012
0
LINE
8
BLACK
6
CONTINUOUS
10
148.4679879999999912
20
-92.6579550000000012
11
148.5962729999999965
21
-92.9034130000000005
0
LINE
8
BLACK
6
CONTINUOUS
10
148.5962729999999965
20
-92.9034130000000005
11
148.6927770000000066
21
-93.1630159999999989
0
LINE
8
BLACK
6
CONTINUOUS
10
148.6927770000000066
20
-93.1630159999999989
11
148.755976000000004
21
-93.43266899999999
0
LINE
8
BLACK
6
CONTINUOUS
10
148.755976000000004
20
-93.43266899999999
11
148.7848730000000046
21
-93.7081179999999989
0
LINE
8
BLACK
6
CONTINUOUS
10
148.7848730000000046
20
-93.7081179999999989
11
148.7790119999999945
21
-93.9850160000000017
0
LINE
8
BLACK
6
CONTINUOUS
10
148.7790119999999945
20
-93.9850160000000017
11
148.7384859999999946
21
-94.2589949999999988
0
LINE
8
BLACK
6
CONTINUOUS
10
148.7384859999999946
20
-94.2589949999999988
11
148.665064000000001
21
-94.5216879999999975
0
LINE
8
BLACK
6
CONTINUOUS
10
148.665064000000001
20
-94.5216879999999975
11
148.9551879999999926
21
-94.6891899999999964
0
LINE
8
BLACK
6
CONTINUOUS
10
148.9551879999999926
20
-94.6891899999999964
11
148.9566549999999836
21
-94.6904770000000013
0
LINE
8
BLACK
6
CONTINUOUS
10
148.9566549999999836
20
-94.6904770000000013
11
148.9567959999999971
21
-94.6910049999999899
0
LINE
8
BLACK
6
CONTINUOUS
10
148.9567959999999971
20
-94.6910049999999899
11
148.9576449999999852
21
-94.6941729999999922
0
LINE
8
BLACK
6
CONTINUOUS
10
148.9576449999999852
20
-94.6941729999999922
11
148.957018000000005
21
-94.6960199999999901
0
LINE
8
BLACK
6
CONTINUOUS
10
148.957018000000005
20
-94.6960199999999901
11
148.5453640000000064
21
-95.4090049999999934
0
LINE
8
BLACK
6
CONTINUOUS
10
148.5453640000000064
20
-95.4090049999999934
11
148.5440779999999847
21
-95.4104710000000011
0
LINE
8
BLACK
6
CONTINUOUS
10
148.5440779999999847
20
-95.4104710000000011
11
148.5403809999999964
21
-95.4114620000000002
0
LINE
8
BLACK
6
CONTINUOUS
10
148.5403809999999964
20
-95.4114620000000002
11
148.5385339999999985
21
-95.4108349999999916
0
LINE
8
BLACK
6
CONTINUOUS
10
148.5385339999999985
20
-95.4108349999999916
11
148.2484269999999924
21
-95.2433419999999984
0
LINE
8
BLACK
6
CONTINUOUS
10
148.2484269999999924
20
-95.2433419999999984
11
148.0576340000000073
21
-95.4382739999999927
0
LINE
8
BLACK
6
CONTINUOUS
10
148.0576340000000073
20
-95.4382739999999927
11
147.8406219999999962
21
-95.6103579999999909
0
LINE
8
BLACK
6
CONTINUOUS
10
147.8406219999999962
20
-95.6103579999999909
11
147.6037499999999909
21
-95.7538799999999952
0
LINE
8
BLACK
6
CONTINUOUS
10
147.6037499999999909
20
-95.7538799999999952
11
147.3507549999999924
21
-95.8665759999999949
0
LINE
8
BLACK
6
CONTINUOUS
10
147.3507549999999924
20
-95.8665759999999949
11
147.0856289999999831
21
-95.946669
0
LINE
8
BLACK
6
CONTINUOUS
10
147.0856289999999831
20
-95.946669
11
146.8125529999999799
21
-95.9928939999999926
0
LINE
8
BLACK
6
CONTINUOUS
10
146.8125529999999799
20
-95.9928939999999926
11
146.5358369999999866
21
-96.0045219999999944
0
LINE
8
BLACK
6
CONTINUOUS
10
146.5358369999999866
20
-96.0045219999999944
11
146.2598459999999818
21
-95.9813699999999983
0
LINE
8
BLACK
6
CONTINUOUS
10
146.2598459999999818
20
-95.9813699999999983
11
145.9889349999999979
21
-95.9238029999999924
0
LINE
8
BLACK
6
CONTINUOUS
10
145.9889349999999979
20
-95.9238029999999924
11
145.7273769999999899
21
-95.832729999999998
0
LINE
8
BLACK
6
CONTINUOUS
10
145.7273769999999899
20
-95.832729999999998
11
145.4793489999999849
21
-95.7096109999999953
0
LINE
8
BLACK
6
CONTINUOUS
10
145.4793489999999849
20
-95.7096109999999953
11
145.4793019999999899
21
-95.7096009999999922
0
LINE
8
BLACK
6
CONTINUOUS
10
145.4793019999999899
20
-95.7096009999999922
11
145.4792929999999842
21
-95.7095949999999931
0
LINE
8
BLACK
6
CONTINUOUS
10
145.4792929999999842
20
-95.7095949999999931
11
145.4792929999999842
21
-95.7095959999999906
0
LINE
8
BLACK
6
CONTINUOUS
10
145.4792929999999842
20
-95.7095959999999906
11
145.4792899999999918
21
-95.7095929999999981
0
LINE
8
BLACK
6
CONTINUOUS
10
145.4792899999999918
20
-95.7095929999999981
11
145.2486159999999984
21
-95.5563310000000001
0
LINE
8
BLACK
6
CONTINUOUS
10
145.2486159999999984
20
-95.5563310000000001
11
145.0389629999999954
21
-95.3753509999999949
0
LINE
8
BLACK
6
CONTINUOUS
10
145.0389629999999954
20
-95.3753509999999949
11
144.8536509999999851
21
-95.169516999999999
0
LINE
8
BLACK
6
CONTINUOUS
10
144.8536509999999851
20
-95.169516999999999
11
144.6956030000000055
21
-94.9420769999999976
0
LINE
8
BLACK
6
CONTINUOUS
10
144.6956030000000055
20
-94.9420769999999976
11
144.5673139999999819
21
-94.6966180000000008
0
LINE
8
BLACK
6
CONTINUOUS
10
144.5673139999999819
20
-94.6966180000000008
11
144.4708069999999793
21
-94.4370139999999907
0
LINE
8
BLACK
6
CONTINUOUS
10
144.4708069999999793
20
-94.4370139999999907
11
144.4076049999999896
21
-94.1673589999999905
0
LINE
8
BLACK
6
CONTINUOUS
10
144.4076049999999896
20
-94.1673589999999905
11
144.378703999999999
21
-93.8919089999999983
0
LINE
8
BLACK
6
CONTINUOUS
10
144.378703999999999
20
-93.8919089999999983
11
144.3845619999999883
21
-93.6150090000000006
0
LINE
8
BLACK
6
CONTINUOUS
10
144.3845619999999883
20
-93.6150090000000006
11
144.4250849999999957
21
-93.3410269999999969
0
LINE
8
BLACK
6
CONTINUOUS
10
144.4250849999999957
20
-93.3410269999999969
11
144.4985039999999969
21
-93.0783229999999975
0
LINE
8
BLACK
6
CONTINUOUS
10
144.4985039999999969
20
-93.0783229999999975
11
144.2084159999999997
21
-92.9108399999999932
0
LINE
8
BLACK
6
CONTINUOUS
10
144.2084159999999997
20
-92.9108399999999932
11
144.2069500000000062
21
-92.909554
0
LINE
8
BLACK
6
CONTINUOUS
10
144.2069500000000062
20
-92.909554
11
144.2059590000000071
21
-92.9058569999999975
0
LINE
8
BLACK
6
CONTINUOUS
10
144.2059590000000071
20
-92.9058569999999975
11
144.2065859999999873
21
-92.9040099999999995
0
LINE
8
BLACK
6
CONTINUOUS
10
144.2065859999999873
20
-92.9040099999999995
11
144.6182399999999859
21
-92.1910259999999937
0
LINE
8
BLACK
6
CONTINUOUS
10
144.6182399999999859
20
-92.1910259999999937
11
144.6195260000000076
21
-92.1895600000000002
0
LINE
8
BLACK
6
CONTINUOUS
10
144.6195260000000076
20
-92.1895600000000002
11
144.6195859999999982
21
-92.1895439999999979
0
LINE
8
BLACK
6
CONTINUOUS
10
144.6195859999999982
20
-92.1895439999999979
11
144.6232229999999959
21
-92.1885690000000011
0
LINE
8
BLACK
6
CONTINUOUS
10
144.6232229999999959
20
-92.1885690000000011
11
144.6250699999999938
21
-92.1891959999999955
0
LINE
8
BLACK
6
CONTINUOUS
10
144.6250699999999938
20
-92.1891959999999955
11
144.9151760000000024
21
-92.3566890000000029
0
LINE
8
BLACK
6
CONTINUOUS
10
144.9151760000000024
20
-92.3566890000000029
11
145.1059679999999901
21
-92.1617549999999994
0
LINE
8
BLACK
6
CONTINUOUS
10
145.1059679999999901
20
-92.1617549999999994
11
145.3229790000000037
21
-91.9896689999999921
0
LINE
8
BLACK
6
CONTINUOUS
10
145.3229790000000037
20
-91.9896689999999921
11
145.5598509999999806
21
-91.8461449999999928
0
LINE
8
BLACK
6
CONTINUOUS
10
145.5598509999999806
20
-91.8461449999999928
11
145.8128460000000075
21
-91.7334479999999957
0
LINE
8
BLACK
6
CONTINUOUS
10
145.8128460000000075
20
-91.7334479999999957
11
146.0779739999999833
21
-91.6533539999999931
0
LINE
8
BLACK
6
CONTINUOUS
10
146.0779739999999833
20
-91.6533539999999931
11
146.3510499999999865
21
-91.6071290000000005
0
LINE
8
BLACK
6
CONTINUOUS
10
146.3510499999999865
20
-91.6071290000000005
11
146.6277670000000057
21
-91.5955009999999987
0
LINE
8
BLACK
6
CONTINUOUS
10
146.6277670000000057
20
-91.5955009999999987
11
146.9037579999999821
21
-91.6186539999999923
0
LINE
8
BLACK
6
CONTINUOUS
10
146.214730000000003
20
-91.6315309999999954
11
145.9457879999999932
21
-91.6946519999999907
0
LINE
8
BLACK
6
CONTINUOUS
10
145.9457879999999932
20
-91.6946519999999907
11
145.6868809999999996
21
-91.7909909999999911
0
LINE
8
BLACK
6
CONTINUOUS
10
145.6868809999999996
20
-91.7909909999999911
11
145.4420920000000024
21
-91.9190249999999907
0
LINE
8
BLACK
6
CONTINUOUS
10
145.4420920000000024
20
-91.9190249999999907
11
145.2152859999999919
21
-92.0767359999999968
0
LINE
8
BLACK
6
CONTINUOUS
10
145.2152859999999919
20
-92.0767359999999968
11
145.0100379999999802
21
-92.2616359999999958
0
LINE
8
BLACK
6
CONTINUOUS
10
145.0100379999999802
20
-92.2616359999999958
11
144.9198130000000049
21
-92.3662199999999984
0
LINE
8
BLACK
6
CONTINUOUS
10
144.9198130000000049
20
-92.3662199999999984
11
144.9198120000000074
21
-92.366219000000001
0
LINE
8
BLACK
6
CONTINUOUS
10
144.9198120000000074
20
-92.366219000000001
11
144.9192919999999845
21
-92.3665340000000015
0
LINE
8
BLACK
6
CONTINUOUS
10
144.9192919999999845
20
-92.3665340000000015
11
144.9190700000000049
21
-92.3669189999999958
0
LINE
8
BLACK
6
CONTINUOUS
10
144.9190700000000049
20
-92.3669189999999958
11
144.918329
21
-92.3671169999999933
0
LINE
8
BLACK
6
CONTINUOUS
10
144.918329
20
-92.3671169999999933
11
144.9171690000000012
21
-92.3678209999999922
0
LINE
8
BLACK
6
CONTINUOUS
10
144.9171690000000012
20
-92.3678209999999922
11
144.9160530000000051
21
-92.3677270000000021
0
LINE
8
BLACK
6
CONTINUOUS
10
144.9160530000000051
20
-92.3677270000000021
11
144.9153729999999882
21
-92.3679099999999949
0
LINE
8
BLACK
6
CONTINUOUS
10
144.9153729999999882
20
-92.3679099999999949
11
144.9144359999999949
21
-92.3675920000000019
0
LINE
8
BLACK
6
CONTINUOUS
10
144.9144359999999949
20
-92.3675920000000019
11
144.9140899999999874
21
-92.3675629999999899
0
LINE
8
BLACK
6
CONTINUOUS
10
144.9140899999999874
20
-92.3675629999999899
11
144.9139199999999903
21
-92.367416999999989
0
LINE
8
BLACK
6
CONTINUOUS
10
144.9139199999999903
20
-92.367416999999989
11
144.9135259999999903
21
-92.3672830000000005
0
LINE
8
BLACK
6
CONTINUOUS
10
144.9135259999999903
20
-92.3672830000000005
11
144.6243999999999801
21
-92.2003550000000018
0
LINE
8
BLACK
6
CONTINUOUS
10
144.6243999999999801
20
-92.2003550000000018
11
144.2177460000000053
21
-92.9046790000000016
0
LINE
8
BLACK
6
CONTINUOUS
10
144.2177460000000053
20
-92.9046790000000016
11
144.5068719999999871
21
-93.0716079999999977
0
LINE
8
BLACK
6
CONTINUOUS
10
144.5068719999999871
20
-93.0716079999999977
11
144.5071839999999952
21
-93.0718820000000022
0
LINE
8
BLACK
6
CONTINUOUS
10
144.5071839999999952
20
-93.0718820000000022
11
144.507396
21
-93.0719560000000001
0
LINE
8
BLACK
6
CONTINUOUS
10
144.507396
20
-93.0719560000000001
11
144.5075939999999832
21
-93.0722409999999911
0
LINE
8
BLACK
6
CONTINUOUS
10
144.5075939999999832
20
-93.0722409999999911
11
144.5083379999999806
21
-93.0728939999999909
0
LINE
8
BLACK
6
CONTINUOUS
10
144.5083379999999806
20
-93.0728939999999909
11
144.5085200000000043
21
-93.0735739999999936
0
LINE
8
BLACK
6
CONTINUOUS
10
144.5085200000000043
20
-93.0735739999999936
11
144.5091589999999826
21
-93.0744940000000014
0
LINE
8
BLACK
6
CONTINUOUS
10
144.5091589999999826
20
-93.0744940000000014
11
144.509129999999999
21
-93.0758510000000001
0
LINE
8
BLACK
6
CONTINUOUS
10
144.509129999999999
20
-93.0758510000000001
11
144.5093279999999822
21
-93.0765909999999934
0
LINE
8
BLACK
6
CONTINUOUS
10
144.5093279999999822
20
-93.0765909999999934
11
144.5091050000000052
21
-93.0769749999999902
0
LINE
8
BLACK
6
CONTINUOUS
10
144.5091050000000052
20
-93.0769749999999902
11
144.5090930000000071
21
-93.0775840000000017
0
LINE
8
BLACK
6
CONTINUOUS
10
144.5090930000000071
20
-93.0775840000000017
11
144.5090759999999932
21
-93.0775780000000026
0
LINE
8
BLACK
6
CONTINUOUS
10
144.5090759999999932
20
-93.0775780000000026
11
144.4636179999999968
21
-93.2080089999999899
0
LINE
8
BLACK
6
CONTINUOUS
10
144.4636179999999968
20
-93.2080089999999899
11
144.4061159999999973
21
-93.4782089999999926
0
LINE
8
BLACK
6
CONTINUOUS
10
144.4061159999999973
20
-93.4782089999999926
11
144.3829399999999907
21
-93.7534859999999952
0
LINE
8
BLACK
6
CONTINUOUS
10
144.3829399999999907
20
-93.7534859999999952
11
144.3944549999999936
21
-94.0294979999999896
0
LINE
8
BLACK
6
CONTINUOUS
10
144.3944549999999936
20
-94.0294979999999896
11
144.4404789999999821
21
-94.3018879999999911
0
LINE
8
BLACK
6
CONTINUOUS
10
144.4404789999999821
20
-94.3018879999999911
11
144.5202859999999987
21
-94.5663599999999889
0
LINE
8
BLACK
6
CONTINUOUS
10
144.5202859999999987
20
-94.5663599999999889
11
144.632616999999982
21
-94.8187420000000003
0
LINE
8
BLACK
6
CONTINUOUS
10
144.632616999999982
20
-94.8187420000000003
11
144.7757000000000005
21
-95.0550509999999917
0
LINE
8
BLACK
6
CONTINUOUS
10
144.7757000000000005
20
-95.0550509999999917
11
144.947277999999983
21
-95.2715589999999963
0
LINE
8
BLACK
6
CONTINUOUS
10
144.947277999999983
20
-95.2715589999999963
11
145.1446430000000021
21
-95.4648509999999959
0
LINE
8
BLACK
6
CONTINUOUS
10
145.1446430000000021
20
-95.4648509999999959
11
145.3646819999999877
21
-95.6318769999999887
0
LINE
8
BLACK
6
CONTINUOUS
10
145.3646819999999877
20
-95.6318769999999887
11
145.4842929999999797
21
-95.7009359999999987
0
LINE
8
BLACK
6
CONTINUOUS
10
145.4842929999999797
20
-95.7009359999999987
11
145.4842989999999929
21
-95.7009259999999955
0
LINE
8
BLACK
6
CONTINUOUS
10
145.4842989999999929
20
-95.7009259999999955
11
145.6039189999999905
21
-95.7699870000000004
0
LINE
8
BLACK
6
CONTINUOUS
10
145.6039189999999905
20
-95.7699870000000004
11
145.8585860000000025
21
-95.8770319999999998
0
LINE
8
BLACK
6
CONTINUOUS
10
145.8585860000000025
20
-95.8770319999999998
11
146.1246620000000007
21
-95.9513079999999974
0
LINE
8
BLACK
6
CONTINUOUS
10
146.1246620000000007
20
-95.9513079999999974
11
146.3979510000000062
21
-95.9916429999999963
0
LINE
8
BLACK
6
CONTINUOUS
10
146.3979510000000062
20
-95.9916429999999963
11
146.6741399999999942
21
-95.9974019999999939
0
LINE
8
BLACK
6
CONTINUOUS
10
146.6741399999999942
20
-95.9974019999999939
11
146.9488729999999919
21
-95.9684919999999977
0
LINE
8
BLACK
6
CONTINUOUS
10
146.9488729999999919
20
-95.9684919999999977
11
147.2178140000000042
21
-95.9053710000000024
0
LINE
8
BLACK
6
CONTINUOUS
10
147.2178140000000042
20
-95.9053710000000024
11
147.4767209999999977
21
-95.8090339999999969
0
LINE
8
BLACK
6
CONTINUOUS
10
147.4767209999999977
20
-95.8090339999999969
11
147.7215089999999975
21
-95.6810009999999949
0
LINE
8
BLACK
6
CONTINUOUS
10
147.7215089999999975
20
-95.6810009999999949
11
147.9483160000000055
21
-95.5232919999999979
0
LINE
8
BLACK
6
CONTINUOUS
10
147.9483160000000055
20
-95.5232919999999979
11
148.1535639999999887
21
-95.3383949999999913
0
LINE
8
BLACK
6
CONTINUOUS
10
148.1535639999999887
20
-95.3383949999999913
11
148.2437909999999874
21
-95.2338120000000004
0
LINE
8
BLACK
6
CONTINUOUS
10
148.2437909999999874
20
-95.2338120000000004
11
148.2443099999999845
21
-95.2334960000000024
0
LINE
8
BLACK
6
CONTINUOUS
10
148.2443099999999845
20
-95.2334960000000024
11
148.2445329999999899
21
-95.2331119999999913
0
LINE
8
BLACK
6
CONTINUOUS
10
148.2445329999999899
20
-95.2331119999999913
11
148.2452729999999974
21
-95.2329129999999964
0
LINE
8
BLACK
6
CONTINUOUS
10
148.2452729999999974
20
-95.2329129999999964
11
148.2464339999999936
21
-95.2322099999999949
0
LINE
8
BLACK
6
CONTINUOUS
10
148.2464339999999936
20
-95.2322099999999949
11
148.2475489999999922
21
-95.2323030000000017
0
LINE
8
BLACK
6
CONTINUOUS
10
148.2475489999999922
20
-95.2323030000000017
11
148.2482300000000066
21
-95.2321209999999923
0
LINE
8
BLACK
6
CONTINUOUS
10
148.2482300000000066
20
-95.2321209999999923
11
148.2491660000000024
21
-95.2324380000000019
0
LINE
8
BLACK
6
CONTINUOUS
10
148.2491660000000024
20
-95.2324380000000019
11
148.2495130000000074
21
-95.2324679999999972
0
LINE
8
BLACK
6
CONTINUOUS
10
148.2495130000000074
20
-95.2324679999999972
11
148.2496820000000071
21
-95.2326130000000006
0
LINE
8
BLACK
6
CONTINUOUS
10
148.2496820000000071
20
-95.2326130000000006
11
148.2500770000000045
21
-95.2327480000000008
0
LINE
8
BLACK
6
CONTINUOUS
10
148.2500770000000045
20
-95.2327480000000008
11
148.5392029999999863
21
-95.399675000000002
0
LINE
8
BLACK
6
CONTINUOUS
10
148.5392029999999863
20
-95.399675000000002
11
148.9458569999999895
21
-94.6953499999999906
0
LINE
8
BLACK
6
CONTINUOUS
10
148.9458569999999895
20
-94.6953499999999906
11
148.6567299999999818
21
-94.5284229999999894
0
LINE
8
BLACK
6
CONTINUOUS
10
148.6567299999999818
20
-94.5284229999999894
11
148.6564170000000047
21
-94.5281480000000016
0
LINE
8
BLACK
6
CONTINUOUS
10
148.6564170000000047
20
-94.5281480000000016
11
148.6562059999999974
21
-94.5280750000000012
0
LINE
8
BLACK
6
CONTINUOUS
10
148.6562059999999974
20
-94.5280750000000012
11
148.6560069999999882
21
-94.5277889999999985
0
LINE
8
BLACK
6
CONTINUOUS
10
148.6560069999999882
20
-94.5277889999999985
11
148.6552639999999883
21
-94.5271369999999962
0
LINE
8
BLACK
6
CONTINUOUS
10
148.6552639999999883
20
-94.5271369999999962
11
148.6550809999999956
21
-94.526455999999996
0
LINE
8
BLACK
6
CONTINUOUS
10
148.6550809999999956
20
-94.526455999999996
11
148.6544429999999863
21
-94.5255369999999999
0
LINE
8
BLACK
6
CONTINUOUS
10
148.6544429999999863
20
-94.5255369999999999
11
148.6544710000000009
21
-94.5241819999999962
0
LINE
8
BLACK
6
CONTINUOUS
10
148.6544710000000009
20
-94.5241819999999962
11
148.6542729999999892
21
-94.5234399999999937
0
LINE
8
BLACK
6
CONTINUOUS
10
148.6542729999999892
20
-94.5234399999999937
11
148.6544959999999946
21
-94.5230529999999902
0
LINE
8
BLACK
6
CONTINUOUS
10
148.6544959999999946
20
-94.5230529999999902
11
148.6545089999999902
21
-94.5224469999999997
0
LINE
8
BLACK
6
CONTINUOUS
10
148.6545089999999902
20
-94.5224469999999997
11
148.6544920000000047
21
-94.5224410000000006
0
LINE
8
BLACK
6
CONTINUOUS
10
148.6544920000000047
20
-94.5224410000000006
11
148.6999509999999987
21
-94.392011999999994
0
LINE
8
BLACK
6
CONTINUOUS
10
148.6999509999999987
20
-94.392011999999994
11
148.7574559999999906
21
-94.1218140000000005
0
LINE
8
BLACK
6
CONTINUOUS
10
148.7574559999999906
20
-94.1218140000000005
11
148.780635999999987
21
-93.8465389999999928
0
LINE
8
BLACK
6
CONTINUOUS
10
148.780635999999987
20
-93.8465389999999928
11
148.769124000000005
21
-93.5705299999999909
0
LINE
8
BLACK
6
CONTINUOUS
10
148.769124000000005
20
-93.5705299999999909
11
148.7231040000000064
21
-93.2981410000000011
0
LINE
8
BLACK
6
CONTINUOUS
10
148.7231040000000064
20
-93.2981410000000011
11
148.6432999999999822
21
-93.0336700000000008
0
LINE
8
BLACK
6
CONTINUOUS
10
148.6432999999999822
20
-93.0336700000000008
11
148.5309719999999913
21
-92.781289000000001
0
LINE
8
BLACK
6
CONTINUOUS
10
148.5309719999999913
20
-92.781289000000001
11
148.3878919999999937
21
-92.5449799999999954
0
LINE
8
BLACK
6
CONTINUOUS
10
148.3878919999999937
20
-92.5449799999999954
11
148.2163180000000011
21
-92.3284719999999908
0
LINE
8
BLACK
6
CONTINUOUS
10
148.2163180000000011
20
-92.3284719999999908
11
148.0189560000000029
21
-92.1351799999999912
0
LINE
8
BLACK
6
CONTINUOUS
10
148.0189560000000029
20
-92.1351799999999912
11
147.7989199999999812
21
-91.9681530000000009
0
LINE
8
BLACK
6
CONTINUOUS
10
147.7989199999999812
20
-91.9681530000000009
11
147.6793129999999792
21
-91.8990950000000026
0
LINE
8
BLACK
6
CONTINUOUS
10
147.6793129999999792
20
-91.8990950000000026
11
147.6793109999999842
21
-91.8990950000000026
0
LINE
8
BLACK
6
CONTINUOUS
10
147.6793109999999842
20
-91.8990950000000026
11
147.6793059999999969
21
-91.8991029999999967
0
LINE
8
BLACK
6
CONTINUOUS
10
147.6793059999999969
20
-91.8991029999999967
11
147.5596859999999992
21
-91.8300409999999943
0
LINE
8
BLACK
6
CONTINUOUS
10
147.5596859999999992
20
-91.8300409999999943
11
147.3050199999999847
21
-91.7229939999999999
0
LINE
8
BLACK
6
CONTINUOUS
10
147.3050199999999847
20
-91.7229939999999999
11
147.0389429999999891
21
-91.6487169999999907
0
LINE
8
BLACK
6
CONTINUOUS
10
147.0389429999999891
20
-91.6487169999999907
11
146.7656529999999862
21
-91.6083799999999968
0
LINE
8
BLACK
6
CONTINUOUS
10
146.7656529999999862
20
-91.6083799999999968
11
146.4894630000000006
21
-91.6026209999999992
0
LINE
8
BLACK
6
CONTINUOUS
10
146.4894630000000006
20
-91.6026209999999992
11
146.214730000000003
21
-91.6315309999999954
0
LINE
8
BLACK
6
CONTINUOUS
10
140.4116449999999929
20
-79.8950099999999992
11
140.4135579999999948
21
-79.8953909999999894
0
LINE
8
BLACK
6
CONTINUOUS
10
140.4135579999999948
20
-79.8953909999999894
11
140.416263999999984
21
-79.8980969999999928
0
LINE
8
BLACK
6
CONTINUOUS
10
140.416263999999984
20
-79.8980969999999928
11
140.4166449999999884
21
-79.9000099999999946
0
LINE
8
BLACK
6
CONTINUOUS
10
140.4166449999999884
20
-79.9000099999999946
11
140.4166449999999884
21
-80.2349949999999978
0
LINE
8
BLACK
6
CONTINUOUS
10
140.4166449999999884
20
-80.2349949999999978
11
140.6808580000000006
21
-80.3027609999999896
0
LINE
8
BLACK
6
CONTINUOUS
10
140.6808580000000006
20
-80.3027609999999896
11
140.9383939999999882
21
-80.4046560000000028
0
LINE
8
BLACK
6
CONTINUOUS
10
140.9383939999999882
20
-80.4046560000000028
11
141.1811239999999827
21
-80.5380309999999895
0
LINE
8
BLACK
6
CONTINUOUS
10
141.1811239999999827
20
-80.5380309999999895
11
141.4052199999999857
21
-80.7007830000000013
0
LINE
8
BLACK
6
CONTINUOUS
10
141.4052199999999857
20
-80.7007830000000013
11
141.6071460000000002
21
-80.8903439999999989
0
LINE
8
BLACK
6
CONTINUOUS
10
141.6071460000000002
20
-80.8903439999999989
11
141.7837159999999983
21
-81.1037219999999905
0
LINE
8
BLACK
6
CONTINUOUS
10
141.7837159999999983
20
-81.1037219999999905
11
141.9321449999999913
21
-81.3375509999999906
0
LINE
8
BLACK
6
CONTINUOUS
10
141.9321449999999913
20
-81.3375509999999906
11
142.0500899999999831
21
-81.5881430000000023
0
LINE
8
BLACK
6
CONTINUOUS
10
142.0500899999999831
20
-81.5881430000000023
11
142.13569099999998
21
-81.8515429999999924
0
LINE
8
BLACK
6
CONTINUOUS
10
142.13569099999998
20
-81.8515429999999924
11
142.1875969999999825
21
-82.123595999999992
0
LINE
8
BLACK
6
CONTINUOUS
10
142.1875969999999825
20
-82.123595999999992
11
142.204985999999991
21
-82.3999589999999955
0
LINE
8
BLACK
6
CONTINUOUS
10
142.204985999999991
20
-82.3999589999999955
11
142.2049999999999841
21
-82.3999999999999915
0
LINE
8
BLACK
6
CONTINUOUS
10
142.2049999999999841
20
-82.3999999999999915
11
142.2049989999999866
21
-82.4000099999999946
0
LINE
8
BLACK
6
CONTINUOUS
10
142.2049989999999866
20
-82.4000099999999946
11
142.2049999999999841
21
-82.4000099999999946
0
LINE
8
BLACK
6
CONTINUOUS
10
142.2049999999999841
20
-82.4000099999999946
11
142.2049989999999866
21
-82.4000119999999896
0
LINE
8
BLACK
6
CONTINUOUS
10
142.2049989999999866
20
-82.4000119999999896
11
142.1876059999999882
21
-82.6764139999999941
0
LINE
8
BLACK
6
CONTINUOUS
10
142.1876059999999882
20
-82.6764139999999941
11
142.1356979999999908
21
-82.9484679999999912
0
LINE
8
BLACK
6
CONTINUOUS
10
142.1356979999999908
20
-82.9484679999999912
11
142.0500959999999964
21
-83.2118679999999955
0
LINE
8
BLACK
6
CONTINUOUS
10
142.0500959999999964
20
-83.2118679999999955
11
141.9321500000000071
21
-83.462459999999993
0
LINE
8
BLACK
6
CONTINUOUS
10
141.9321500000000071
20
-83.462459999999993
11
141.7837209999999857
21
-83.6962889999999931
0
LINE
8
BLACK
6
CONTINUOUS
10
141.7837209999999857
20
-83.6962889999999931
11
141.6071499999999901
21
-83.9096669999999989
0
LINE
8
BLACK
6
CONTINUOUS
10
141.6071499999999901
20
-83.9096669999999989
11
141.4052230000000066
21
-84.0992269999999991
0
LINE
8
BLACK
6
CONTINUOUS
10
141.4052230000000066
20
-84.0992269999999991
11
141.1811260000000061
21
-84.2619789999999966
0
LINE
8
BLACK
6
CONTINUOUS
10
141.1811260000000061
20
-84.2619789999999966
11
140.9383949999999857
21
-84.395354999999995
0
LINE
8
BLACK
6
CONTINUOUS
10
140.9383949999999857
20
-84.395354999999995
11
140.6808589999999981
21
-84.497249999999994
0
LINE
8
BLACK
6
CONTINUOUS
10
140.6808589999999981
20
-84.497249999999994
11
140.4166449999999884
21
-84.5650139999999908
0
LINE
8
BLACK
6
CONTINUOUS
10
140.4166449999999884
20
-84.5650139999999908
11
140.4166449999999884
21
-84.8999999999999915
0
LINE
8
BLACK
6
CONTINUOUS
10
140.4166449999999884
20
-84.8999999999999915
11
140.416263999999984
21
-84.9019129999999933
0
LINE
8
BLACK
6
CONTINUOUS
10
140.416263999999984
20
-84.9019129999999933
11
140.4135579999999948
21
-84.9046189999999967
0
LINE
8
BLACK
6
CONTINUOUS
10
140.4135579999999948
20
-84.9046189999999967
11
140.4116449999999929
21
-84.9050000000000011
0
LINE
8
BLACK
6
CONTINUOUS
10
140.4116449999999929
20
-84.9050000000000011
11
139.5883550000000071
21
-84.904989999999998
0
LINE
8
BLACK
6
CONTINUOUS
10
139.5883550000000071
20
-84.904989999999998
11
139.5864420000000052
21
-84.9046089999999936
0
LINE
8
BLACK
6
CONTINUOUS
10
139.5864420000000052
20
-84.9046089999999936
11
139.5837359999999876
21
-84.9019029999999901
0
LINE
8
BLACK
6
CONTINUOUS
10
139.5837359999999876
20
-84.9019029999999901
11
139.5833549999999832
21
-84.8999900000000025
0
LINE
8
BLACK
6
CONTINUOUS
10
139.5833549999999832
20
-84.8999900000000025
11
139.5833549999999832
21
-84.5650040000000018
0
LINE
8
BLACK
6
CONTINUOUS
10
139.5833549999999832
20
-84.5650040000000018
11
139.3191419999999994
21
-84.4972389999999933
0
LINE
8
BLACK
6
CONTINUOUS
10
139.3191419999999994
20
-84.4972389999999933
11
139.0616059999999834
21
-84.3953439999999944
0
LINE
8
BLACK
6
CONTINUOUS
10
139.0616059999999834
20
-84.3953439999999944
11
138.8188759999999888
21
-84.2619689999999935
0
LINE
8
BLACK
6
CONTINUOUS
10
138.8188759999999888
20
-84.2619689999999935
11
138.5947799999999859
21
-84.0992169999999959
0
LINE
8
BLACK
6
CONTINUOUS
10
138.5947799999999859
20
-84.0992169999999959
11
138.3928539999999998
21
-83.9096559999999982
0
LINE
8
BLACK
6
CONTINUOUS
10
138.3928539999999998
20
-83.9096559999999982
11
138.2162840000000017
21
-83.6962779999999924
0
LINE
8
BLACK
6
CONTINUOUS
10
138.2162840000000017
20
-83.6962779999999924
11
138.0678549999999802
21
-83.4624489999999923
0
LINE
8
BLACK
6
CONTINUOUS
10
138.0678549999999802
20
-83.4624489999999923
11
137.9499099999999885
21
-83.2118569999999949
0
LINE
8
BLACK
6
CONTINUOUS
10
137.9499099999999885
20
-83.2118569999999949
11
137.8643089999999916
21
-82.9484569999999906
0
LINE
8
BLACK
6
CONTINUOUS
10
137.8643089999999916
20
-82.9484569999999906
11
137.8124029999999891
21
-82.6764039999999909
0
LINE
8
BLACK
6
CONTINUOUS
10
137.8124029999999891
20
-82.6764039999999909
11
137.7950129999999831
21
-82.40003999999999
0
LINE
8
BLACK
6
CONTINUOUS
10
137.7950129999999831
20
-82.40003999999999
11
137.7949999999999875
21
-82.3999999999999915
0
LINE
8
BLACK
6
CONTINUOUS
10
137.7949999999999875
20
-82.3999999999999915
11
137.795000999999985
21
-82.3999900000000025
0
LINE
8
BLACK
6
CONTINUOUS
10
137.795000999999985
20
-82.3999900000000025
11
137.7949999999999875
21
-82.3999900000000025
0
LINE
8
BLACK
6
CONTINUOUS
10
137.7949999999999875
20
-82.3999900000000025
11
137.7949999999999875
21
-82.3999869999999959
0
LINE
8
BLACK
6
CONTINUOUS
10
137.7949999999999875
20
-82.3999869999999959
11
137.8123939999999834
21
-82.1235860000000031
0
LINE
8
BLACK
6
CONTINUOUS
10
137.8123939999999834
20
-82.1235860000000031
11
137.8643019999999808
21
-81.8515319999999917
0
LINE
8
BLACK
6
CONTINUOUS
10
137.8643019999999808
20
-81.8515319999999917
11
137.9499040000000036
21
-81.5881320000000017
0
LINE
8
BLACK
6
CONTINUOUS
10
137.9499040000000036
20
-81.5881320000000017
11
138.0678499999999929
21
-81.33753999999999
0
LINE
8
BLACK
6
CONTINUOUS
10
138.0678499999999929
20
-81.33753999999999
11
138.2162789999999859
21
-81.1037109999999899
0
LINE
8
BLACK
6
CONTINUOUS
10
138.2162789999999859
20
-81.1037109999999899
11
138.3928499999999815
21
-80.8903329999999983
0
LINE
8
BLACK
6
CONTINUOUS
10
138.3928499999999815
20
-80.8903329999999983
11
138.5947769999999934
21
-80.7007729999999981
0
LINE
8
BLACK
6
CONTINUOUS
10
138.5947769999999934
20
-80.7007729999999981
11
138.8188739999999939
21
-80.5380210000000005
0
LINE
8
BLACK
6
CONTINUOUS
10
138.8188739999999939
20
-80.5380210000000005
11
139.0616049999999859
21
-80.4046450000000021
0
LINE
8
BLACK
6
CONTINUOUS
10
139.0616049999999859
20
-80.4046450000000021
11
139.3191410000000019
21
-80.3027500000000032
0
LINE
8
BLACK
6
CONTINUOUS
10
139.3191410000000019
20
-80.3027500000000032
11
139.5833549999999832
21
-80.2349849999999947
0
LINE
8
BLACK
6
CONTINUOUS
10
139.5833549999999832
20
-80.2349849999999947
11
139.5833549999999832
21
-79.8999999999999915
0
LINE
8
BLACK
6
CONTINUOUS
10
139.5833549999999832
20
-79.8999999999999915
11
139.5837359999999876
21
-79.8980869999999896
0
LINE
8
BLACK
6
CONTINUOUS
10
139.5837359999999876
20
-79.8980869999999896
11
139.5864420000000052
21
-79.8953810000000004
0
LINE
8
BLACK
6
CONTINUOUS
10
139.5864420000000052
20
-79.8953810000000004
11
139.5883550000000071
21
-79.894999999999996
0
LINE
8
BLACK
6
CONTINUOUS
10
139.5883550000000071
20
-79.894999999999996
11
140.4116449999999929
21
-79.8950099999999992
0
LINE
8
BLACK
6
CONTINUOUS
10
139.5933550000000025
20
-80.2388550000000009
11
139.5932729999999822
21
-80.2392639999999915
0
LINE
8
BLACK
6
CONTINUOUS
10
139.5932729999999822
20
-80.2392639999999915
11
139.5933149999999898
21
-80.2394829999999928
0
LINE
8
BLACK
6
CONTINUOUS
10
139.5933149999999898
20
-80.2394829999999928
11
139.593166999999994
21
-80.2397959999999983
0
LINE
8
BLACK
6
CONTINUOUS
10
139.593166999999994
20
-80.2397959999999983
11
139.5929739999999981
21
-80.2407680000000028
0
LINE
8
BLACK
6
CONTINUOUS
10
139.5929739999999981
20
-80.2407680000000028
11
139.5924750000000074
21
-80.241265999999996
0
LINE
8
BLACK
6
CONTINUOUS
10
139.5924750000000074
20
-80.241265999999996
11
139.5919989999999871
21
-80.2422789999999964
0
LINE
8
BLACK
6
CONTINUOUS
10
139.5919989999999871
20
-80.2422789999999964
11
139.5908090000000072
21
-80.2429319999999962
0
LINE
8
BLACK
6
CONTINUOUS
10
139.5908090000000072
20
-80.2429319999999962
11
139.5902679999999805
21
-80.243473999999992
0
LINE
8
BLACK
6
CONTINUOUS
10
139.5902679999999805
20
-80.243473999999992
11
139.589823999999993
21
-80.243473999999992
0
LINE
8
BLACK
6
CONTINUOUS
10
139.589823999999993
20
-80.243473999999992
11
139.5892910000000029
21
-80.2437669999999912
0
LINE
8
BLACK
6
CONTINUOUS
10
139.5892910000000029
20
-80.2437669999999912
11
139.4536049999999818
21
-80.2696129999999926
0
LINE
8
BLACK
6
CONTINUOUS
10
139.4536049999999818
20
-80.2696129999999926
11
139.1908540000000016
21
-80.3549129999999963
0
LINE
8
BLACK
6
CONTINUOUS
10
139.1908540000000016
20
-80.3549129999999963
11
138.9408689999999922
21
-80.4724789999999928
0
LINE
8
BLACK
6
CONTINUOUS
10
138.9408689999999922
20
-80.4724789999999928
11
138.7075940000000003
21
-80.6204539999999952
0
LINE
8
BLACK
6
CONTINUOUS
10
138.7075940000000003
20
-80.6204539999999952
11
138.4947090000000003
21
-80.7965059999999937
0
LINE
8
BLACK
6
CONTINUOUS
10
138.4947090000000003
20
-80.7965059999999937
11
138.3055719999999837
21
-80.9978550000000013
0
LINE
8
BLACK
6
CONTINUOUS
10
138.3055719999999837
20
-80.9978550000000013
11
138.1431680000000028
21
-81.2213259999999906
0
LINE
8
BLACK
6
CONTINUOUS
10
138.1431680000000028
20
-81.2213259999999906
11
138.0100599999999815
21
-81.4633929999999964
0
LINE
8
BLACK
6
CONTINUOUS
10
138.0100599999999815
20
-81.4633929999999964
11
137.9083459999999945
21
-81.7202359999999999
0
LINE
8
BLACK
6
CONTINUOUS
10
137.9083459999999945
20
-81.7202359999999999
11
137.8396319999999946
21
-81.987803999999997
0
LINE
8
BLACK
6
CONTINUOUS
10
137.8396319999999946
20
-81.987803999999997
11
137.8050020000000018
21
-82.2618749999999892
0
LINE
8
BLACK
6
CONTINUOUS
10
137.8050020000000018
20
-82.2618749999999892
11
137.8050000000000068
21
-82.3999900000000025
0
LINE
8
BLACK
6
CONTINUOUS
10
137.8050000000000068
20
-82.3999900000000025
11
137.8050099999999816
21
-82.3999900000000025
0
LINE
8
BLACK
6
CONTINUOUS
10
137.8050099999999816
20
-82.3999900000000025
11
137.8050110000000075
21
-82.5381149999999906
0
LINE
8
BLACK
6
CONTINUOUS
10
137.8050110000000075
20
-82.5381149999999906
11
137.8396400000000028
21
-82.812185999999997
0
LINE
8
BLACK
6
CONTINUOUS
10
137.8396400000000028
20
-82.812185999999997
11
137.9083530000000053
21
-83.0797529999999966
0
LINE
8
BLACK
6
CONTINUOUS
10
137.9083530000000053
20
-83.0797529999999966
11
138.0100649999999973
21
-83.3365960000000001
0
LINE
8
BLACK
6
CONTINUOUS
10
138.0100649999999973
20
-83.3365960000000001
11
138.1431729999999902
21
-83.5786629999999917
0
LINE
8
BLACK
6
CONTINUOUS
10
138.1431729999999902
20
-83.5786629999999917
11
138.3055760000000021
21
-83.8021339999999952
0
LINE
8
BLACK
6
CONTINUOUS
10
138.3055760000000021
20
-83.8021339999999952
11
138.4947119999999927
21
-84.0034830000000028
0
LINE
8
BLACK
6
CONTINUOUS
10
138.4947119999999927
20
-84.0034830000000028
11
138.7075959999999952
21
-84.1795350000000013
0
LINE
8
BLACK
6
CONTINUOUS
10
138.7075959999999952
20
-84.1795350000000013
11
138.9408709999999871
21
-84.3275110000000012
0
LINE
8
BLACK
6
CONTINUOUS
10
138.9408709999999871
20
-84.3275110000000012
11
139.1908549999999991
21
-84.4450760000000002
0
LINE
8
BLACK
6
CONTINUOUS
10
139.1908549999999991
20
-84.4450760000000002
11
139.4536049999999818
21
-84.5303770000000014
0
LINE
8
BLACK
6
CONTINUOUS
10
139.4536049999999818
20
-84.5303770000000014
11
139.5892910000000029
21
-84.5562230000000028
0
LINE
8
BLACK
6
CONTINUOUS
10
139.5892910000000029
20
-84.5562230000000028
11
139.589823999999993
21
-84.556516000000002
0
LINE
8
BLACK
6
CONTINUOUS
10
139.589823999999993
20
-84.556516000000002
11
139.5902679999999805
21
-84.556516000000002
0
LINE
8
BLACK
6
CONTINUOUS
10
139.5902679999999805
20
-84.556516000000002
11
139.5908090000000072
21
-84.5570570000000004
0
LINE
8
BLACK
6
CONTINUOUS
10
139.5908090000000072
20
-84.5570570000000004
11
139.5919989999999871
21
-84.5577109999999976
0
LINE
8
BLACK
6
CONTINUOUS
10
139.5919989999999871
20
-84.5577109999999976
11
139.5924750000000074
21
-84.5587230000000005
0
LINE
8
BLACK
6
CONTINUOUS
10
139.5924750000000074
20
-84.5587230000000005
11
139.5929739999999981
21
-84.5592219999999912
0
LINE
8
BLACK
6
CONTINUOUS
10
139.5929739999999981
20
-84.5592219999999912
11
139.593166999999994
21
-84.5601929999999982
0
LINE
8
BLACK
6
CONTINUOUS
10
139.593166999999994
20
-84.5601929999999982
11
139.5933149999999898
21
-84.5605070000000012
0
LINE
8
BLACK
6
CONTINUOUS
10
139.5933149999999898
20
-84.5605070000000012
11
139.5932729999999822
21
-84.5607249999999908
0
LINE
8
BLACK
6
CONTINUOUS
10
139.5932729999999822
20
-84.5607249999999908
11
139.5933550000000025
21
-84.5611349999999931
0
LINE
8
BLACK
6
CONTINUOUS
10
139.5933550000000025
20
-84.5611349999999931
11
139.5933550000000025
21
-84.8949899999999928
0
LINE
8
BLACK
6
CONTINUOUS
10
139.5933550000000025
20
-84.8949899999999928
11
140.4066449999999975
21
-84.8949989999999985
0
LINE
8
BLACK
6
CONTINUOUS
10
140.4066449999999975
20
-84.8949989999999985
11
140.4066449999999975
21
-84.5611449999999962
0
LINE
8
BLACK
6
CONTINUOUS
10
140.4066449999999975
20
-84.5611449999999962
11
140.4067259999999919
21
-84.560734999999994
0
LINE
8
BLACK
6
CONTINUOUS
10
140.4067259999999919
20
-84.560734999999994
11
140.4066849999999818
21
-84.5605169999999902
0
LINE
8
BLACK
6
CONTINUOUS
10
140.4066849999999818
20
-84.5605169999999902
11
140.4068319999999801
21
-84.5602030000000013
0
LINE
8
BLACK
6
CONTINUOUS
10
140.4068319999999801
20
-84.5602030000000013
11
140.4070260000000019
21
-84.5592319999999944
0
LINE
8
BLACK
6
CONTINUOUS
10
140.4070260000000019
20
-84.5592319999999944
11
140.4075239999999951
21
-84.5587329999999895
0
LINE
8
BLACK
6
CONTINUOUS
10
140.4075239999999951
20
-84.5587329999999895
11
140.4080009999999845
21
-84.5577210000000008
0
LINE
8
BLACK
6
CONTINUOUS
10
140.4080009999999845
20
-84.5577210000000008
11
140.4091899999999953
21
-84.5570669999999893
0
LINE
8
BLACK
6
CONTINUOUS
10
140.4091899999999953
20
-84.5570669999999893
11
140.4097319999999911
21
-84.556525999999991
0
LINE
8
BLACK
6
CONTINUOUS
10
140.4097319999999911
20
-84.556525999999991
11
140.410176000000007
21
-84.556525999999991
0
LINE
8
BLACK
6
CONTINUOUS
10
140.410176000000007
20
-84.556525999999991
11
140.4107089999999971
21
-84.5562329999999918
0
LINE
8
BLACK
6
CONTINUOUS
10
140.4107089999999971
20
-84.5562329999999918
11
140.5463949999999897
21
-84.5303869999999904
0
LINE
8
BLACK
6
CONTINUOUS
10
140.5463949999999897
20
-84.5303869999999904
11
140.8091459999999984
21
-84.4450870000000009
0
LINE
8
BLACK
6
CONTINUOUS
10
140.8091459999999984
20
-84.4450870000000009
11
141.0591310000000078
21
-84.3275209999999902
0
LINE
8
BLACK
6
CONTINUOUS
10
141.0591310000000078
20
-84.3275209999999902
11
141.2924059999999997
21
-84.179546000000002
0
LINE
8
BLACK
6
CONTINUOUS
10
141.2924059999999997
20
-84.179546000000002
11
141.5052909999999997
21
-84.0034939999999892
0
LINE
8
BLACK
6
CONTINUOUS
10
141.5052909999999997
20
-84.0034939999999892
11
141.6944279999999878
21
-83.8021449999999959
0
LINE
8
BLACK
6
CONTINUOUS
10
141.6944279999999878
20
-83.8021449999999959
11
141.8568319999999972
21
-83.5786739999999924
0
LINE
8
BLACK
6
CONTINUOUS
10
141.8568319999999972
20
-83.5786739999999924
11
141.9899399999999901
21
-83.3366070000000008
0
LINE
8
BLACK
6
CONTINUOUS
10
141.9899399999999901
20
-83.3366070000000008
11
142.0916540000000055
21
-83.0797639999999973
0
LINE
8
BLACK
6
CONTINUOUS
10
142.0916540000000055
20
-83.0797639999999973
11
142.1603680000000054
21
-82.8121960000000001
0
LINE
8
BLACK
6
CONTINUOUS
10
142.1603680000000054
20
-82.8121960000000001
11
142.1949979999999982
21
-82.5381249999999937
0
LINE
8
BLACK
6
CONTINUOUS
10
142.1949979999999982
20
-82.5381249999999937
11
142.1949999999999932
21
-82.4000099999999946
0
LINE
8
BLACK
6
CONTINUOUS
10
142.1949999999999932
20
-82.4000099999999946
11
142.19498999999999
21
-82.4000099999999946
0
LINE
8
BLACK
6
CONTINUOUS
10
142.19498999999999
20
-82.4000099999999946
11
142.1949889999999925
21
-82.2618849999999924
0
LINE
8
BLACK
6
CONTINUOUS
10
142.1949889999999925
20
-82.2618849999999924
11
142.1603599999999972
21
-81.9878140000000002
0
LINE
8
BLACK
6
CONTINUOUS
10
142.1603599999999972
20
-81.9878140000000002
11
142.0916469999999947
21
-81.7202470000000005
0
LINE
8
BLACK
6
CONTINUOUS
10
142.0916469999999947
20
-81.7202470000000005
11
141.9899350000000027
21
-81.463403999999997
0
LINE
8
BLACK
6
CONTINUOUS
10
141.9899350000000027
20
-81.463403999999997
11
141.8568269999999814
21
-81.2213369999999912
0
LINE
8
BLACK
6
CONTINUOUS
10
141.8568269999999814
20
-81.2213369999999912
11
141.6944239999999979
21
-80.9978660000000019
0
LINE
8
BLACK
6
CONTINUOUS
10
141.6944239999999979
20
-80.9978660000000019
11
141.5052880000000073
21
-80.7965169999999944
0
LINE
8
BLACK
6
CONTINUOUS
10
141.5052880000000073
20
-80.7965169999999944
11
141.2924040000000048
21
-80.6204649999999958
0
LINE
8
BLACK
6
CONTINUOUS
10
141.2924040000000048
20
-80.6204649999999958
11
141.0591289999999844
21
-80.4724889999999959
0
LINE
8
BLACK
6
CONTINUOUS
10
141.0591289999999844
20
-80.4724889999999959
11
140.8091450000000009
21
-80.3549239999999969
0
LINE
8
BLACK
6
CONTINUOUS
10
140.8091450000000009
20
-80.3549239999999969
11
140.5463949999999897
21
-80.2696229999999957
0
LINE
8
BLACK
6
CONTINUOUS
10
140.5463949999999897
20
-80.2696229999999957
11
140.4107089999999971
21
-80.2437769999999944
0
LINE
8
BLACK
6
CONTINUOUS
10
140.4107089999999971
20
-80.2437769999999944
11
140.410176000000007
21
-80.2434839999999951
0
LINE
8
BLACK
6
CONTINUOUS
10
140.410176000000007
20
-80.2434839999999951
11
140.4097319999999911
21
-80.2434839999999951
0
LINE
8
BLACK
6
CONTINUOUS
10
140.4097319999999911
20
-80.2434839999999951
11
140.4091899999999953
21
-80.2429419999999993
0
LINE
8
BLACK
6
CONTINUOUS
10
140.4091899999999953
20
-80.2429419999999993
11
140.4080009999999845
21
-80.2422889999999995
0
LINE
8
BLACK
6
CONTINUOUS
10
140.4080009999999845
20
-80.2422889999999995
11
140.4075239999999951
21
-80.2412759999999992
0
LINE
8
BLACK
6
CONTINUOUS
10
140.4075239999999951
20
-80.2412759999999992
11
140.4070260000000019
21
-80.2407779999999917
0
LINE
8
BLACK
6
CONTINUOUS
10
140.4070260000000019
20
-80.2407779999999917
11
140.4068319999999801
21
-80.2398060000000015
0
LINE
8
BLACK
6
CONTINUOUS
10
140.4068319999999801
20
-80.2398060000000015
11
140.4066849999999818
21
-80.239492999999996
0
LINE
8
BLACK
6
CONTINUOUS
10
140.4066849999999818
20
-80.239492999999996
11
140.4067259999999919
21
-80.2392739999999947
0
LINE
8
BLACK
6
CONTINUOUS
10
140.4067259999999919
20
-80.2392739999999947
11
140.4066449999999975
21
-80.2388649999999899
0
LINE
8
BLACK
6
CONTINUOUS
10
140.4066449999999975
20
-80.2388649999999899
11
140.4066449999999975
21
-79.9050089999999926
0
LINE
8
BLACK
6
CONTINUOUS
10
140.4066449999999975
20
-79.9050089999999926
11
139.5933550000000025
21
-79.9050000000000011
0
LINE
8
BLACK
6
CONTINUOUS
10
139.5933550000000025
20
-79.9050000000000011
11
139.5933550000000025
21
-80.2388550000000009
0
LINE
8
BLACK
6
CONTINUOUS
10
140.5984870000000058
20
-77.5093409999999921
11
141.1956030000000055
21
-77.5522979999999933
0
LINE
8
BLACK
6
CONTINUOUS
10
141.1956030000000055
20
-77.5522979999999933
11
141.7899779999999907
21
-77.6237840000000006
0
LINE
8
BLACK
6
CONTINUOUS
10
141.7899779999999907
20
-77.6237840000000006
11
142.3802519999999845
21
-77.7236339999999899
0
LINE
8
BLACK
6
CONTINUOUS
10
142.3802519999999845
20
-77.7236339999999899
11
142.3802519999999845
21
-77.7236329999999924
0
LINE
8
BLACK
6
CONTINUOUS
10
142.3802519999999845
20
-77.7236329999999924
11
142.380283999999989
21
-77.7236509999999896
0
LINE
8
BLACK
6
CONTINUOUS
10
142.380283999999989
20
-77.7236509999999896
11
142.3803429999999821
21
-77.7236520000000013
0
LINE
8
BLACK
6
CONTINUOUS
10
142.3803429999999821
20
-77.7236520000000013
11
142.4997679999999889
21
-77.7491309999999913
0
LINE
8
BLACK
6
CONTINUOUS
10
142.4997679999999889
20
-77.7491309999999913
11
142.4999420000000043
21
-77.7492060000000009
0
LINE
8
BLACK
6
CONTINUOUS
10
142.4999420000000043
20
-77.7492060000000009
11
142.5001309999999819
21
-77.7492230000000006
0
LINE
8
BLACK
6
CONTINUOUS
10
142.5001309999999819
20
-77.7492230000000006
11
142.8343189999999936
21
-77.8471909999999951
0
LINE
8
BLACK
6
CONTINUOUS
10
142.8343189999999936
20
-77.8471909999999951
11
142.8345759999999984
21
-77.8473249999999979
0
LINE
8
BLACK
6
CONTINUOUS
10
142.8345759999999984
20
-77.8473249999999979
11
142.8348629999999844
21
-77.8473850000000027
0
LINE
8
BLACK
6
CONTINUOUS
10
142.8348629999999844
20
-77.8473850000000027
11
143.1478639999999984
21
-77.9800180000000012
0
LINE
8
BLACK
6
CONTINUOUS
10
143.1478639999999984
20
-77.9800180000000012
11
143.1480499999999836
21
-77.9801439999999957
0
LINE
8
BLACK
6
CONTINUOUS
10
143.1480499999999836
20
-77.9801439999999957
11
143.1482629999999858
21
-77.9802090000000021
0
LINE
8
BLACK
6
CONTINUOUS
10
143.1482629999999858
20
-77.9802090000000021
11
143.2977290000000039
21
-78.0597929999999991
0
LINE
8
BLACK
6
CONTINUOUS
10
143.2977290000000039
20
-78.0597929999999991
11
143.2978430000000003
21
-78.0598859999999917
0
LINE
8
BLACK
6
CONTINUOUS
10
143.2978430000000003
20
-78.0598859999999917
11
143.2979859999999803
21
-78.059939
0
LINE
8
BLACK
6
CONTINUOUS
10
143.2979859999999803
20
-78.059939
11
143.4426430000000039
21
-78.1483249999999998
0
LINE
8
BLACK
6
CONTINUOUS
10
143.4426430000000039
20
-78.1483249999999998
11
143.4427539999999794
21
-78.1484279999999956
0
LINE
8
BLACK
6
CONTINUOUS
10
143.4427539999999794
20
-78.1484279999999956
11
143.4428900000000056
21
-78.1484870000000029
0
LINE
8
BLACK
6
CONTINUOUS
10
143.4428900000000056
20
-78.1484870000000029
11
143.583847999999989
21
-78.2464969999999909
0
LINE
8
BLACK
6
CONTINUOUS
10
143.583847999999989
20
-78.2464969999999909
11
143.5839499999999873
21
-78.2466029999999932
0
LINE
8
BLACK
6
CONTINUOUS
10
143.5839499999999873
20
-78.2466029999999932
11
143.5840839999999901
21
-78.2466709999999921
0
LINE
8
BLACK
6
CONTINUOUS
10
143.5840839999999901
20
-78.2466709999999921
11
143.7201550000000054
21
-78.3536259999999913
0
LINE
8
BLACK
6
CONTINUOUS
10
143.7201550000000054
20
-78.3536259999999913
11
143.720249999999993
21
-78.3537369999999953
0
LINE
8
BLACK
6
CONTINUOUS
10
143.720249999999993
20
-78.3537369999999953
11
143.7203769999999849
21
-78.3538109999999932
0
LINE
8
BLACK
6
CONTINUOUS
10
143.7203769999999849
20
-78.3538109999999932
11
143.8534559999999942
21
-78.4714850000000013
0
LINE
8
BLACK
6
CONTINUOUS
10
143.8534559999999942
20
-78.4714850000000013
11
143.8535430000000019
21
-78.4715989999999977
0
LINE
8
BLACK
6
CONTINUOUS
10
143.8535430000000019
20
-78.4715989999999977
11
143.8536629999999832
21
-78.4716789999999946
0
LINE
8
BLACK
6
CONTINUOUS
10
143.8536629999999832
20
-78.4716789999999946
11
143.9817099999999925
21
-78.5985639999999961
0
LINE
8
BLACK
6
CONTINUOUS
10
143.9817099999999925
20
-78.5985639999999961
11
143.981757999999985
21
-78.5986350000000016
0
LINE
8
BLACK
6
CONTINUOUS
10
143.981757999999985
20
-78.5986350000000016
11
143.9818070000000034
21
-78.5986619999999903
0
LINE
8
BLACK
6
CONTINUOUS
10
143.9818070000000034
20
-78.5986619999999903
11
143.981806000000006
21
-78.5986630000000019
0
LINE
8
BLACK
6
CONTINUOUS
10
143.981806000000006
20
-78.5986630000000019
11
144.2661209999999983
21
-78.9207529999999906
0
LINE
8
BLACK
6
CONTINUOUS
10
144.2661209999999983
20
-78.9207529999999906
11
144.5244519999999966
21
-79.2640339999999952
0
LINE
8
BLACK
6
CONTINUOUS
10
144.5244519999999966
20
-79.2640339999999952
11
144.7552259999999933
21
-79.6264159999999919
0
LINE
8
BLACK
6
CONTINUOUS
10
144.7552259999999933
20
-79.6264159999999919
11
144.957037999999983
21
-80.0056900000000013
0
LINE
8
BLACK
6
CONTINUOUS
10
144.957037999999983
20
-80.0056900000000013
11
145.1286580000000015
21
-80.3995479999999958
0
LINE
8
BLACK
6
CONTINUOUS
10
145.1286580000000015
20
-80.3995479999999958
11
145.2690419999999847
21
-80.8055889999999977
0
LINE
8
BLACK
6
CONTINUOUS
10
145.2690419999999847
20
-80.8055889999999977
11
145.377332999999993
21
-81.2213409999999953
0
LINE
8
BLACK
6
CONTINUOUS
10
145.377332999999993
20
-81.2213409999999953
11
145.4528729999999825
21
-81.6442729999999983
0
LINE
8
BLACK
6
CONTINUOUS
10
145.4528729999999825
20
-81.6442729999999983
11
145.4952009999999802
21
-82.0718069999999926
0
LINE
8
BLACK
6
CONTINUOUS
10
145.4952009999999802
20
-82.0718069999999926
11
145.5040599999999813
21
-82.501339999999999
0
LINE
8
BLACK
6
CONTINUOUS
10
145.5040599999999813
20
-82.501339999999999
11
145.4793959999999799
21
-82.9302550000000025
0
LINE
8
BLACK
6
CONTINUOUS
10
145.4793959999999799
20
-82.9302550000000025
11
145.421371999999991
21
-83.3558390000000031
0
LINE
8
BLACK
6
CONTINUOUS
10
145.421371999999991
20
-83.3558390000000031
11
145.4213739999999859
21
-83.3559039999999953
0
LINE
8
BLACK
6
CONTINUOUS
10
145.4213739999999859
20
-83.3559039999999953
11
145.40047899999999
21
-83.48013499999999
0
LINE
8
BLACK
6
CONTINUOUS
10
145.40047899999999
20
-83.48013499999999
11
145.3360199999999907
21
-84.0028149999999982
0
LINE
8
BLACK
6
CONTINUOUS
10
145.3360199999999907
20
-84.0028149999999982
11
145.3137969999999939
21
-84.4887569999999926
0
LINE
8
BLACK
6
CONTINUOUS
10
145.3137969999999939
20
-84.4887569999999926
11
145.3308030000000031
21
-84.9413100000000014
0
LINE
8
BLACK
6
CONTINUOUS
10
145.3308030000000031
20
-84.9413100000000014
11
145.3846749999999872
21
-85.3637250000000023
0
LINE
8
BLACK
6
CONTINUOUS
10
145.3846749999999872
20
-85.3637250000000023
11
145.4737389999999948
21
-85.7589589999999902
0
LINE
8
BLACK
6
CONTINUOUS
10
145.4737389999999948
20
-85.7589589999999902
11
145.5970559999999807
21
-86.1297730000000001
0
LINE
8
BLACK
6
CONTINUOUS
10
145.5970559999999807
20
-86.1297730000000001
11
145.7544759999999826
21
-86.4786519999999967
0
LINE
8
BLACK
6
CONTINUOUS
10
145.7544759999999826
20
-86.4786519999999967
11
145.8461549999999818
21
-86.6455490000000026
0
LINE
8
BLACK
6
CONTINUOUS
10
145.8461549999999818
20
-86.6455490000000026
11
145.9465219999999874
21
-86.807495000000003
0
LINE
8
BLACK
6
CONTINUOUS
10
145.9465219999999874
20
-86.807495000000003
11
146.0561989999999923
21
-86.9653199999999913
0
LINE
8
BLACK
6
CONTINUOUS
10
146.0561989999999923
20
-86.9653199999999913
11
146.1746550000000013
21
-87.1181089999999898
0
LINE
8
BLACK
6
CONTINUOUS
10
146.1746550000000013
20
-87.1181089999999898
11
146.3033429999999839
21
-87.2674599999999998
0
LINE
8
BLACK
6
CONTINUOUS
10
146.3033429999999839
20
-87.2674599999999998
11
146.4409729999999854
21
-87.4116190000000017
0
LINE
8
BLACK
6
CONTINUOUS
10
146.4409729999999854
20
-87.4116190000000017
11
146.5900230000000022
21
-87.552827999999991
0
LINE
8
BLACK
6
CONTINUOUS
10
146.5900230000000022
20
-87.552827999999991
11
146.7482990000000029
21
-87.6886749999999893
0
LINE
8
BLACK
6
CONTINUOUS
10
146.7482990000000029
20
-87.6886749999999893
11
146.919353000000001
21
-87.8218030000000027
0
LINE
8
BLACK
6
CONTINUOUS
10
146.919353000000001
20
-87.8218030000000027
11
147.1000489999999843
21
-87.9493799999999908
0
LINE
8
BLACK
6
CONTINUOUS
10
147.1000489999999843
20
-87.9493799999999908
11
147.2951149999999814
21
-88.0742899999999906
0
LINE
8
BLACK
6
CONTINUOUS
10
147.2951149999999814
20
-88.0742899999999906
11
147.5002839999999935
21
-88.193365
0
LINE
8
BLACK
6
CONTINUOUS
10
147.5002839999999935
20
-88.193365
11
147.7215219999999931
21
-88.3095929999999925
0
LINE
8
BLACK
6
CONTINUOUS
10
147.7215219999999931
20
-88.3095929999999925
11
147.9534620000000018
21
-88.4196879999999936
0
LINE
8
BLACK
6
CONTINUOUS
10
147.9534620000000018
20
-88.4196879999999936
11
148.2033899999999846
21
-88.526606000000001
0
LINE
8
BLACK
6
CONTINUOUS
10
148.2033899999999846
20
-88.526606000000001
11
148.4646979999999985
21
-88.6270339999999948
0
LINE
8
BLACK
6
CONTINUOUS
10
148.4646979999999985
20
-88.6270339999999948
11
148.4647119999999916
21
-88.6270430000000005
0
LINE
8
BLACK
6
CONTINUOUS
10
148.4647119999999916
20
-88.6270430000000005
11
148.8622880000000066
21
-88.7895850000000024
0
LINE
8
BLACK
6
CONTINUOUS
10
148.8622880000000066
20
-88.7895850000000024
11
149.2460719999999981
21
-88.9826829999999944
0
LINE
8
BLACK
6
CONTINUOUS
10
149.2460719999999981
20
-88.9826829999999944
11
149.6136290000000031
21
-89.2051230000000004
0
LINE
8
BLACK
6
CONTINUOUS
10
149.6136290000000031
20
-89.2051230000000004
11
149.9627199999999903
21
-89.4555479999999932
0
LINE
8
BLACK
6
CONTINUOUS
10
149.9627199999999903
20
-89.4555479999999932
11
150.2912179999999864
21
-89.7324339999999978
0
LINE
8
BLACK
6
CONTINUOUS
10
150.2912179999999864
20
-89.7324339999999978
11
150.5971239999999796
21
-90.0340939999999961
0
LINE
8
BLACK
6
CONTINUOUS
10
150.5971239999999796
20
-90.0340939999999961
11
150.8785739999999862
21
-90.3586899999999957
0
LINE
8
BLACK
6
CONTINUOUS
10
150.8785739999999862
20
-90.3586899999999957
11
151.1338539999999853
21
-90.7042469999999952
0
LINE
8
BLACK
6
CONTINUOUS
10
151.1338539999999853
20
-90.7042469999999952
11
151.3614089999999806
21
-91.0686589999999967
0
LINE
8
BLACK
6
CONTINUOUS
10
151.3614089999999806
20
-91.0686589999999967
11
151.5598520000000065
21
-91.4497069999999894
0
LINE
8
BLACK
6
CONTINUOUS
10
151.5598520000000065
20
-91.4497069999999894
11
151.727975999999984
21
-91.8450699999999927
0
LINE
8
BLACK
6
CONTINUOUS
10
151.727975999999984
20
-91.8450699999999927
11
151.8647559999999999
21
-92.2523389999999921
0
LINE
8
BLACK
6
CONTINUOUS
10
151.8647559999999999
20
-92.2523389999999921
11
151.8647589999999923
21
-92.2523379999999946
0
LINE
8
BLACK
6
CONTINUOUS
10
151.8647589999999923
20
-92.2523379999999946
11
151.8647569999999973
21
-92.2523729999999915
0
LINE
8
BLACK
6
CONTINUOUS
10
151.8647569999999973
20
-92.2523729999999915
11
151.8647849999999835
21
-92.2524279999999948
0
LINE
8
BLACK
6
CONTINUOUS
10
151.8647849999999835
20
-92.2524279999999948
11
151.8969189999999969
21
-92.3702359999999913
0
LINE
8
BLACK
6
CONTINUOUS
10
151.8969189999999969
20
-92.3702359999999913
11
151.8969319999999925
21
-92.3704249999999973
0
LINE
8
BLACK
6
CONTINUOUS
10
151.8969319999999925
20
-92.3704249999999973
11
151.8970039999999813
21
-92.3706009999999935
0
LINE
8
BLACK
6
CONTINUOUS
10
151.8970039999999813
20
-92.3706009999999935
11
151.9632299999999816
21
-92.712496999999999
0
LINE
8
BLACK
6
CONTINUOUS
10
151.9632299999999816
20
-92.712496999999999
11
151.9632279999999867
21
-92.7127890000000008
0
LINE
8
BLACK
6
CONTINUOUS
10
151.9632279999999867
20
-92.7127890000000008
11
151.9633069999999861
21
-92.7130700000000019
0
LINE
8
BLACK
6
CONTINUOUS
10
151.9633069999999861
20
-92.7130700000000019
11
151.9890120000000024
21
-93.052039999999991
0
LINE
8
BLACK
6
CONTINUOUS
10
151.9890120000000024
20
-93.052039999999991
11
151.9889839999999879
21
-93.0522610000000014
0
LINE
8
BLACK
6
CONTINUOUS
10
151.9889839999999879
20
-93.0522610000000014
11
151.9890259999999955
21
-93.0524819999999977
0
LINE
8
BLACK
6
CONTINUOUS
10
151.9890259999999955
20
-93.0524819999999977
11
151.9868620000000021
21
-93.2218009999999992
0
LINE
8
BLACK
6
CONTINUOUS
10
151.9868620000000021
20
-93.2218009999999992
11
151.9868299999999977
21
-93.2219489999999951
0
LINE
8
BLACK
6
CONTINUOUS
10
151.9868299999999977
20
-93.2219489999999951
11
151.9868490000000065
21
-93.2220969999999909
0
LINE
8
BLACK
6
CONTINUOUS
10
151.9868490000000065
20
-93.2220969999999909
11
151.9746569999999792
21
-93.3911799999999914
0
LINE
8
BLACK
6
CONTINUOUS
10
151.9746569999999792
20
-93.3911799999999914
11
151.974616999999995
21
-93.3913239999999973
0
LINE
8
BLACK
6
CONTINUOUS
10
151.974616999999995
20
-93.3913239999999973
11
151.9746269999999981
21
-93.3914729999999906
0
LINE
8
BLACK
6
CONTINUOUS
10
151.9746269999999981
20
-93.3914729999999906
11
151.9521869999999808
21
-93.5616849999999971
0
LINE
8
BLACK
6
CONTINUOUS
10
151.9521869999999808
20
-93.5616849999999971
11
151.9521389999999883
21
-93.5618259999999964
0
LINE
8
BLACK
6
CONTINUOUS
10
151.9521389999999883
20
-93.5618259999999964
11
151.9521399999999858
21
-93.5619729999999947
0
LINE
8
BLACK
6
CONTINUOUS
10
151.9521399999999858
20
-93.5619729999999947
11
151.9195100000000025
21
-93.7319439999999986
0
LINE
8
BLACK
6
CONTINUOUS
10
151.9195100000000025
20
-93.7319439999999986
11
151.9194549999999992
21
-93.7320780000000013
0
LINE
8
BLACK
6
CONTINUOUS
10
151.9194549999999992
20
-93.7320780000000013
11
151.9194479999999885
21
-93.7322259999999972
0
LINE
8
BLACK
6
CONTINUOUS
10
151.9194479999999885
20
-93.7322259999999972
11
151.8759210000000053
21
-93.9044540000000012
0
LINE
8
BLACK
6
CONTINUOUS
10
151.8759210000000053
20
-93.9044540000000012
11
151.8758579999999938
21
-93.9045849999999973
0
LINE
8
BLACK
6
CONTINUOUS
10
151.8758579999999938
20
-93.9045849999999973
11
151.8758430000000033
21
-93.9047279999999915
0
LINE
8
BLACK
6
CONTINUOUS
10
151.8758430000000033
20
-93.9047279999999915
11
151.8218229999999949
21
-94.0767079999999964
0
LINE
8
BLACK
6
CONTINUOUS
10
151.8218229999999949
20
-94.0767079999999964
11
151.8217799999999897
21
-94.0767839999999893
0
LINE
8
BLACK
6
CONTINUOUS
10
151.8217799999999897
20
-94.0767839999999893
11
151.8217799999999897
21
-94.07683999999999
0
LINE
8
BLACK
6
CONTINUOUS
10
151.8217799999999897
20
-94.07683999999999
11
151.6131159999999909
21
-94.6379570000000001
0
LINE
8
BLACK
6
CONTINUOUS
10
151.6131159999999909
20
-94.6379570000000001
11
151.3778360000000021
21
-95.1884439999999898
0
LINE
8
BLACK
6
CONTINUOUS
10
151.3778360000000021
20
-95.1884439999999898
11
151.1164799999999957
21
-95.7270389999999907
0
LINE
8
BLACK
6
CONTINUOUS
10
151.1164799999999957
20
-95.7270389999999907
11
150.8296459999999968
21
-96.2525089999999892
0
LINE
8
BLACK
6
CONTINUOUS
10
150.8296459999999968
20
-96.2525089999999892
11
150.5179919999999925
21
-96.7636490000000009
0
LINE
8
BLACK
6
CONTINUOUS
10
150.5179919999999925
20
-96.7636490000000009
11
150.1822319999999991
21
-97.259287999999998
0
LINE
8
BLACK
6
CONTINUOUS
10
150.1822319999999991
20
-97.259287999999998
11
149.8231349999999793
21
-97.7382889999999946
0
LINE
8
BLACK
6
CONTINUOUS
10
149.8231349999999793
20
-97.7382889999999946
11
149.4415249999999844
21
-98.1995549999999895
0
LINE
8
BLACK
6
CONTINUOUS
10
149.4415249999999844
20
-98.1995549999999895
11
149.4415280000000052
21
-98.1995579999999961
0
LINE
8
BLACK
6
CONTINUOUS
10
149.4415280000000052
20
-98.1995579999999961
11
149.4414950000000033
21
-98.1995769999999908
0
LINE
8
BLACK
6
CONTINUOUS
10
149.4414950000000033
20
-98.1995769999999908
11
149.4414659999999913
21
-98.1996269999999924
0
LINE
8
BLACK
6
CONTINUOUS
10
149.4414659999999913
20
-98.1996269999999924
11
149.3596880000000056
21
-98.2903110000000027
0
LINE
8
BLACK
6
CONTINUOUS
10
149.3596880000000056
20
-98.2903110000000027
11
149.3595359999999914
21
-98.2904229999999899
0
LINE
8
BLACK
6
CONTINUOUS
10
149.3595359999999914
20
-98.2904229999999899
11
149.3594269999999824
21
-98.2905799999999914
0
LINE
8
BLACK
6
CONTINUOUS
10
149.3594269999999824
20
-98.2905799999999914
11
149.1074909999999818
21
-98.5310119999999898
0
LINE
8
BLACK
6
CONTINUOUS
10
149.1074909999999818
20
-98.5310119999999898
11
149.107245000000006
21
-98.5311669999999964
0
LINE
8
BLACK
6
CONTINUOUS
10
149.107245000000006
20
-98.5311669999999964
11
149.1070509999999842
21
-98.5313859999999977
0
LINE
8
BLACK
6
CONTINUOUS
10
149.1070509999999842
20
-98.5313859999999977
11
148.8356870000000072
21
-98.7361360000000019
0
LINE
8
BLACK
6
CONTINUOUS
10
148.8356870000000072
20
-98.7361360000000019
11
148.8354850000000056
21
-98.7362329999999986
0
LINE
8
BLACK
6
CONTINUOUS
10
148.8354850000000056
20
-98.7362329999999986
11
148.8353219999999908
21
-98.7363869999999935
0
LINE
8
BLACK
6
CONTINUOUS
10
148.8353219999999908
20
-98.7363869999999935
11
148.6916669999999954
21
-98.826036000000002
0
LINE
8
BLACK
6
CONTINUOUS
10
148.6916669999999954
20
-98.826036000000002
11
148.6915269999999794
21
-98.8260879999999986
0
LINE
8
BLACK
6
CONTINUOUS
10
148.6915269999999794
20
-98.8260879999999986
11
148.6914119999999855
21
-98.8261849999999953
0
LINE
8
BLACK
6
CONTINUOUS
10
148.6914119999999855
20
-98.8261849999999953
11
148.5425379999999791
21
-98.907268000000002
0
LINE
8
BLACK
6
CONTINUOUS
10
148.5425379999999791
20
-98.907268000000002
11
148.5423949999999991
21
-98.9073119999999903
0
LINE
8
BLACK
6
CONTINUOUS
10
148.5423949999999991
20
-98.9073119999999903
11
148.5422739999999919
21
-98.9074019999999905
0
LINE
8
BLACK
6
CONTINUOUS
10
148.5422739999999919
20
-98.9074019999999905
11
148.3869159999999852
21
-98.9804709999999943
0
LINE
8
BLACK
6
CONTINUOUS
10
148.3869159999999852
20
-98.9804709999999943
11
148.3867699999999843
21
-98.9805059999999912
0
LINE
8
BLACK
6
CONTINUOUS
10
148.3867699999999843
20
-98.9805059999999912
11
148.3866479999999797
21
-98.9805869999999999
0
LINE
8
BLACK
6
CONTINUOUS
10
148.3866479999999797
20
-98.9805869999999999
11
148.225986000000006
21
-99.04495
0
LINE
8
BLACK
6
CONTINUOUS
10
148.225986000000006
20
-99.04495
11
148.2258410000000026
21
-99.0449759999999912
0
LINE
8
BLACK
6
CONTINUOUS
10
148.2258410000000026
20
-99.0449759999999912
11
148.2257139999999822
21
-99.0450499999999892
0
LINE
8
BLACK
6
CONTINUOUS
10
148.2257139999999822
20
-99.0450499999999892
11
148.057266999999996
21
-99.1014629999999954
0
LINE
8
BLACK
6
CONTINUOUS
10
148.057266999999996
20
-99.1014629999999954
11
148.057124999999985
21
-99.1014809999999926
0
LINE
8
BLACK
6
CONTINUOUS
10
148.057124999999985
20
-99.1014809999999926
11
148.0569950000000006
21
-99.101545999999999
0
LINE
8
BLACK
6
CONTINUOUS
10
148.0569950000000006
20
-99.101545999999999
11
147.8830869999999891
21
-99.1489949999999993
0
LINE
8
BLACK
6
CONTINUOUS
10
147.8830869999999891
20
-99.1489949999999993
11
147.8829979999999864
21
-99.1490009999999984
0
LINE
8
BLACK
6
CONTINUOUS
10
147.8829979999999864
20
-99.1490009999999984
11
147.8829529999999863
21
-99.1490289999999987
0
LINE
8
BLACK
6
CONTINUOUS
10
147.8829529999999863
20
-99.1490289999999987
11
147.4618569999999806
21
-99.2342079999999953
0
LINE
8
BLACK
6
CONTINUOUS
10
147.4618569999999806
20
-99.2342079999999953
11
147.0354010000000073
21
-99.286287999999999
0
LINE
8
BLACK
6
CONTINUOUS
10
147.0354010000000073
20
-99.286287999999999
11
146.6061819999999898
21
-99.3049539999999951
0
LINE
8
BLACK
6
CONTINUOUS
10
146.6061819999999898
20
-99.3049539999999951
11
146.1768150000000048
21
-99.2900909999999897
0
LINE
8
BLACK
6
CONTINUOUS
10
146.1768150000000048
20
-99.2900909999999897
11
145.7499139999999898
21
-99.2417899999999946
0
LINE
8
BLACK
6
CONTINUOUS
10
145.7499139999999898
20
-99.2417899999999946
11
145.3280799999999999
21
-99.1603449999999924
0
LINE
8
BLACK
6
CONTINUOUS
10
145.3280799999999999
20
-99.1603449999999924
11
144.913882000000001
21
-99.0462519999999955
0
LINE
8
BLACK
6
CONTINUOUS
10
144.913882000000001
20
-99.0462519999999955
11
144.5098429999999894
21
-98.9002059999999972
0
LINE
8
BLACK
6
CONTINUOUS
10
144.5098429999999894
20
-98.9002059999999972
11
144.1184230000000071
21
-98.7230969999999957
0
LINE
8
BLACK
6
CONTINUOUS
10
144.1184230000000071
20
-98.7230969999999957
11
143.742007000000001
21
-98.5160029999999978
0
LINE
8
BLACK
6
CONTINUOUS
10
143.742007000000001
20
-98.5160029999999978
11
143.382885999999985
21
-98.2801860000000005
0
LINE
8
BLACK
6
CONTINUOUS
10
143.382885999999985
20
-98.2801860000000005
11
143.0433109999999886
21
-98.0171279999999996
0
LINE
8
BLACK
6
CONTINUOUS
10
143.0433109999999886
20
-98.0171279999999996
11
143.0432769999999891
21
-98.0171100000000024
0
LINE
8
BLACK
6
CONTINUOUS
10
143.0432769999999891
20
-98.0171100000000024
11
142.9461399999999855
21
-97.9369030000000009
0
LINE
8
BLACK
6
CONTINUOUS
10
142.9461399999999855
20
-97.9369030000000009
11
142.5257079999999803
21
-97.619733999999994
0
LINE
8
BLACK
6
CONTINUOUS
10
142.5257079999999803
20
-97.619733999999994
11
142.1159959999999955
21
-97.357523999999998
0
LINE
8
BLACK
6
CONTINUOUS
10
142.1159959999999955
20
-97.357523999999998
11
141.7155539999999974
21
-97.1459679999999963
0
LINE
8
BLACK
6
CONTINUOUS
10
141.7155539999999974
20
-97.1459679999999963
11
141.3228000000000009
21
-96.9814179999999908
0
LINE
8
BLACK
6
CONTINUOUS
10
141.3228000000000009
20
-96.9814179999999908
11
140.9359849999999881
21
-96.8609319999999911
0
LINE
8
BLACK
6
CONTINUOUS
10
140.9359849999999881
20
-96.8609319999999911
11
140.5531939999999906
21
-96.782320999999996
0
LINE
8
BLACK
6
CONTINUOUS
10
140.5531939999999906
20
-96.782320999999996
11
140.1723519999999894
21
-96.7442109999999929
0
LINE
8
BLACK
6
CONTINUOUS
10
140.1723519999999894
20
-96.7442109999999929
11
139.9819829999999854
21
-96.7401579999999939
0
LINE
8
BLACK
6
CONTINUOUS
10
139.9819829999999854
20
-96.7401579999999939
11
139.7915219999999863
21
-96.746106999999995
0
LINE
8
BLACK
6
CONTINUOUS
10
139.7915219999999863
20
-96.746106999999995
11
139.6000159999999823
21
-96.7621769999999941
0
LINE
8
BLACK
6
CONTINUOUS
10
139.6000159999999823
20
-96.7621769999999941
11
139.4084550000000036
21
-96.7883700000000005
0
LINE
8
BLACK
6
CONTINUOUS
10
139.4084550000000036
20
-96.7883700000000005
11
139.2147909999999911
21
-96.825138999999993
0
LINE
8
BLACK
6
CONTINUOUS
10
139.2147909999999911
20
-96.825138999999993
11
139.0211219999999912
21
-96.8722530000000006
0
LINE
8
BLACK
6
CONTINUOUS
10
139.0211219999999912
20
-96.8722530000000006
11
138.8243209999999976
21
-96.9307239999999979
0
LINE
8
BLACK
6
CONTINUOUS
10
138.8243209999999976
20
-96.9307239999999979
11
138.627521999999999
21
-96.9998760000000004
0
LINE
8
BLACK
6
CONTINUOUS
10
138.627521999999999
20
-96.9998760000000004
11
138.4267069999999933
21
-97.0814469999999972
0
LINE
8
BLACK
6
CONTINUOUS
10
138.4267069999999933
20
-97.0814469999999972
11
138.2258599999999831
21
-97.1741519999999923
0
LINE
8
BLACK
6
CONTINUOUS
10
138.2258599999999831
20
-97.1741519999999923
11
138.0201849999999979
21
-97.2806130000000024
0
LINE
8
BLACK
6
CONTINUOUS
10
138.0201849999999979
20
-97.2806130000000024
11
137.8144709999999975
21
-97.3987599999999958
0
LINE
8
BLACK
6
CONTINUOUS
10
137.8144709999999975
20
-97.3987599999999958
11
137.6031669999999849
21
-97.5322630000000004
0
LINE
8
BLACK
6
CONTINUOUS
10
137.6031669999999849
20
-97.5322630000000004
11
137.3918749999999989
21
-97.6780660000000012
0
LINE
8
BLACK
6
CONTINUOUS
10
137.3918749999999989
20
-97.6780660000000012
11
137.1743050000000039
21
-97.8410590000000013
0
LINE
8
BLACK
6
CONTINUOUS
10
137.1743050000000039
20
-97.8410590000000013
11
136.9566839999999956
21
-98.0171409999999952
0
LINE
8
BLACK
6
CONTINUOUS
10
136.9566839999999956
20
-98.0171409999999952
11
136.9566659999999843
21
-98.0171500000000009
0
LINE
8
BLACK
6
CONTINUOUS
10
136.9566659999999843
20
-98.0171500000000009
11
136.6171149999999841
21
-98.2801879999999954
0
LINE
8
BLACK
6
CONTINUOUS
10
136.6171149999999841
20
-98.2801879999999954
11
136.257994999999994
21
-98.5160059999999902
0
LINE
8
BLACK
6
CONTINUOUS
10
136.257994999999994
20
-98.5160059999999902
11
135.8815779999999904
21
-98.7231000000000023
0
LINE
8
BLACK
6
CONTINUOUS
10
135.8815779999999904
20
-98.7231000000000023
11
135.4901579999999797
21
-98.9002089999999896
0
LINE
8
BLACK
6
CONTINUOUS
10
135.4901579999999797
20
-98.9002089999999896
11
135.0861189999999965
21
-99.0462550000000022
0
LINE
8
BLACK
6
CONTINUOUS
10
135.0861189999999965
20
-99.0462550000000022
11
134.6719209999999975
21
-99.160347999999999
0
LINE
8
BLACK
6
CONTINUOUS
10
134.6719209999999975
20
-99.160347999999999
11
134.2500859999999818
21
-99.2417930000000013
0
LINE
8
BLACK
6
CONTINUOUS
10
134.2500859999999818
20
-99.2417930000000013
11
133.8231859999999926
21
-99.2900939999999963
0
LINE
8
BLACK
6
CONTINUOUS
10
133.8231859999999926
20
-99.2900939999999963
11
133.3938179999999818
21
-99.3049570000000017
0
LINE
8
BLACK
6
CONTINUOUS
10
133.3938179999999818
20
-99.3049570000000017
11
132.9645989999999927
21
-99.2862909999999914
0
LINE
8
BLACK
6
CONTINUOUS
10
132.9645989999999927
20
-99.2862909999999914
11
132.5381429999999909
21
-99.2342110000000019
0
LINE
8
BLACK
6
CONTINUOUS
10
132.5381429999999909
20
-99.2342110000000019
11
132.1170469999999852
21
-99.1490319999999912
0
LINE
8
BLACK
6
CONTINUOUS
10
132.1170469999999852
20
-99.1490319999999912
11
132.1170469999999852
21
-99.1490289999999987
0
LINE
8
BLACK
6
CONTINUOUS
10
132.1170469999999852
20
-99.1490289999999987
11
132.1170149999999808
21
-99.1490089999999924
0
LINE
8
BLACK
6
CONTINUOUS
10
132.1170149999999808
20
-99.1490089999999924
11
132.1169559999999876
21
-99.149006
0
LINE
8
BLACK
6
CONTINUOUS
10
132.1169559999999876
20
-99.149006
11
131.998864999999995
21
-99.1179309999999987
0
LINE
8
BLACK
6
CONTINUOUS
10
131.998864999999995
20
-99.1179309999999987
11
131.9986940000000004
21
-99.1178469999999976
0
LINE
8
BLACK
6
CONTINUOUS
10
131.9986940000000004
20
-99.1178469999999976
11
131.9985059999999919
21
-99.1178219999999897
0
LINE
8
BLACK
6
CONTINUOUS
10
131.9985059999999919
20
-99.1178219999999897
11
131.6693009999999902
21
-99.0042279999999977
0
LINE
8
BLACK
6
CONTINUOUS
10
131.6693009999999902
20
-99.0042279999999977
11
131.6690490000000011
21
-99.0040800000000019
0
LINE
8
BLACK
6
CONTINUOUS
10
131.6690490000000011
20
-99.0040800000000019
11
131.6687660000000051
21
-99.0040079999999989
0
LINE
8
BLACK
6
CONTINUOUS
10
131.6687660000000051
20
-99.0040079999999989
11
131.3623589999999979
21
-98.8567839999999904
0
LINE
8
BLACK
6
CONTINUOUS
10
131.3623589999999979
20
-98.8567839999999904
11
131.3621799999999951
21
-98.8566500000000019
0
LINE
8
BLACK
6
CONTINUOUS
10
131.3621799999999951
20
-98.8566500000000019
11
131.3619679999999903
21
-98.8565749999999923
0
LINE
8
BLACK
6
CONTINUOUS
10
131.3619679999999903
20
-98.8565749999999923
11
131.2164159999999811
21
-98.770040999999992
0
LINE
8
BLACK
6
CONTINUOUS
10
131.2164159999999811
20
-98.770040999999992
11
131.2163029999999821
21
-98.7699399999999912
0
LINE
8
BLACK
6
CONTINUOUS
10
131.2163029999999821
20
-98.7699399999999912
11
131.216165999999987
21
-98.7698819999999955
0
LINE
8
BLACK
6
CONTINUOUS
10
131.216165999999987
20
-98.7698819999999955
11
131.0758309999999938
21
-98.6747819999999933
0
LINE
8
BLACK
6
CONTINUOUS
10
131.0758309999999938
20
-98.6747819999999933
11
131.0757250000000056
21
-98.6746749999999935
0
LINE
8
BLACK
6
CONTINUOUS
10
131.0757250000000056
20
-98.6746749999999935
11
131.0755910000000029
21
-98.6746089999999896
0
LINE
8
BLACK
6
CONTINUOUS
10
131.0755910000000029
20
-98.6746089999999896
11
130.9394049999999936
21
-98.5700709999999987
0
LINE
8
BLACK
6
CONTINUOUS
10
130.9394049999999936
20
-98.5700709999999987
11
130.9393059999999878
21
-98.5699579999999997
0
LINE
8
BLACK
6
CONTINUOUS
10
130.9393059999999878
20
-98.5699579999999997
11
130.9391789999999958
21
-98.5698859999999968
0
LINE
8
BLACK
6
CONTINUOUS
10
130.9391789999999958
20
-98.5698859999999968
11
130.8082939999999894
21
-98.4566420000000022
0
LINE
8
BLACK
6
CONTINUOUS
10
130.8082939999999894
20
-98.4566420000000022
11
130.8082029999999918
21
-98.4565249999999992
0
LINE
8
BLACK
6
CONTINUOUS
10
130.8082029999999918
20
-98.4565249999999992
11
130.8080819999999846
21
-98.4564469999999972
0
LINE
8
BLACK
6
CONTINUOUS
10
130.8080819999999846
20
-98.4564469999999972
11
130.6806909999999959
21
-98.3326379999999887
0
LINE
8
BLACK
6
CONTINUOUS
10
130.6806909999999959
20
-98.3326379999999887
11
130.6806069999999806
21
-98.3325169999999957
0
LINE
8
BLACK
6
CONTINUOUS
10
130.6806069999999806
20
-98.3325169999999957
11
130.6804939999999817
21
-98.3324339999999921
0
LINE
8
BLACK
6
CONTINUOUS
10
130.6804939999999817
20
-98.3324339999999921
11
130.5585639999999898
21
-98.1996609999999919
0
LINE
8
BLACK
6
CONTINUOUS
10
130.5585639999999898
20
-98.1996609999999919
11
130.5585179999999923
21
-98.199584999999999
0
LINE
8
BLACK
6
CONTINUOUS
10
130.5585179999999923
20
-98.199584999999999
11
130.5584719999999948
21
-98.1995579999999961
0
LINE
8
BLACK
6
CONTINUOUS
10
130.5584719999999948
20
-98.1995579999999961
11
130.5584729999999922
21
-98.1995569999999987
0
LINE
8
BLACK
6
CONTINUOUS
10
130.5584729999999922
20
-98.1995569999999987
11
130.1768629999999973
21
-97.7382909999999896
0
LINE
8
BLACK
6
CONTINUOUS
10
130.1768629999999973
20
-97.7382909999999896
11
129.817766000000006
21
-97.2592899999999929
0
LINE
8
BLACK
6
CONTINUOUS
10
129.817766000000006
20
-97.2592899999999929
11
129.4820059999999842
21
-96.7636509999999959
0
LINE
8
BLACK
6
CONTINUOUS
10
129.4820059999999842
20
-96.7636509999999959
11
129.1703520000000083
21
-96.2525109999999984
0
LINE
8
BLACK
6
CONTINUOUS
10
129.1703520000000083
20
-96.2525109999999984
11
128.8835179999999809
21
-95.7270409999999998
0
LINE
8
BLACK
6
CONTINUOUS
10
128.8835179999999809
20
-95.7270409999999998
11
128.6221610000000055
21
-95.1884450000000015
0
LINE
8
BLACK
6
CONTINUOUS
10
128.6221610000000055
20
-95.1884450000000015
11
128.3868809999999883
21
-94.6379579999999976
0
LINE
8
BLACK
6
CONTINUOUS
10
128.3868809999999883
20
-94.6379579999999976
11
128.1782169999999894
21
-94.0768410000000017
0
LINE
8
BLACK
6
CONTINUOUS
10
128.1782169999999894
20
-94.0768410000000017
11
128.1782199999999818
21
-94.07683999999999
0
LINE
8
BLACK
6
CONTINUOUS
10
128.1782199999999818
20
-94.07683999999999
11
128.1782189999999844
21
-94.0768020000000007
0
LINE
8
BLACK
6
CONTINUOUS
10
128.1782189999999844
20
-94.0768020000000007
11
128.1781909999999982
21
-94.076751999999999
0
LINE
8
BLACK
6
CONTINUOUS
10
128.1781909999999982
20
-94.076751999999999
11
128.140545000000003
21
-93.9605859999999922
0
LINE
8
BLACK
6
CONTINUOUS
10
128.140545000000003
20
-93.9605859999999922
11
128.1405220000000043
21
-93.9603970000000004
0
LINE
8
BLACK
6
CONTINUOUS
10
128.1405220000000043
20
-93.9603970000000004
11
128.1404430000000048
21
-93.9602259999999916
0
LINE
8
BLACK
6
CONTINUOUS
10
128.1404430000000048
20
-93.9602259999999916
11
128.0581899999999962
21
-93.6218259999999987
0
LINE
8
BLACK
6
CONTINUOUS
10
128.0581899999999962
20
-93.6218259999999987
11
128.0581770000000006
21
-93.621532000000002
0
LINE
8
BLACK
6
CONTINUOUS
10
128.0581770000000006
20
-93.621532000000002
11
128.0580870000000004
21
-93.6212579999999974
0
LINE
8
BLACK
6
CONTINUOUS
10
128.0580870000000004
20
-93.6212579999999974
11
128.0164499999999919
21
-93.2838729999999998
0
LINE
8
BLACK
6
CONTINUOUS
10
128.0164499999999919
20
-93.2838729999999998
11
128.0164660000000083
21
-93.2836509999999919
0
LINE
8
BLACK
6
CONTINUOUS
10
128.0164660000000083
20
-93.2836509999999919
11
128.016414999999995
21
-93.2834330000000023
0
LINE
8
BLACK
6
CONTINUOUS
10
128.016414999999995
20
-93.2834330000000023
11
128.0106040000000007
21
-93.1141999999999967
0
LINE
8
BLACK
6
CONTINUOUS
10
128.0106040000000007
20
-93.1141999999999967
11
128.010627999999997
21
-93.1140499999999918
0
LINE
8
BLACK
6
CONTINUOUS
10
128.010627999999997
20
-93.1140499999999918
11
128.0106030000000032
21
-93.1139039999999909
0
LINE
8
BLACK
6
CONTINUOUS
10
128.0106030000000032
20
-93.1139039999999909
11
128.0148199999999861
21
-92.9444340000000011
0
LINE
8
BLACK
6
CONTINUOUS
10
128.0148199999999861
20
-92.9444340000000011
11
128.0148519999999905
21
-92.9442870000000028
0
LINE
8
BLACK
6
CONTINUOUS
10
128.0148519999999905
20
-92.9442870000000028
11
128.0148360000000025
21
-92.9441389999999927
0
LINE
8
BLACK
6
CONTINUOUS
10
128.0148360000000025
20
-92.9441389999999927
11
128.0292359999999974
21
-92.7730619999999959
0
LINE
8
BLACK
6
CONTINUOUS
10
128.0292359999999974
20
-92.7730619999999959
11
128.0292770000000075
21
-92.7729190000000017
0
LINE
8
BLACK
6
CONTINUOUS
10
128.0292770000000075
20
-92.7729190000000017
11
128.0292689999999993
21
-92.7727709999999917
0
LINE
8
BLACK
6
CONTINUOUS
10
128.0292689999999993
20
-92.7727709999999917
11
128.0538589999999886
21
-92.6014519999999948
0
LINE
8
BLACK
6
CONTINUOUS
10
128.0538589999999886
20
-92.6014519999999948
11
128.0539069999999811
21
-92.6013140000000021
0
LINE
8
BLACK
6
CONTINUOUS
10
128.0539069999999811
20
-92.6013140000000021
11
128.053908000000007
21
-92.6011669999999896
0
LINE
8
BLACK
6
CONTINUOUS
10
128.053908000000007
20
-92.6011669999999896
11
128.0892769999999814
21
-92.4270810000000012
0
LINE
8
BLACK
6
CONTINUOUS
10
128.0892769999999814
20
-92.4270810000000012
11
128.0893329999999821
21
-92.4269460000000009
0
LINE
8
BLACK
6
CONTINUOUS
10
128.0893329999999821
20
-92.4269460000000009
11
128.0893419999999878
21
-92.4268050000000017
0
LINE
8
BLACK
6
CONTINUOUS
10
128.0893419999999878
20
-92.4268050000000017
11
128.1352039999999874
21
-92.2524719999999974
0
LINE
8
BLACK
6
CONTINUOUS
10
128.1352039999999874
20
-92.2524719999999974
11
128.1352420000000052
21
-92.2523920000000004
0
LINE
8
BLACK
6
CONTINUOUS
10
128.1352420000000052
20
-92.2523920000000004
11
128.1352410000000077
21
-92.2523379999999946
0
LINE
8
BLACK
6
CONTINUOUS
10
128.1352410000000077
20
-92.2523379999999946
11
128.2720209999999952
21
-91.8450689999999952
0
LINE
8
BLACK
6
CONTINUOUS
10
128.2720209999999952
20
-91.8450689999999952
11
128.4401450000000011
21
-91.4497059999999919
0
LINE
8
BLACK
6
CONTINUOUS
10
128.4401450000000011
20
-91.4497059999999919
11
128.6385889999999961
21
-91.0686579999999992
0
LINE
8
BLACK
6
CONTINUOUS
10
128.6385889999999961
20
-91.0686579999999992
11
128.8661429999999939
21
-90.7042459999999977
0
LINE
8
BLACK
6
CONTINUOUS
10
128.8661429999999939
20
-90.7042459999999977
11
129.121422999999993
21
-90.3586889999999983
0
LINE
8
BLACK
6
CONTINUOUS
10
129.121422999999993
20
-90.3586889999999983
11
129.4028729999999996
21
-90.0340909999999894
0
LINE
8
BLACK
6
CONTINUOUS
10
129.4028729999999996
20
-90.0340909999999894
11
129.7087799999999902
21
-89.7324309999999912
0
LINE
8
BLACK
6
CONTINUOUS
10
129.7087799999999902
20
-89.7324309999999912
11
130.0372789999999839
21
-89.4555450000000008
0
LINE
8
BLACK
6
CONTINUOUS
10
130.0372789999999839
20
-89.4555450000000008
11
130.3863699999999994
21
-89.2051199999999938
0
LINE
8
BLACK
6
CONTINUOUS
10
130.3863699999999994
20
-89.2051199999999938
11
130.7539270000000045
21
-88.9826809999999995
0
LINE
8
BLACK
6
CONTINUOUS
10
130.7539270000000045
20
-88.9826809999999995
11
131.1377109999999959
21
-88.7895819999999958
0
LINE
8
BLACK
6
CONTINUOUS
10
131.1377109999999959
20
-88.7895819999999958
11
131.5353849999999909
21
-88.6270009999999928
0
LINE
8
BLACK
6
CONTINUOUS
10
131.5353849999999909
20
-88.6270009999999928
11
131.5353849999999909
21
-88.6270019999999903
0
LINE
8
BLACK
6
CONTINUOUS
10
131.5353849999999909
20
-88.6270019999999903
11
131.653365000000008
21
-88.5830009999999959
0
LINE
8
BLACK
6
CONTINUOUS
10
131.653365000000008
20
-88.5830009999999959
11
132.1382729999999981
21
-88.3774739999999923
0
LINE
8
BLACK
6
CONTINUOUS
10
132.1382729999999981
20
-88.3774739999999923
11
132.5702139999999929
21
-88.1537539999999922
0
LINE
8
BLACK
6
CONTINUOUS
10
132.5702139999999929
20
-88.1537539999999922
11
132.9536420000000021
21
-87.9127439999999893
0
LINE
8
BLACK
6
CONTINUOUS
10
132.9536420000000021
20
-87.9127439999999893
11
133.2925189999999986
21
-87.6548870000000022
0
LINE
8
BLACK
6
CONTINUOUS
10
133.2925189999999986
20
-87.6548870000000022
11
133.5902759999999887
21
-87.3801339999999982
0
LINE
8
BLACK
6
CONTINUOUS
10
133.5902759999999887
20
-87.3801339999999982
11
133.8497459999999819
21
-87.0879379999999941
0
LINE
8
BLACK
6
CONTINUOUS
10
133.8497459999999819
20
-87.0879379999999941
11
134.0731759999999895
21
-86.7771649999999966
0
LINE
8
BLACK
6
CONTINUOUS
10
134.0731759999999895
20
-86.7771649999999966
11
134.1718679999999893
21
-86.614333000000002
0
LINE
8
BLACK
6
CONTINUOUS
10
134.1718679999999893
20
-86.614333000000002
11
134.2619399999999814
21
-86.4464260000000024
0
LINE
8
BLACK
6
CONTINUOUS
10
134.2619399999999814
20
-86.4464260000000024
11
134.3437879999999893
21
-86.2725179999999909
0
LINE
8
BLACK
6
CONTINUOUS
10
134.3437879999999893
20
-86.2725179999999909
11
134.4168809999999894
21
-86.0935339999999911
0
LINE
8
BLACK
6
CONTINUOUS
10
134.4168809999999894
20
-86.0935339999999911
11
134.4818679999999915
21
-85.9074349999999924
0
LINE
8
BLACK
6
CONTINUOUS
10
134.4818679999999915
20
-85.9074349999999924
11
134.5379010000000051
21
-85.7161540000000031
0
LINE
8
BLACK
6
CONTINUOUS
10
134.5379010000000051
20
-85.7161540000000031
11
134.5856650000000059
21
-85.5164789999999897
0
LINE
8
BLACK
6
CONTINUOUS
10
134.5856650000000059
20
-85.5164789999999897
11
134.6241739999999822
21
-85.3114889999999946
0
LINE
8
BLACK
6
CONTINUOUS
10
134.6241739999999822
20
-85.3114889999999946
11
134.6539429999999982
21
-85.0967569999999967
0
LINE
8
BLACK
6
CONTINUOUS
10
134.6539429999999982
20
-85.0967569999999967
11
134.6740769999999827
21
-84.8765039999999971
0
LINE
8
BLACK
6
CONTINUOUS
10
134.6740769999999827
20
-84.8765039999999971
11
134.6847190000000012
21
-84.6451160000000016
0
LINE
8
BLACK
6
CONTINUOUS
10
134.6847190000000012
20
-84.6451160000000016
11
134.6852570000000071
21
-84.4079069999999945
0
LINE
8
BLACK
6
CONTINUOUS
10
134.6852570000000071
20
-84.4079069999999945
11
134.6752929999999822
21
-84.158175
0
LINE
8
BLACK
6
CONTINUOUS
10
134.6752929999999822
20
-84.158175
11
134.6546669999999892
21
-83.9022489999999976
0
LINE
8
BLACK
6
CONTINUOUS
10
134.6546669999999892
20
-83.9022489999999976
11
134.6223029999999881
21
-83.6323909999999984
0
LINE
8
BLACK
6
CONTINUOUS
10
134.6223029999999881
20
-83.6323909999999984
11
134.5786180000000058
21
-83.3558549999999912
0
LINE
8
BLACK
6
CONTINUOUS
10
134.5786180000000058
20
-83.3558549999999912
11
134.5786180000000058
21
-83.355836999999994
0
LINE
8
BLACK
6
CONTINUOUS
10
134.5786180000000058
20
-83.355836999999994
11
134.5205949999999859
21
-82.930256
0
LINE
8
BLACK
6
CONTINUOUS
10
134.5205949999999859
20
-82.930256
11
134.4959309999999846
21
-82.501339999999999
0
LINE
8
BLACK
6
CONTINUOUS
10
134.4959309999999846
20
-82.501339999999999
11
134.5047899999999856
21
-82.0718059999999952
0
LINE
8
BLACK
6
CONTINUOUS
10
134.5047899999999856
20
-82.0718059999999952
11
134.5471179999999833
21
-81.6442710000000034
0
LINE
8
BLACK
6
CONTINUOUS
10
134.5471179999999833
20
-81.6442710000000034
11
134.6226580000000013
21
-81.2213390000000004
0
LINE
8
BLACK
6
CONTINUOUS
10
134.6226580000000013
20
-81.2213390000000004
11
134.7309500000000071
21
-80.805585999999991
0
LINE
8
BLACK
6
CONTINUOUS
10
134.7309500000000071
20
-80.805585999999991
11
134.8713329999999928
21
-80.3995439999999917
0
LINE
8
BLACK
6
CONTINUOUS
10
134.8713329999999928
20
-80.3995439999999917
11
135.0429539999999804
21
-80.0056859999999972
0
LINE
8
BLACK
6
CONTINUOUS
10
135.0429539999999804
20
-80.0056859999999972
11
135.2447659999999985
21
-79.6264109999999903
0
LINE
8
BLACK
6
CONTINUOUS
10
135.2447659999999985
20
-79.6264109999999903
11
135.4755399999999952
21
-79.2640289999999936
0
LINE
8
BLACK
6
CONTINUOUS
10
135.4755399999999952
20
-79.2640289999999936
11
135.733871999999991
21
-78.9207469999999915
0
LINE
8
BLACK
6
CONTINUOUS
10
135.733871999999991
20
-78.9207469999999915
11
136.0181869999999833
21
-78.5986559999999912
0
LINE
8
BLACK
6
CONTINUOUS
10
136.0181869999999833
20
-78.5986559999999912
11
136.0181929999999966
21
-78.5986619999999903
0
LINE
8
BLACK
6
CONTINUOUS
10
136.0181929999999966
20
-78.5986619999999903
11
136.0182259999999985
21
-78.5986429999999956
0
LINE
8
BLACK
6
CONTINUOUS
10
136.0182259999999985
20
-78.5986429999999956
11
136.0182590000000005
21
-78.5985950000000031
0
LINE
8
BLACK
6
CONTINUOUS
10
136.0182590000000005
20
-78.5985950000000031
11
136.1042170000000056
21
-78.5118609999999961
0
LINE
8
BLACK
6
CONTINUOUS
10
136.1042170000000056
20
-78.5118609999999961
11
136.1043729999999812
21
-78.5117549999999937
0
LINE
8
BLACK
6
CONTINUOUS
10
136.1043729999999812
20
-78.5117549999999937
11
136.1044899999999984
21
-78.511605000000003
0
LINE
8
BLACK
6
CONTINUOUS
10
136.1044899999999984
20
-78.511605000000003
11
136.3674689999999998
21
-78.2833040000000011
0
LINE
8
BLACK
6
CONTINUOUS
10
136.3674689999999998
20
-78.2833040000000011
11
136.3677209999999889
21
-78.2831589999999977
0
LINE
8
BLACK
6
CONTINUOUS
10
136.3677209999999889
20
-78.2831589999999977
11
136.3679269999999804
21
-78.2829499999999996
0
LINE
8
BLACK
6
CONTINUOUS
10
136.3679269999999804
20
-78.2829499999999996
11
136.6486319999999921
21
-78.0912050000000022
0
LINE
8
BLACK
6
CONTINUOUS
10
136.6486319999999921
20
-78.0912050000000022
11
136.6488379999999836
21
-78.091116999999997
0
LINE
8
BLACK
6
CONTINUOUS
10
136.6488379999999836
20
-78.091116999999997
11
136.6490079999999807
21
-78.0909719999999936
0
LINE
8
BLACK
6
CONTINUOUS
10
136.6490079999999807
20
-78.0909719999999936
11
136.7967249999999808
21
-78.0081869999999924
0
LINE
8
BLACK
6
CONTINUOUS
10
136.7967249999999808
20
-78.0081869999999924
11
136.7968669999999918
21
-78.0081399999999974
0
LINE
8
BLACK
6
CONTINUOUS
10
136.7968669999999918
20
-78.0081399999999974
11
136.7969870000000014
21
-78.0080499999999972
0
LINE
8
BLACK
6
CONTINUOUS
10
136.7969870000000014
20
-78.0080499999999972
11
136.9495129999999961
21
-77.9340669999999989
0
LINE
8
BLACK
6
CONTINUOUS
10
136.9495129999999961
20
-77.9340669999999989
11
136.949657000000002
21
-77.9340289999999953
0
LINE
8
BLACK
6
CONTINUOUS
10
136.949657000000002
20
-77.9340289999999953
11
136.949781999999999
21
-77.9339459999999917
0
LINE
8
BLACK
6
CONTINUOUS
10
136.949781999999999
20
-77.9339459999999917
11
137.1084079999999972
21
-77.8682739999999995
0
LINE
8
BLACK
6
CONTINUOUS
10
137.1084079999999972
20
-77.8682739999999995
11
137.108553999999998
21
-77.86824399999999
0
LINE
8
BLACK
6
CONTINUOUS
10
137.108553999999998
20
-77.86824399999999
11
137.1086819999999875
21
-77.8681699999999921
0
LINE
8
BLACK
6
CONTINUOUS
10
137.1086819999999875
20
-77.8681699999999921
11
137.2721959999999797
21
-77.811442999999997
0
LINE
8
BLACK
6
CONTINUOUS
10
137.2721959999999797
20
-77.811442999999997
11
137.2723389999999881
21
-77.8114229999999907
0
LINE
8
BLACK
6
CONTINUOUS
10
137.2723389999999881
20
-77.8114229999999907
11
137.2724709999999959
21
-77.8113560000000035
0
LINE
8
BLACK
6
CONTINUOUS
10
137.2724709999999959
20
-77.8113560000000035
11
137.4433889999999963
21
-77.7629379999999912
0
LINE
8
BLACK
6
CONTINUOUS
10
137.4433889999999963
20
-77.7629379999999912
11
137.4435330000000022
21
-77.7629259999999931
0
LINE
8
BLACK
6
CONTINUOUS
10
137.4435330000000022
20
-77.7629259999999931
11
137.4436639999999841
21
-77.7628689999999949
0
LINE
8
BLACK
6
CONTINUOUS
10
137.4436639999999841
20
-77.7628689999999949
11
137.6196119999999894
21
-77.7236619999999903
0
LINE
8
BLACK
6
CONTINUOUS
10
137.6196119999999894
20
-77.7236619999999903
11
137.6196989999999971
21
-77.7236599999999953
0
LINE
8
BLACK
6
CONTINUOUS
10
137.6196989999999971
20
-77.7236599999999953
11
137.6197479999999871
21
-77.7236329999999924
0
LINE
8
BLACK
6
CONTINUOUS
10
137.6197479999999871
20
-77.7236329999999924
11
137.6197479999999871
21
-77.7236339999999899
0
LINE
8
BLACK
6
CONTINUOUS
10
137.6197479999999871
20
-77.7236339999999899
11
138.2100219999999808
21
-77.6237840000000006
0
LINE
8
BLACK
6
CONTINUOUS
10
138.2100219999999808
20
-77.6237840000000006
11
138.8043969999999945
21
-77.5522979999999933
0
LINE
8
BLACK
6
CONTINUOUS
10
138.8043969999999945
20
-77.5522979999999933
11
139.4015129999999942
21
-77.5093409999999921
0
LINE
8
BLACK
6
CONTINUOUS
10
139.4015129999999942
20
-77.5093409999999921
11
140.
21
-77.495010999999991
0
LINE
8
BLACK
6
CONTINUOUS
10
140.
20
-77.495010999999991
11
140.5984870000000058
21
-77.5093409999999921
0
LINE
8
BLACK
6
CONTINUOUS
10
139.1031569999999817
20
-77.5336349999999896
11
138.5075459999999907
21
-77.5908439999999899
0
LINE
8
BLACK
6
CONTINUOUS
10
138.5075459999999907
20
-77.5908439999999899
11
137.9153560000000027
21
-77.6764929999999936
0
LINE
8
BLACK
6
CONTINUOUS
10
137.9153560000000027
20
-77.6764929999999936
11
137.6216519999999832
21
-77.7334519999999998
0
LINE
8
BLACK
6
CONTINUOUS
10
137.6216519999999832
20
-77.7334519999999998
11
137.4459889999999973
21
-77.7725949999999955
0
LINE
8
BLACK
6
CONTINUOUS
10
137.4459889999999973
20
-77.7725949999999955
11
137.2753339999999866
21
-77.8209389999999956
0
LINE
8
BLACK
6
CONTINUOUS
10
137.2753339999999866
20
-77.8209389999999956
11
137.1120999999999981
21
-77.877568999999994
0
LINE
8
BLACK
6
CONTINUOUS
10
137.1120999999999981
20
-77.877568999999994
11
136.9537410000000079
21
-77.9431299999999965
0
LINE
8
BLACK
6
CONTINUOUS
10
136.9537410000000079
20
-77.9431299999999965
11
136.8014809999999954
21
-78.0169839999999937
0
LINE
8
BLACK
6
CONTINUOUS
10
136.8014809999999954
20
-78.0169839999999937
11
136.6540899999999965
21
-78.0995869999999996
0
LINE
8
BLACK
6
CONTINUOUS
10
136.6540899999999965
20
-78.0995869999999996
11
136.373802999999981
21
-78.2910459999999944
0
LINE
8
BLACK
6
CONTINUOUS
10
136.373802999999981
20
-78.2910459999999944
11
136.1111839999999802
21
-78.5190369999999973
0
LINE
8
BLACK
6
CONTINUOUS
10
136.1111839999999802
20
-78.5190369999999973
11
136.0253610000000037
21
-78.6056349999999924
0
LINE
8
BLACK
6
CONTINUOUS
10
136.0253610000000037
20
-78.6056349999999924
11
136.0253299999999967
21
-78.6056549999999987
0
LINE
8
BLACK
6
CONTINUOUS
10
136.0253299999999967
20
-78.6056549999999987
11
135.8772050000000036
21
-78.7607390000000009
0
LINE
8
BLACK
6
CONTINUOUS
10
135.8772050000000036
20
-78.7607390000000009
11
135.6059589999999844
21
-79.0933309999999921
0
LINE
8
BLACK
6
CONTINUOUS
10
135.6059589999999844
20
-79.0933309999999921
11
135.3614749999999844
21
-79.4460619999999977
0
LINE
8
BLACK
6
CONTINUOUS
10
135.3614749999999844
20
-79.4460619999999977
11
135.1452429999999936
21
-79.8167849999999959
0
LINE
8
BLACK
6
CONTINUOUS
10
135.1452429999999936
20
-79.8167849999999959
11
134.9585799999999836
21
-80.2032409999999913
0
LINE
8
BLACK
6
CONTINUOUS
10
134.9585799999999836
20
-80.2032409999999913
11
134.8026229999999828
21
-80.603076999999999
0
LINE
8
BLACK
6
CONTINUOUS
10
134.8026229999999828
20
-80.603076999999999
11
134.6783199999999852
21
-81.013857999999999
0
LINE
8
BLACK
6
CONTINUOUS
10
134.6783199999999852
20
-81.013857999999999
11
134.5864310000000046
21
-81.4330810000000014
0
LINE
8
BLACK
6
CONTINUOUS
10
134.5864310000000046
20
-81.4330810000000014
11
134.5275139999999965
21
-81.858193
0
LINE
8
BLACK
6
CONTINUOUS
10
134.5275139999999965
20
-81.858193
11
134.5019269999999949
21
-82.2866049999999944
0
LINE
8
BLACK
6
CONTINUOUS
10
134.5019269999999949
20
-82.2866049999999944
11
134.5098279999999988
21
-82.7157079999999922
0
LINE
8
BLACK
6
CONTINUOUS
10
134.5098279999999988
20
-82.7157079999999922
11
134.5511669999999924
21
-83.1428879999999992
0
LINE
8
BLACK
6
CONTINUOUS
10
134.5511669999999924
20
-83.1428879999999992
11
134.5884810000000016
21
-83.3542070000000024
0
LINE
8
BLACK
6
CONTINUOUS
10
134.5884810000000016
20
-83.3542070000000024
11
134.5884759999999858
21
-83.3542410000000018
0
LINE
8
BLACK
6
CONTINUOUS
10
134.5884759999999858
20
-83.3542410000000018
11
134.5884959999999921
21
-83.3542949999999934
0
LINE
8
BLACK
6
CONTINUOUS
10
134.5884959999999921
20
-83.3542949999999934
11
134.6321930000000009
21
-83.6309049999999985
0
LINE
8
BLACK
6
CONTINUOUS
10
134.6321930000000009
20
-83.6309049999999985
11
134.6321889999999826
21
-83.6310009999999977
0
LINE
8
BLACK
6
CONTINUOUS
10
134.6321889999999826
20
-83.6310009999999977
11
134.6322179999999946
21
-83.6310900000000004
0
LINE
8
BLACK
6
CONTINUOUS
10
134.6322179999999946
20
-83.6310900000000004
11
134.6646089999999845
21
-83.9011720000000025
0
LINE
8
BLACK
6
CONTINUOUS
10
134.6646089999999845
20
-83.9011720000000025
11
134.6646010000000047
21
-83.9012689999999992
0
LINE
8
BLACK
6
CONTINUOUS
10
134.6646010000000047
20
-83.9012689999999992
11
134.6646289999999908
21
-83.9013659999999959
0
LINE
8
BLACK
6
CONTINUOUS
10
134.6646289999999908
20
-83.9013659999999959
11
134.6852690000000052
21
-84.1574689999999919
0
LINE
8
BLACK
6
CONTINUOUS
10
134.6852690000000052
20
-84.1574689999999919
11
134.6852559999999812
21
-84.1575720000000018
0
LINE
8
BLACK
6
CONTINUOUS
10
134.6852559999999812
20
-84.1575720000000018
11
134.6852810000000034
21
-84.1576719999999909
0
LINE
8
BLACK
6
CONTINUOUS
10
134.6852810000000034
20
-84.1576719999999909
11
134.6952540000000056
21
-84.4076159999999902
0
LINE
8
BLACK
6
CONTINUOUS
10
134.6952540000000056
20
-84.4076159999999902
11
134.6952369999999917
21
-84.4077209999999951
0
LINE
8
BLACK
6
CONTINUOUS
10
134.6952369999999917
20
-84.4077209999999951
11
134.6952579999999955
21
-84.407826
0
LINE
8
BLACK
6
CONTINUOUS
10
134.6952579999999955
20
-84.407826
11
134.6947189999999921
21
-84.6452549999999917
0
LINE
8
BLACK
6
CONTINUOUS
10
134.6947189999999921
20
-84.6452549999999917
11
134.6946969999999908
21
-84.6453630000000032
0
LINE
8
BLACK
6
CONTINUOUS
10
134.6946969999999908
20
-84.6453630000000032
11
134.6947140000000047
21
-84.645473999999993
0
LINE
8
BLACK
6
CONTINUOUS
10
134.6947140000000047
20
-84.645473999999993
11
134.6840629999999805
21
-84.8770650000000018
0
LINE
8
BLACK
6
CONTINUOUS
10
134.6840629999999805
20
-84.8770650000000018
11
134.6840349999999944
21
-84.8771770000000032
0
LINE
8
BLACK
6
CONTINUOUS
10
134.6840349999999944
20
-84.8771770000000032
11
134.6840469999999925
21
-84.8772909999999996
0
LINE
8
BLACK
6
CONTINUOUS
10
134.6840469999999925
20
-84.8772909999999996
11
134.6638899999999808
21
-85.0977979999999974
0
LINE
8
BLACK
6
CONTINUOUS
10
134.6638899999999808
20
-85.0977979999999974
11
134.6638559999999813
21
-85.0979090000000014
0
LINE
8
BLACK
6
CONTINUOUS
10
134.6638559999999813
20
-85.0979090000000014
11
134.6638639999999896
21
-85.0980289999999968
0
LINE
8
BLACK
6
CONTINUOUS
10
134.6638639999999896
20
-85.0980289999999968
11
134.6340649999999926
21
-85.312972000000002
0
LINE
8
BLACK
6
CONTINUOUS
10
134.6340649999999926
20
-85.312972000000002
11
134.6340239999999824
21
-85.3130869999999959
0
LINE
8
BLACK
6
CONTINUOUS
10
134.6340239999999824
20
-85.3130869999999959
11
134.6340260000000058
21
-85.313208000000003
0
LINE
8
BLACK
6
CONTINUOUS
10
134.6340260000000058
20
-85.313208000000003
11
134.59546899999998
21
-85.518455000000003
0
LINE
8
BLACK
6
CONTINUOUS
10
134.59546899999998
20
-85.518455000000003
11
134.595421999999985
21
-85.5185689999999994
0
LINE
8
BLACK
6
CONTINUOUS
10
134.595421999999985
20
-85.5185689999999994
11
134.5954179999999951
21
-85.5186949999999939
0
LINE
8
BLACK
6
CONTINUOUS
10
134.5954179999999951
20
-85.5186949999999939
11
134.5475999999999885
21
-85.7185959999999909
0
LINE
8
BLACK
6
CONTINUOUS
10
134.5475999999999885
20
-85.7185959999999909
11
134.5475459999999828
21
-85.7187119999999965
0
LINE
8
BLACK
6
CONTINUOUS
10
134.5475459999999828
20
-85.7187119999999965
11
134.5475349999999821
21
-85.718837999999991
0
LINE
8
BLACK
6
CONTINUOUS
10
134.5475349999999821
20
-85.718837999999991
11
134.4914289999999824
21
-85.9103690000000029
0
LINE
8
BLACK
6
CONTINUOUS
10
134.4914289999999824
20
-85.9103690000000029
11
134.4913699999999892
21
-85.9104809999999901
0
LINE
8
BLACK
6
CONTINUOUS
10
134.4913699999999892
20
-85.9104809999999901
11
134.4913520000000062
21
-85.9106110000000029
0
LINE
8
BLACK
6
CONTINUOUS
10
134.4913520000000062
20
-85.9106110000000029
11
134.426275000000004
21
-86.0969630000000024
0
LINE
8
BLACK
6
CONTINUOUS
10
134.426275000000004
20
-86.0969630000000024
11
134.4262090000000001
21
-86.0970739999999921
0
LINE
8
BLACK
6
CONTINUOUS
10
134.4262090000000001
20
-86.0970739999999921
11
134.4261840000000063
21
-86.0972050000000024
0
LINE
8
BLACK
6
CONTINUOUS
10
134.4261840000000063
20
-86.0972050000000024
11
134.3529969999999878
21
-86.27641899999999
0
LINE
8
BLACK
6
CONTINUOUS
10
134.3529969999999878
20
-86.27641899999999
11
134.3529230000000041
21
-86.2765289999999965
0
LINE
8
BLACK
6
CONTINUOUS
10
134.3529230000000041
20
-86.2765289999999965
11
134.3528919999999971
21
-86.2766579999999976
0
LINE
8
BLACK
6
CONTINUOUS
10
134.3528919999999971
20
-86.2766579999999976
11
134.2709309999999903
21
-86.4508069999999975
0
LINE
8
BLACK
6
CONTINUOUS
10
134.2709309999999903
20
-86.4508069999999975
11
134.2708509999999933
21
-86.4509139999999974
0
LINE
8
BLACK
6
CONTINUOUS
10
134.2708509999999933
20
-86.4509139999999974
11
134.270813000000004
21
-86.4510409999999894
0
LINE
8
BLACK
6
CONTINUOUS
10
134.270813000000004
20
-86.4510409999999894
11
134.1806219999999996
21
-86.6191699999999969
0
LINE
8
BLACK
6
CONTINUOUS
10
134.1806219999999996
20
-86.6191699999999969
11
134.1805369999999868
21
-86.6192719999999952
0
LINE
8
BLACK
6
CONTINUOUS
10
134.1805369999999868
20
-86.6192719999999952
11
134.1804919999999868
21
-86.6193979999999897
0
LINE
8
BLACK
6
CONTINUOUS
10
134.1804919999999868
20
-86.6193979999999897
11
134.081626
21
-86.7825189999999935
0
LINE
8
BLACK
6
CONTINUOUS
10
134.081626
20
-86.7825189999999935
11
134.0814919999999972
21
-86.7826649999999944
0
LINE
8
BLACK
6
CONTINUOUS
10
134.0814919999999972
20
-86.7826649999999944
11
134.0814100000000053
21
-86.7828459999999922
0
LINE
8
BLACK
6
CONTINUOUS
10
134.0814100000000053
20
-86.7828459999999922
11
133.8577170000000081
21
-87.0939839999999919
0
LINE
8
BLACK
6
CONTINUOUS
10
133.8577170000000081
20
-87.0939839999999919
11
133.8575260000000071
21
-87.0941609999999997
0
LINE
8
BLACK
6
CONTINUOUS
10
133.8575260000000071
20
-87.0941609999999997
11
133.8573959999999943
21
-87.0943850000000026
0
LINE
8
BLACK
6
CONTINUOUS
10
133.8573959999999943
20
-87.0943850000000026
11
133.5975880000000018
21
-87.3869619999999969
0
LINE
8
BLACK
6
CONTINUOUS
10
133.5975880000000018
20
-87.3869619999999969
11
133.5973879999999951
21
-87.3871129999999994
0
LINE
8
BLACK
6
CONTINUOUS
10
133.5973879999999951
20
-87.3871129999999994
11
133.5972399999999993
21
-87.3873169999999959
0
LINE
8
BLACK
6
CONTINUOUS
10
133.5972399999999993
20
-87.3873169999999959
11
133.299129999999991
21
-87.6623960000000011
0
LINE
8
BLACK
6
CONTINUOUS
10
133.299129999999991
20
-87.6623960000000011
11
133.298923000000002
21
-87.6625219999999956
0
LINE
8
BLACK
6
CONTINUOUS
10
133.298923000000002
20
-87.6625219999999956
11
133.2987660000000005
21
-87.662700000000001
0
LINE
8
BLACK
6
CONTINUOUS
10
133.2987660000000005
20
-87.662700000000001
11
132.9595219999999927
21
-87.9208369999999917
0
LINE
8
BLACK
6
CONTINUOUS
10
132.9595219999999927
20
-87.9208369999999917
11
132.9593179999999961
21
-87.9209359999999975
0
LINE
8
BLACK
6
CONTINUOUS
10
132.9593179999999961
20
-87.9209359999999975
11
132.9591549999999813
21
-87.9210909999999899
0
LINE
8
BLACK
6
CONTINUOUS
10
132.9591549999999813
20
-87.9210909999999899
11
132.5753550000000018
21
-88.1623340000000013
0
LINE
8
BLACK
6
CONTINUOUS
10
132.5753550000000018
20
-88.1623340000000013
11
132.5751569999999901
21
-88.1624089999999967
0
LINE
8
BLACK
6
CONTINUOUS
10
132.5751569999999901
20
-88.1624089999999967
11
132.5749930000000063
21
-88.1625409999999903
0
LINE
8
BLACK
6
CONTINUOUS
10
132.5749930000000063
20
-88.1625409999999903
11
132.1427029999999831
21
-88.3864429999999999
0
LINE
8
BLACK
6
CONTINUOUS
10
132.1427029999999831
20
-88.3864429999999999
11
132.1425140000000056
21
-88.3864969999999914
0
LINE
8
BLACK
6
CONTINUOUS
10
132.1425140000000056
20
-88.3864969999999914
11
132.1423549999999807
21
-88.3866060000000004
0
LINE
8
BLACK
6
CONTINUOUS
10
132.1423549999999807
20
-88.3866060000000004
11
131.6571710000000053
21
-88.5922499999999928
0
LINE
8
BLACK
6
CONTINUOUS
10
131.6571710000000053
20
-88.5922499999999928
11
131.6570609999999988
21
-88.5922719999999941
0
LINE
8
BLACK
6
CONTINUOUS
10
131.6570609999999988
20
-88.5922719999999941
11
131.6569669999999803
21
-88.5923310000000015
0
LINE
8
BLACK
6
CONTINUOUS
10
131.6569669999999803
20
-88.5923310000000015
11
131.5388429999999858
21
-88.6363860000000017
0
LINE
8
BLACK
6
CONTINUOUS
10
131.5388429999999858
20
-88.6363860000000017
11
131.5388169999999946
21
-88.6363899999999916
0
LINE
8
BLACK
6
CONTINUOUS
10
131.5388169999999946
20
-88.6363899999999916
11
131.5388059999999939
21
-88.6363989999999973
0
LINE
8
BLACK
6
CONTINUOUS
10
131.5388059999999939
20
-88.6363989999999973
11
131.5388049999999964
21
-88.6363970000000023
0
LINE
8
BLACK
6
CONTINUOUS
10
131.5388049999999964
20
-88.6363970000000023
11
131.3371410000000026
21
-88.7097419999999914
0
LINE
8
BLACK
6
CONTINUOUS
10
131.3371410000000026
20
-88.7097419999999914
11
130.9465229999999849
21
-88.8875319999999931
0
LINE
8
BLACK
6
CONTINUOUS
10
130.9465229999999849
20
-88.8875319999999931
11
130.5709599999999853
21
-89.0952410000000015
0
LINE
8
BLACK
6
CONTINUOUS
10
130.5709599999999853
20
-89.0952410000000015
11
130.2127380000000016
21
-89.3316059999999936
0
LINE
8
BLACK
6
CONTINUOUS
10
130.2127380000000016
20
-89.3316059999999936
11
129.874038999999982
21
-89.5951869999999957
0
LINE
8
BLACK
6
CONTINUOUS
10
129.874038999999982
20
-89.5951869999999957
11
129.5569270000000017
21
-89.8843770000000006
0
LINE
8
BLACK
6
CONTINUOUS
10
129.5569270000000017
20
-89.8843770000000006
11
129.2633319999999912
21
-90.1974170000000015
0
LINE
8
BLACK
6
CONTINUOUS
10
129.2633319999999912
20
-90.1974170000000015
11
128.9950440000000071
21
-90.5323980000000006
0
LINE
8
BLACK
6
CONTINUOUS
10
128.9950440000000071
20
-90.5323980000000006
11
128.7536949999999933
21
-90.887281999999999
0
LINE
8
BLACK
6
CONTINUOUS
10
128.7536949999999933
20
-90.887281999999999
11
128.5407569999999851
21
-91.2599060000000009
0
LINE
8
BLACK
6
CONTINUOUS
10
128.5407569999999851
20
-91.2599060000000009
11
128.3575249999999812
21
-91.6480009999999936
0
LINE
8
BLACK
6
CONTINUOUS
10
128.3575249999999812
20
-91.6480009999999936
11
128.2051170000000013
21
-92.049201999999994
0
LINE
8
BLACK
6
CONTINUOUS
10
128.2051170000000013
20
-92.049201999999994
11
128.1448639999999841
21
-92.2550569999999936
0
LINE
8
BLACK
6
CONTINUOUS
10
128.1448639999999841
20
-92.2550569999999936
11
128.0990500000000054
21
-92.4292030000000011
0
LINE
8
BLACK
6
CONTINUOUS
10
128.0990500000000054
20
-92.4292030000000011
11
128.0637350000000083
21
-92.6030250000000024
0
LINE
8
BLACK
6
CONTINUOUS
10
128.0637350000000083
20
-92.6030250000000024
11
128.0391869999999983
21
-92.7740469999999959
0
LINE
8
BLACK
6
CONTINUOUS
10
128.0391869999999983
20
-92.7740469999999959
11
128.0248119999999972
21
-92.9448299999999961
0
LINE
8
BLACK
6
CONTINUOUS
10
128.0248119999999972
20
-92.9448299999999961
11
128.0206019999999967
21
-93.1139969999999977
0
LINE
8
BLACK
6
CONTINUOUS
10
128.0206019999999967
20
-93.1139969999999977
11
128.0264009999999928
21
-93.2828710000000001
0
LINE
8
BLACK
6
CONTINUOUS
10
128.0264009999999928
20
-93.2828710000000001
11
128.0679739999999924
21
-93.6197370000000006
0
LINE
8
BLACK
6
CONTINUOUS
10
128.0679739999999924
20
-93.6197370000000006
11
128.150117999999992
21
-93.9576950000000011
0
LINE
8
BLACK
6
CONTINUOUS
10
128.150117999999992
20
-93.9576950000000011
11
128.1877039999999965
21
-94.0736689999999953
0
LINE
8
BLACK
6
CONTINUOUS
10
128.1877039999999965
20
-94.0736689999999953
11
128.187704999999994
21
-94.073679999999996
0
LINE
8
BLACK
6
CONTINUOUS
10
128.187704999999994
20
-94.073679999999996
11
128.2851949999999874
21
-94.3564149999999984
0
LINE
8
BLACK
6
CONTINUOUS
10
128.2851949999999874
20
-94.3564149999999984
11
128.5071169999999938
21
-94.9120920000000012
0
LINE
8
BLACK
6
CONTINUOUS
10
128.5071169999999938
20
-94.9120920000000012
11
128.7553790000000049
21
-95.4565099999999944
0
LINE
8
BLACK
6
CONTINUOUS
10
128.7553790000000049
20
-95.4565099999999944
11
129.0294120000000078
21
-95.9884229999999974
0
LINE
8
BLACK
6
CONTINUOUS
10
129.0294120000000078
20
-95.9884229999999974
11
129.3285889999999938
21
-96.5066109999999924
0
LINE
8
BLACK
6
CONTINUOUS
10
129.3285889999999938
20
-96.5066109999999924
11
129.6522229999999922
21
-97.009886999999992
0
LINE
8
BLACK
6
CONTINUOUS
10
129.6522229999999922
20
-97.009886999999992
11
129.999572999999998
21
-97.4970969999999966
0
LINE
8
BLACK
6
CONTINUOUS
10
129.999572999999998
20
-97.4970969999999966
11
130.369843000000003
21
-97.9671239999999983
0
LINE
8
BLACK
6
CONTINUOUS
10
130.369843000000003
20
-97.9671239999999983
11
130.5659949999999867
21
-98.1929679999999934
0
LINE
8
BLACK
6
CONTINUOUS
10
130.5659949999999867
20
-98.1929679999999934
11
130.6877599999999973
21
-98.3255619999999908
0
LINE
8
BLACK
6
CONTINUOUS
10
130.6877599999999973
20
-98.3255619999999908
11
130.8149410000000046
21
-98.4491689999999977
0
LINE
8
BLACK
6
CONTINUOUS
10
130.8149410000000046
20
-98.4491689999999977
11
130.9456109999999853
21
-98.5622279999999904
0
LINE
8
BLACK
6
CONTINUOUS
10
130.9456109999999853
20
-98.5622279999999904
11
131.0815570000000037
21
-98.6665819999999911
0
LINE
8
BLACK
6
CONTINUOUS
10
131.0815570000000037
20
-98.6665819999999911
11
131.2216509999999801
21
-98.7615189999999927
0
LINE
8
BLACK
6
CONTINUOUS
10
131.2216509999999801
20
-98.7615189999999927
11
131.3668889999999863
21
-98.8478659999999962
0
LINE
8
BLACK
6
CONTINUOUS
10
131.3668889999999863
20
-98.8478659999999962
11
131.6728329999999971
21
-98.9948669999999993
0
LINE
8
BLACK
6
CONTINUOUS
10
131.6728329999999971
20
-98.9948669999999993
11
132.0016019999999912
21
-99.1083110000000005
0
LINE
8
BLACK
6
CONTINUOUS
10
132.0016019999999912
20
-99.1083110000000005
11
132.1195009999999854
21
-99.1393360000000001
0
LINE
8
BLACK
6
CONTINUOUS
10
132.1195009999999854
20
-99.1393360000000001
11
132.1195089999999936
21
-99.13933999999999
0
LINE
8
BLACK
6
CONTINUOUS
10
132.1195089999999936
20
-99.13933999999999
11
132.327904999999987
21
-99.1900849999999963
0
LINE
8
BLACK
6
CONTINUOUS
10
132.327904999999987
20
-99.1900849999999963
11
132.751560999999981
21
-99.2586949999999888
0
LINE
8
BLACK
6
CONTINUOUS
10
132.751560999999981
20
-99.2586949999999888
11
133.1792769999999848
21
-99.2940579999999926
0
LINE
8
BLACK
6
CONTINUOUS
10
133.1792769999999848
20
-99.2940579999999926
11
133.6084479999999814
21
-99.2959589999999963
0
LINE
8
BLACK
6
CONTINUOUS
10
133.6084479999999814
20
-99.2959589999999963
11
134.0364600000000053
21
-99.2643860000000018
0
LINE
8
BLACK
6
CONTINUOUS
10
134.0364600000000053
20
-99.2643860000000018
11
134.4607059999999876
21
-99.1995319999999907
0
LINE
8
BLACK
6
CONTINUOUS
10
134.4607059999999876
20
-99.1995319999999907
11
134.8786039999999957
21
-99.1017909999999915
0
LINE
8
BLACK
6
CONTINUOUS
10
134.8786039999999957
20
-99.1017909999999915
11
135.2876059999999825
21
-98.9717579999999941
0
LINE
8
BLACK
6
CONTINUOUS
10
135.2876059999999825
20
-98.9717579999999941
11
135.6852219999999818
21
-98.8102269999999976
0
LINE
8
BLACK
6
CONTINUOUS
10
135.6852219999999818
20
-98.8102269999999976
11
136.0690309999999954
21
-98.6181799999999953
0
LINE
8
BLACK
6
CONTINUOUS
10
136.0690309999999954
20
-98.6181799999999953
11
136.4366949999999861
21
-98.3967869999999891
0
LINE
8
BLACK
6
CONTINUOUS
10
136.4366949999999861
20
-98.3967869999999891
11
136.7859739999999817
21
-98.147396999999998
0
LINE
8
BLACK
6
CONTINUOUS
10
136.7859739999999817
20
-98.147396999999998
11
136.9503239999999948
21
-98.0094229999999982
0
LINE
8
BLACK
6
CONTINUOUS
10
136.9503239999999948
20
-98.0094229999999982
11
136.9503249999999923
21
-98.0094239999999957
0
LINE
8
BLACK
6
CONTINUOUS
10
136.9503249999999923
20
-98.0094239999999957
11
136.9503569999999968
21
-98.0094100000000026
0
LINE
8
BLACK
6
CONTINUOUS
10
136.9503569999999968
20
-98.0094100000000026
11
136.9503939999999886
21
-98.0093669999999975
0
LINE
8
BLACK
6
CONTINUOUS
10
136.9503939999999886
20
-98.0093669999999975
11
137.1680969999999888
21
-97.8332199999999972
0
LINE
8
BLACK
6
CONTINUOUS
10
137.1680969999999888
20
-97.8332199999999972
11
137.1681789999999808
21
-97.8331759999999946
0
LINE
8
BLACK
6
CONTINUOUS
10
137.1681789999999808
20
-97.8331759999999946
11
137.1682439999999872
21
-97.8331049999999891
0
LINE
8
BLACK
6
CONTINUOUS
10
137.1682439999999872
20
-97.8331049999999891
11
137.3859469999999874
21
-97.6700129999999973
0
LINE
8
BLACK
6
CONTINUOUS
10
137.3859469999999874
20
-97.6700129999999973
11
137.3860349999999926
21
-97.6699699999999922
0
LINE
8
BLACK
6
CONTINUOUS
10
137.3860349999999926
20
-97.6699699999999922
11
137.3861049999999864
21
-97.6698990000000009
0
LINE
8
BLACK
6
CONTINUOUS
10
137.3861049999999864
20
-97.6698990000000009
11
137.5975770000000011
21
-97.5239720000000005
0
LINE
8
BLACK
6
CONTINUOUS
10
137.5975770000000011
20
-97.5239720000000005
11
137.5976699999999937
21
-97.5239309999999904
0
LINE
8
BLACK
6
CONTINUOUS
10
137.5976699999999937
20
-97.5239309999999904
11
137.5977460000000008
21
-97.5238599999999991
0
LINE
8
BLACK
6
CONTINUOUS
10
137.5977460000000008
20
-97.5238599999999991
11
137.8092179999999871
21
-97.3902509999999921
0
LINE
8
BLACK
6
CONTINUOUS
10
137.8092179999999871
20
-97.3902509999999921
11
137.8093159999999955
21
-97.3902129999999886
0
LINE
8
BLACK
6
CONTINUOUS
10
137.8093159999999955
20
-97.3902129999999886
11
137.8093979999999874
21
-97.3901419999999973
0
LINE
8
BLACK
6
CONTINUOUS
10
137.8093979999999874
20
-97.3901419999999973
11
138.0152870000000007
21
-97.2718950000000007
0
LINE
8
BLACK
6
CONTINUOUS
10
138.0152870000000007
20
-97.2718950000000007
11
138.0153929999999889
21
-97.2718589999999921
0
LINE
8
BLACK
6
CONTINUOUS
10
138.0153929999999889
20
-97.2718589999999921
11
138.0154789999999991
21
-97.2717909999999932
0
LINE
8
BLACK
6
CONTINUOUS
10
138.0154789999999991
20
-97.2717909999999932
11
138.221367999999984
21
-97.1652189999999933
0
LINE
8
BLACK
6
CONTINUOUS
10
138.221367999999984
20
-97.1652189999999933
11
138.2214759999999956
21
-97.1651869999999889
0
LINE
8
BLACK
6
CONTINUOUS
10
138.2214759999999956
20
-97.1651869999999889
11
138.2215709999999831
21
-97.16511899999999
0
LINE
8
BLACK
6
CONTINUOUS
10
138.2215709999999831
20
-97.16511899999999
11
138.422616000000005
21
-97.0723219999999998
0
LINE
8
BLACK
6
CONTINUOUS
10
138.422616000000005
20
-97.0723219999999998
11
138.4227309999999989
21
-97.0722939999999994
0
LINE
8
BLACK
6
CONTINUOUS
10
138.4227309999999989
20
-97.0722939999999994
11
138.4228290000000072
21
-97.0722299999999905
0
LINE
8
BLACK
6
CONTINUOUS
10
138.4228290000000072
20
-97.0722299999999905
11
138.6238730000000032
21
-96.9905660000000012
0
LINE
8
BLACK
6
CONTINUOUS
10
138.6238730000000032
20
-96.9905660000000012
11
138.6239909999999895
21
-96.9905430000000024
0
LINE
8
BLACK
6
CONTINUOUS
10
138.6239909999999895
20
-96.9905430000000024
11
138.6240970000000061
21
-96.9904810000000026
0
LINE
8
BLACK
6
CONTINUOUS
10
138.6240970000000061
20
-96.9904810000000026
11
138.8211259999999925
21
-96.9212489999999889
0
LINE
8
BLACK
6
CONTINUOUS
10
138.8211259999999925
20
-96.9212489999999889
11
138.8212469999999996
21
-96.9212309999999917
0
LINE
8
BLACK
6
CONTINUOUS
10
138.8212469999999996
20
-96.9212309999999917
11
138.8213590000000011
21
-96.921172999999996
0
LINE
8
BLACK
6
CONTINUOUS
10
138.8213590000000011
20
-96.921172999999996
11
139.0183879999999874
21
-96.8626339999999999
0
LINE
8
BLACK
6
CONTINUOUS
10
139.0183879999999874
20
-96.8626339999999999
11
139.0185150000000078
21
-96.8626220000000018
0
LINE
8
BLACK
6
CONTINUOUS
10
139.0185150000000078
20
-96.8626220000000018
11
139.0186300000000017
21
-96.8625689999999935
0
LINE
8
BLACK
6
CONTINUOUS
10
139.0186300000000017
20
-96.8625689999999935
11
139.2125529999999856
21
-96.8153930000000003
0
LINE
8
BLACK
6
CONTINUOUS
10
139.2125529999999856
20
-96.8153930000000003
11
139.2126810000000035
21
-96.8153870000000012
0
LINE
8
BLACK
6
CONTINUOUS
10
139.2126810000000035
20
-96.8153870000000012
11
139.2128019999999822
21
-96.8153389999999945
0
LINE
8
BLACK
6
CONTINUOUS
10
139.2128019999999822
20
-96.8153389999999945
11
139.4067249999999945
21
-96.7785209999999978
0
LINE
8
BLACK
6
CONTINUOUS
10
139.4067249999999945
20
-96.7785209999999978
11
139.4068560000000048
21
-96.7785219999999953
0
LINE
8
BLACK
6
CONTINUOUS
10
139.4068560000000048
20
-96.7785219999999953
11
139.4069810000000018
21
-96.7784789999999902
0
LINE
8
BLACK
6
CONTINUOUS
10
139.4069810000000018
20
-96.7784789999999902
11
139.5987790000000075
21
-96.7522529999999961
0
LINE
8
BLACK
6
CONTINUOUS
10
139.5987790000000075
20
-96.7522529999999961
11
139.5989119999999843
21
-96.7522609999999901
0
LINE
8
BLACK
6
CONTINUOUS
10
139.5989119999999843
20
-96.7522609999999901
11
139.5990380000000073
21
-96.7522249999999957
0
LINE
8
BLACK
6
CONTINUOUS
10
139.5990380000000073
20
-96.7522249999999957
11
139.7908349999999871
21
-96.7361310000000003
0
LINE
8
BLACK
6
CONTINUOUS
10
139.7908349999999871
20
-96.7361310000000003
11
139.7909640000000024
21
-96.7361449999999934
0
LINE
8
BLACK
6
CONTINUOUS
10
139.7909640000000024
20
-96.7361449999999934
11
139.7910970000000077
21
-96.7361149999999981
0
LINE
8
BLACK
6
CONTINUOUS
10
139.7910970000000077
20
-96.7361149999999981
11
139.9817970000000003
21
-96.7301590000000004
0
LINE
8
BLACK
6
CONTINUOUS
10
139.9817970000000003
20
-96.7301590000000004
11
139.9819279999999821
21
-96.7301810000000017
0
LINE
8
BLACK
6
CONTINUOUS
10
139.9819279999999821
20
-96.7301810000000017
11
139.9820589999999925
21
-96.7301579999999888
0
LINE
8
BLACK
6
CONTINUOUS
10
139.9820589999999925
20
-96.7301579999999888
11
140.1727579999999875
21
-96.7342179999999985
0
LINE
8
BLACK
6
CONTINUOUS
10
140.1727579999999875
20
-96.7342179999999985
11
140.1729519999999809
21
-96.7342609999999894
0
LINE
8
BLACK
6
CONTINUOUS
10
140.1729519999999809
20
-96.7342609999999894
11
140.1731499999999926
21
-96.7342419999999947
0
LINE
8
BLACK
6
CONTINUOUS
10
140.1731499999999926
20
-96.7342419999999947
11
140.5544500000000028
21
-96.772396999999998
0
LINE
8
BLACK
6
CONTINUOUS
10
140.5544500000000028
20
-96.772396999999998
11
140.5546970000000044
21
-96.7724719999999934
0
LINE
8
BLACK
6
CONTINUOUS
10
140.5546970000000044
20
-96.7724719999999934
11
140.5549579999999992
21
-96.7724740000000025
0
LINE
8
BLACK
6
CONTINUOUS
10
140.5549579999999992
20
-96.7724740000000025
11
140.938241000000005
21
-96.8511859999999984
0
LINE
8
BLACK
6
CONTINUOUS
10
140.938241000000005
20
-96.8511859999999984
11
140.9384719999999902
21
-96.8512829999999951
0
LINE
8
BLACK
6
CONTINUOUS
10
140.9384719999999902
20
-96.8512829999999951
11
140.9387219999999843
21
-96.851309999999998
0
LINE
8
BLACK
6
CONTINUOUS
10
140.9387219999999843
20
-96.851309999999998
11
141.3260019999999884
21
-96.9719410000000011
0
LINE
8
BLACK
6
CONTINUOUS
10
141.3260019999999884
20
-96.9719410000000011
11
141.3262119999999982
21
-96.9720549999999974
0
LINE
8
BLACK
6
CONTINUOUS
10
141.3262119999999982
20
-96.9720549999999974
11
141.3264470000000017
21
-96.9721029999999899
0
LINE
8
BLACK
6
CONTINUOUS
10
141.3264470000000017
20
-96.9721029999999899
11
141.7196239999999818
21
-97.1368299999999891
0
LINE
8
BLACK
6
CONTINUOUS
10
141.7196239999999818
20
-97.1368299999999891
11
141.7198109999999929
21
-97.1369559999999979
0
LINE
8
BLACK
6
CONTINUOUS
10
141.7198109999999929
20
-97.1369559999999979
11
141.720027999999985
21
-97.1370209999999901
0
LINE
8
BLACK
6
CONTINUOUS
10
141.720027999999985
20
-97.1370209999999901
11
142.1208499999999901
21
-97.3487789999999933
0
LINE
8
BLACK
6
CONTINUOUS
10
142.1208499999999901
20
-97.3487789999999933
11
142.1210140000000024
21
-97.3489119999999986
0
LINE
8
BLACK
6
CONTINUOUS
10
142.1210140000000024
20
-97.3489119999999986
11
142.1212089999999932
21
-97.3489889999999889
0
LINE
8
BLACK
6
CONTINUOUS
10
142.1212089999999932
20
-97.3489889999999889
11
142.5312600000000032
21
-97.6114139999999963
0
LINE
8
BLACK
6
CONTINUOUS
10
142.5312600000000032
20
-97.6114139999999963
11
142.5313989999999933
21
-97.6115479999999991
0
LINE
8
BLACK
6
CONTINUOUS
10
142.5313989999999933
20
-97.6115479999999991
11
142.5315750000000037
21
-97.6116329999999977
0
LINE
8
BLACK
6
CONTINUOUS
10
142.5315750000000037
20
-97.6116329999999977
11
142.952258999999998
21
-97.9289929999999913
0
LINE
8
BLACK
6
CONTINUOUS
10
142.952258999999998
20
-97.9289929999999913
11
142.9523299999999892
21
-97.9290730000000025
0
LINE
8
BLACK
6
CONTINUOUS
10
142.9523299999999892
20
-97.9290730000000025
11
142.9524319999999875
21
-97.9291279999999915
0
LINE
8
BLACK
6
CONTINUOUS
10
142.9524319999999875
20
-97.9291279999999915
11
143.0496449999999982
21
-98.0093979999999902
0
LINE
8
BLACK
6
CONTINUOUS
10
143.0496449999999982
20
-98.0093979999999902
11
143.0496609999999862
21
-98.0094179999999966
0
LINE
8
BLACK
6
CONTINUOUS
10
143.0496609999999862
20
-98.0094179999999966
11
143.0496750000000077
21
-98.0094239999999957
0
LINE
8
BLACK
6
CONTINUOUS
10
143.0496750000000077
20
-98.0094239999999957
11
143.0496770000000026
21
-98.009420999999989
0
LINE
8
BLACK
6
CONTINUOUS
10
143.0496770000000026
20
-98.009420999999989
11
143.2140279999999848
21
-98.1473939999999914
0
LINE
8
BLACK
6
CONTINUOUS
10
143.2140279999999848
20
-98.1473939999999914
11
143.5633069999999805
21
-98.3967839999999967
0
LINE
8
BLACK
6
CONTINUOUS
10
143.5633069999999805
20
-98.3967839999999967
11
143.9309700000000021
21
-98.6181769999999887
0
LINE
8
BLACK
6
CONTINUOUS
10
143.9309700000000021
20
-98.6181769999999887
11
144.3147789999999873
21
-98.810223999999991
0
LINE
8
BLACK
6
CONTINUOUS
10
144.3147789999999873
20
-98.810223999999991
11
144.7123949999999866
21
-98.9717550000000017
0
LINE
8
BLACK
6
CONTINUOUS
10
144.7123949999999866
20
-98.9717550000000017
11
145.1213970000000018
21
-99.1017879999999991
0
LINE
8
BLACK
6
CONTINUOUS
10
145.1213970000000018
20
-99.1017879999999991
11
145.539293999999984
21
-99.1995289999999983
0
LINE
8
BLACK
6
CONTINUOUS
10
145.539293999999984
20
-99.1995289999999983
11
145.9635409999999922
21
-99.2643829999999951
0
LINE
8
BLACK
6
CONTINUOUS
10
145.9635409999999922
20
-99.2643829999999951
11
146.3915529999999876
21
-99.2959559999999897
0
LINE
8
BLACK
6
CONTINUOUS
10
146.3915529999999876
20
-99.2959559999999897
11
146.8207229999999868
21
-99.2940550000000002
0
LINE
8
BLACK
6
CONTINUOUS
10
146.8207229999999868
20
-99.2940550000000002
11
147.2484389999999905
21
-99.2586919999999964
0
LINE
8
BLACK
6
CONTINUOUS
10
147.2484389999999905
20
-99.2586919999999964
11
147.6720939999999871
21
-99.1900819999999896
0
LINE
8
BLACK
6
CONTINUOUS
10
147.6720939999999871
20
-99.1900819999999896
11
147.8805009999999811
21
-99.139333999999991
0
LINE
8
BLACK
6
CONTINUOUS
10
147.8805009999999811
20
-99.139333999999991
11
148.0542319999999847
21
-99.0919329999999974
0
LINE
8
BLACK
6
CONTINUOUS
10
148.0542319999999847
20
-99.0919329999999974
11
148.2224080000000015
21
-99.0356109999999887
0
LINE
8
BLACK
6
CONTINUOUS
10
148.2224080000000015
20
-99.0356109999999887
11
148.3827780000000018
21
-98.9713649999999916
0
LINE
8
BLACK
6
CONTINUOUS
10
148.3827780000000018
20
-98.9713649999999916
11
148.537871999999993
21
-98.898420999999999
0
LINE
8
BLACK
6
CONTINUOUS
10
148.537871999999993
20
-98.898420999999999
11
148.6864929999999845
21
-98.8174759999999992
0
LINE
8
BLACK
6
CONTINUOUS
10
148.6864929999999845
20
-98.8174759999999992
11
148.8298399999999901
21
-98.7280189999999891
0
LINE
8
BLACK
6
CONTINUOUS
10
148.8298399999999901
20
-98.7280189999999891
11
149.1007979999999975
21
-98.5235759999999914
0
LINE
8
BLACK
6
CONTINUOUS
10
149.1007979999999975
20
-98.5235759999999914
11
149.3523899999999855
21
-98.2834719999999891
0
LINE
8
BLACK
6
CONTINUOUS
10
149.3523899999999855
20
-98.2834719999999891
11
149.4339769999999987
21
-98.1929990000000004
0
LINE
8
BLACK
6
CONTINUOUS
10
149.4339769999999987
20
-98.1929990000000004
11
149.4339750000000038
21
-98.1929979999999887
0
LINE
8
BLACK
6
CONTINUOUS
10
149.4339750000000038
20
-98.1929979999999887
11
149.630155000000002
21
-97.9671230000000008
0
LINE
8
BLACK
6
CONTINUOUS
10
149.630155000000002
20
-97.9671230000000008
11
150.000425000000007
21
-97.4970950000000016
0
LINE
8
BLACK
6
CONTINUOUS
10
150.000425000000007
20
-97.4970950000000016
11
150.3477739999999869
21
-97.009884999999997
0
LINE
8
BLACK
6
CONTINUOUS
10
150.3477739999999869
20
-97.009884999999997
11
150.6714079999999853
21
-96.5066099999999949
0
LINE
8
BLACK
6
CONTINUOUS
10
150.6714079999999853
20
-96.5066099999999949
11
150.9705849999999998
21
-95.9884219999999999
0
LINE
8
BLACK
6
CONTINUOUS
10
150.9705849999999998
20
-95.9884219999999999
11
151.2446180000000027
21
-95.4565089999999969
0
LINE
8
BLACK
6
CONTINUOUS
10
151.2446180000000027
20
-95.4565089999999969
11
151.4928799999999853
21
-94.9120909999999895
0
LINE
8
BLACK
6
CONTINUOUS
10
151.4928799999999853
20
-94.9120909999999895
11
151.7148019999999917
21
-94.3564140000000009
0
LINE
8
BLACK
6
CONTINUOUS
10
151.7148019999999917
20
-94.3564140000000009
11
151.8123080000000016
21
-94.0736299999999943
0
LINE
8
BLACK
6
CONTINUOUS
10
151.8123080000000016
20
-94.0736299999999943
11
151.8662559999999928
21
-93.9018769999999989
0
LINE
8
BLACK
6
CONTINUOUS
10
151.8662559999999928
20
-93.9018769999999989
11
151.9097189999999955
21
-93.7299050000000022
0
LINE
8
BLACK
6
CONTINUOUS
10
151.9097189999999955
20
-93.7299050000000022
11
151.9422909999999831
21
-93.5602349999999916
0
LINE
8
BLACK
6
CONTINUOUS
10
151.9422909999999831
20
-93.5602349999999916
11
151.9646929999999827
21
-93.3903129999999919
0
LINE
8
BLACK
6
CONTINUOUS
10
151.9646929999999827
20
-93.3903129999999919
11
151.9768629999999803
21
-93.2215319999999963
0
LINE
8
BLACK
6
CONTINUOUS
10
151.9768629999999803
20
-93.2215319999999963
11
151.9790229999999838
21
-93.0525739999999928
0
LINE
8
BLACK
6
CONTINUOUS
10
151.9790229999999838
20
-93.0525739999999928
11
151.9533559999999852
21
-92.714113999999995
0
LINE
8
BLACK
6
CONTINUOUS
10
151.9533559999999852
20
-92.714113999999995
11
151.8872209999999825
21
-92.3726869999999991
0
LINE
8
BLACK
6
CONTINUOUS
10
151.8872209999999825
20
-92.3726869999999991
11
151.8551609999999812
21
-92.2551500000000004
0
LINE
8
BLACK
6
CONTINUOUS
10
151.8551609999999812
20
-92.2551500000000004
11
151.8551599999999837
21
-92.2551509999999979
0
LINE
8
BLACK
6
CONTINUOUS
10
151.8551599999999837
20
-92.2551509999999979
11
151.7948810000000037
21
-92.0492029999999914
0
LINE
8
BLACK
6
CONTINUOUS
10
151.7948810000000037
20
-92.0492029999999914
11
151.6424719999999979
21
-91.6480019999999911
0
LINE
8
BLACK
6
CONTINUOUS
10
151.6424719999999979
20
-91.6480019999999911
11
151.4592399999999941
21
-91.2599069999999983
0
LINE
8
BLACK
6
CONTINUOUS
10
151.4592399999999941
20
-91.2599069999999983
11
151.2463019999999858
21
-90.8872829999999965
0
LINE
8
BLACK
6
CONTINUOUS
10
151.2463019999999858
20
-90.8872829999999965
11
151.0049539999999979
21
-90.5323999999999955
0
LINE
8
BLACK
6
CONTINUOUS
10
151.0049539999999979
20
-90.5323999999999955
11
150.7366649999999879
21
-90.1974189999999965
0
LINE
8
BLACK
6
CONTINUOUS
10
150.7366649999999879
20
-90.1974189999999965
11
150.4430710000000033
21
-89.8843789999999956
0
LINE
8
BLACK
6
CONTINUOUS
10
150.4430710000000033
20
-89.8843789999999956
11
150.1259589999999946
21
-89.5951889999999906
0
LINE
8
BLACK
6
CONTINUOUS
10
150.1259589999999946
20
-89.5951889999999906
11
149.7872600000000034
21
-89.3316090000000003
0
LINE
8
BLACK
6
CONTINUOUS
10
149.7872600000000034
20
-89.3316090000000003
11
149.4290389999999888
21
-89.0952439999999939
0
LINE
8
BLACK
6
CONTINUOUS
10
149.4290389999999888
20
-89.0952439999999939
11
149.0534749999999917
21
-88.8875340000000023
0
LINE
8
BLACK
6
CONTINUOUS
10
149.0534749999999917
20
-88.8875340000000023
11
148.6628579999999999
21
-88.7097449999999981
0
LINE
8
BLACK
6
CONTINUOUS
10
148.6628579999999999
20
-88.7097449999999981
11
148.4611940000000061
21
-88.6363999999999947
0
LINE
8
BLACK
6
CONTINUOUS
10
148.4611940000000061
20
-88.6363999999999947
11
148.4611940000000061
21
-88.6363989999999973
0
LINE
8
BLACK
6
CONTINUOUS
10
148.4611940000000061
20
-88.6363989999999973
11
148.4611659999999915
21
-88.636376999999996
0
LINE
8
BLACK
6
CONTINUOUS
10
148.4611659999999915
20
-88.636376999999996
11
148.4611109999999883
21
-88.6363679999999903
0
LINE
8
BLACK
6
CONTINUOUS
10
148.4611109999999883
20
-88.6363679999999903
11
148.1997099999999818
21
-88.5359049999999996
0
LINE
8
BLACK
6
CONTINUOUS
10
148.1997099999999818
20
-88.5359049999999996
11
148.1996289999999874
21
-88.5358540000000005
0
LINE
8
BLACK
6
CONTINUOUS
10
148.1996289999999874
20
-88.5358540000000005
11
148.1995379999999898
21
-88.5358349999999916
0
LINE
8
BLACK
6
CONTINUOUS
10
148.1995379999999898
20
-88.5358349999999916
11
147.9494430000000023
21
-88.428845999999993
0
LINE
8
BLACK
6
CONTINUOUS
10
147.9494430000000023
20
-88.428845999999993
11
147.9493609999999819
21
-88.4287889999999948
0
LINE
8
BLACK
6
CONTINUOUS
10
147.9493609999999819
20
-88.4287889999999948
11
147.9492659999999944
21
-88.428765999999996
0
LINE
8
BLACK
6
CONTINUOUS
10
147.9492659999999944
20
-88.428765999999996
11
147.7171539999999936
21
-88.3185890000000029
0
LINE
8
BLACK
6
CONTINUOUS
10
147.7171539999999936
20
-88.3185890000000029
11
147.7170700000000068
21
-88.3185259999999914
0
LINE
8
BLACK
6
CONTINUOUS
10
147.7170700000000068
20
-88.3185259999999914
11
147.7169729999999959
21
-88.3184979999999911
0
LINE
8
BLACK
6
CONTINUOUS
10
147.7169729999999959
20
-88.3184979999999911
11
147.4955290000000048
21
-88.2021620000000013
0
LINE
8
BLACK
6
CONTINUOUS
10
147.4955290000000048
20
-88.2021620000000013
11
147.4954449999999895
21
-88.2020940000000024
0
LINE
8
BLACK
6
CONTINUOUS
10
147.4954449999999895
20
-88.2020940000000024
11
147.4953439999999887
21
-88.202060000000003
0
LINE
8
BLACK
6
CONTINUOUS
10
147.4953439999999887
20
-88.202060000000003
11
147.2899940000000072
21
-88.0828789999999913
0
LINE
8
BLACK
6
CONTINUOUS
10
147.2899940000000072
20
-88.0828789999999913
11
147.2899119999999868
21
-88.0828070000000025
0
LINE
8
BLACK
6
CONTINUOUS
10
147.2899119999999868
20
-88.0828070000000025
11
147.2898069999999962
21
-88.0827659999999923
0
LINE
8
BLACK
6
CONTINUOUS
10
147.2898069999999962
20
-88.0827659999999923
11
147.0945700000000045
21
-87.9577469999999977
0
LINE
8
BLACK
6
CONTINUOUS
10
147.0945700000000045
20
-87.9577469999999977
11
147.0944869999999867
21
-87.9576679999999982
0
LINE
8
BLACK
6
CONTINUOUS
10
147.0944869999999867
20
-87.9576679999999982
11
147.094381999999996
21
-87.957620999999989
0
LINE
8
BLACK
6
CONTINUOUS
10
147.094381999999996
20
-87.957620999999989
11
146.9134949999999833
21
-87.8299099999999981
0
LINE
8
BLACK
6
CONTINUOUS
10
146.9134949999999833
20
-87.8299099999999981
11
146.9134129999999914
21
-87.8298229999999904
0
LINE
8
BLACK
6
CONTINUOUS
10
146.9134129999999914
20
-87.8298229999999904
11
146.9133080000000007
21
-87.8297709999999938
0
LINE
8
BLACK
6
CONTINUOUS
10
146.9133080000000007
20
-87.8297709999999938
11
146.7420620000000042
21
-87.6964929999999896
0
LINE
8
BLACK
6
CONTINUOUS
10
146.7420620000000042
20
-87.6964929999999896
11
146.7419809999999813
21
-87.6963989999999995
0
LINE
8
BLACK
6
CONTINUOUS
10
146.7419809999999813
20
-87.6963989999999995
11
146.7418769999999881
21
-87.6963409999999897
0
LINE
8
BLACK
6
CONTINUOUS
10
146.7418769999999881
20
-87.6963409999999897
11
146.5834059999999965
21
-87.5603259999999892
0
LINE
8
BLACK
6
CONTINUOUS
10
146.5834059999999965
20
-87.5603259999999892
11
146.5833299999999895
21
-87.5602289999999925
0
LINE
8
BLACK
6
CONTINUOUS
10
146.5833299999999895
20
-87.5602289999999925
11
146.5832230000000038
21
-87.5601619999999912
0
LINE
8
BLACK
6
CONTINUOUS
10
146.5832230000000038
20
-87.5601619999999912
11
146.4340119999999956
21
-87.4187999999999903
0
LINE
8
BLACK
6
CONTINUOUS
10
146.4340119999999956
20
-87.4187999999999903
11
146.433936999999986
21
-87.4186940000000021
0
LINE
8
BLACK
6
CONTINUOUS
10
146.433936999999986
20
-87.4186940000000021
11
146.4338339999999903
21
-87.4186219999999992
0
LINE
8
BLACK
6
CONTINUOUS
10
146.4338339999999903
20
-87.4186219999999992
11
146.2960180000000037
21
-87.2742679999999922
0
LINE
8
BLACK
6
CONTINUOUS
10
146.2960180000000037
20
-87.2742679999999922
11
146.295946999999984
21
-87.2741570000000024
0
LINE
8
BLACK
6
CONTINUOUS
10
146.295946999999984
20
-87.2741570000000024
11
146.2958459999999832
21
-87.2740780000000029
0
LINE
8
BLACK
6
CONTINUOUS
10
146.2958459999999832
20
-87.2740780000000029
11
146.1670000000000016
21
-87.1245459999999952
0
LINE
8
BLACK
6
CONTINUOUS
10
146.1670000000000016
20
-87.1245459999999952
11
146.1669339999999977
21
-87.1244299999999896
0
LINE
8
BLACK
6
CONTINUOUS
10
146.1669339999999977
20
-87.1244299999999896
11
146.1668359999999893
21
-87.124344999999991
0
LINE
8
BLACK
6
CONTINUOUS
10
146.1668359999999893
20
-87.124344999999991
11
146.0482240000000047
21
-86.9713569999999976
0
LINE
8
BLACK
6
CONTINUOUS
10
146.0482240000000047
20
-86.9713569999999976
11
146.0481639999999857
21
-86.9712379999999996
0
LINE
8
BLACK
6
CONTINUOUS
10
146.0481639999999857
20
-86.9712379999999996
11
146.0480699999999956
21
-86.971147000000002
0
LINE
8
BLACK
6
CONTINUOUS
10
146.0480699999999956
20
-86.971147000000002
11
145.9382339999999942
21
-86.813091
0
LINE
8
BLACK
6
CONTINUOUS
10
145.9382339999999942
20
-86.813091
11
145.9381809999999859
21
-86.8129689999999954
0
LINE
8
BLACK
6
CONTINUOUS
10
145.9381809999999859
20
-86.8129689999999954
11
145.9380899999999883
21
-86.8128719999999987
0
LINE
8
BLACK
6
CONTINUOUS
10
145.9380899999999883
20
-86.8128719999999987
11
145.8375819999999976
21
-86.6507000000000005
0
LINE
8
BLACK
6
CONTINUOUS
10
145.8375819999999976
20
-86.6507000000000005
11
145.8375340000000051
21
-86.6505729999999943
0
LINE
8
BLACK
6
CONTINUOUS
10
145.8375340000000051
20
-86.6505729999999943
11
145.8374499999999898
21
-86.650472999999991
0
LINE
8
BLACK
6
CONTINUOUS
10
145.8374499999999898
20
-86.650472999999991
11
145.7456169999999815
21
-86.4832919999999916
0
LINE
8
BLACK
6
CONTINUOUS
10
145.7456169999999815
20
-86.4832919999999916
11
145.7455569999999909
21
-86.4831039999999973
0
LINE
8
BLACK
6
CONTINUOUS
10
145.7455569999999909
20
-86.4831039999999973
11
145.7454409999999996
21
-86.4829409999999967
0
LINE
8
BLACK
6
CONTINUOUS
10
145.7454409999999996
20
-86.4829409999999967
11
145.5878339999999866
21
-86.1336489999999912
0
LINE
8
BLACK
6
CONTINUOUS
10
145.5878339999999866
20
-86.1336489999999912
11
145.5877749999999935
21
-86.1333959999999905
0
LINE
8
BLACK
6
CONTINUOUS
10
145.5877749999999935
20
-86.1333959999999905
11
145.587647000000004
21
-86.1331709999999902
0
LINE
8
BLACK
6
CONTINUOUS
10
145.587647000000004
20
-86.1331709999999902
11
145.4641719999999907
21
-85.7618819999999999
0
LINE
8
BLACK
6
CONTINUOUS
10
145.4641719999999907
20
-85.7618819999999999
11
145.4641399999999862
21
-85.7616309999999942
0
LINE
8
BLACK
6
CONTINUOUS
10
145.4641399999999862
20
-85.7616309999999942
11
145.4640389999999854
21
-85.7614030000000014
0
LINE
8
BLACK
6
CONTINUOUS
10
145.4640389999999854
20
-85.7614030000000014
11
145.3748679999999922
21
-85.3656929999999932
0
LINE
8
BLACK
6
CONTINUOUS
10
145.3748679999999922
20
-85.3656929999999932
11
145.3748609999999815
21
-85.3654519999999906
0
LINE
8
BLACK
6
CONTINUOUS
10
145.3748609999999815
20
-85.3654519999999906
11
145.3747860000000003
21
-85.3652259999999927
0
LINE
8
BLACK
6
CONTINUOUS
10
145.3747860000000003
20
-85.3652259999999927
11
145.320855999999992
21
-84.9423630000000003
0
LINE
8
BLACK
6
CONTINUOUS
10
145.320855999999992
20
-84.9423630000000003
11
145.3208709999999826
21
-84.9421349999999933
0
LINE
8
BLACK
6
CONTINUOUS
10
145.3208709999999826
20
-84.9421349999999933
11
145.3208199999999977
21
-84.9419180000000011
0
LINE
8
BLACK
6
CONTINUOUS
10
145.3208199999999977
20
-84.9419180000000011
11
145.303797000000003
21
-84.4889170000000007
0
LINE
8
BLACK
6
CONTINUOUS
10
145.303797000000003
20
-84.4889170000000007
11
145.3038290000000075
21
-84.488710999999995
0
LINE
8
BLACK
6
CONTINUOUS
10
145.3038290000000075
20
-84.488710999999995
11
145.3037980000000005
21
-84.4885009999999994
0
LINE
8
BLACK
6
CONTINUOUS
10
145.3037980000000005
20
-84.4885009999999994
11
145.3260389999999802
21
-84.002174999999994
0
LINE
8
BLACK
6
CONTINUOUS
10
145.3260389999999802
20
-84.002174999999994
11
145.3260860000000037
21
-84.0019829999999956
0
LINE
8
BLACK
6
CONTINUOUS
10
145.3260860000000037
20
-84.0019829999999956
11
145.3260719999999822
21
-84.0017909999999972
0
LINE
8
BLACK
6
CONTINUOUS
10
145.3260719999999822
20
-84.0017909999999972
11
145.3905709999999942
21
-83.4787889999999919
0
LINE
8
BLACK
6
CONTINUOUS
10
145.3905709999999942
20
-83.4787889999999919
11
145.3906049999999937
21
-83.4786840000000012
0
LINE
8
BLACK
6
CONTINUOUS
10
145.3906049999999937
20
-83.4786840000000012
11
145.3906020000000012
21
-83.4785719999999998
0
LINE
8
BLACK
6
CONTINUOUS
10
145.3906020000000012
20
-83.4785719999999998
11
145.4115119999999877
21
-83.3542459999999892
0
LINE
8
BLACK
6
CONTINUOUS
10
145.4115119999999877
20
-83.3542459999999892
11
145.4115209999999934
21
-83.3542219999999929
0
LINE
8
BLACK
6
CONTINUOUS
10
145.4115209999999934
20
-83.3542219999999929
11
145.4115189999999984
21
-83.3542070000000024
0
LINE
8
BLACK
6
CONTINUOUS
10
145.4115189999999984
20
-83.3542070000000024
11
145.4115099999999927
21
-83.3542049999999932
0
LINE
8
BLACK
6
CONTINUOUS
10
145.4115099999999927
20
-83.3542049999999932
11
145.4488240000000019
21
-83.1428870000000018
0
LINE
8
BLACK
6
CONTINUOUS
10
145.4488240000000019
20
-83.1428870000000018
11
145.4901629999999955
21
-82.7157079999999922
0
LINE
8
BLACK
6
CONTINUOUS
10
145.4901629999999955
20
-82.7157079999999922
11
145.4980639999999994
21
-82.2866059999999919
0
LINE
8
BLACK
6
CONTINUOUS
10
145.4980639999999994
20
-82.2866059999999919
11
145.4724769999999978
21
-81.8581939999999975
0
LINE
8
BLACK
6
CONTINUOUS
10
145.4724769999999978
20
-81.8581939999999975
11
145.4135599999999897
21
-81.4330829999999963
0
LINE
8
BLACK
6
CONTINUOUS
10
145.4135599999999897
20
-81.4330829999999963
11
145.3216709999999807
21
-81.013859999999994
0
LINE
8
BLACK
6
CONTINUOUS
10
145.3216709999999807
20
-81.013859999999994
11
145.1973689999999806
21
-80.6030799999999914
0
LINE
8
BLACK
6
CONTINUOUS
10
145.1973689999999806
20
-80.6030799999999914
11
145.0414119999999798
21
-80.2032449999999955
0
LINE
8
BLACK
6
CONTINUOUS
10
145.0414119999999798
20
-80.2032449999999955
11
144.8547489999999982
21
-79.816789
0
LINE
8
BLACK
6
CONTINUOUS
10
144.8547489999999982
20
-79.816789
11
144.6385170000000073
21
-79.4460669999999993
0
LINE
8
BLACK
6
CONTINUOUS
10
144.6385170000000073
20
-79.4460669999999993
11
144.3940340000000049
21
-79.0933359999999936
0
LINE
8
BLACK
6
CONTINUOUS
10
144.3940340000000049
20
-79.0933359999999936
11
144.1227889999999832
21
-78.760745
0
LINE
8
BLACK
6
CONTINUOUS
10
144.1227889999999832
20
-78.760745
11
143.9746059999999943
21
-78.6056030000000021
0
LINE
8
BLACK
6
CONTINUOUS
10
143.9746059999999943
20
-78.6056030000000021
11
143.8467179999999814
21
-78.4788750000000022
0
LINE
8
BLACK
6
CONTINUOUS
10
143.8467179999999814
20
-78.4788750000000022
11
143.7138589999999851
21
-78.3613969999999966
0
LINE
8
BLACK
6
CONTINUOUS
10
143.7138589999999851
20
-78.3613969999999966
11
143.5780199999999809
21
-78.2546239999999926
0
LINE
8
BLACK
6
CONTINUOUS
10
143.5780199999999809
20
-78.2546239999999926
11
143.437312999999989
21
-78.1567879999999917
0
LINE
8
BLACK
6
CONTINUOUS
10
143.437312999999989
20
-78.1567879999999917
11
143.2928880000000049
21
-78.0685440000000028
0
LINE
8
BLACK
6
CONTINUOUS
10
143.2928880000000049
20
-78.0685440000000028
11
143.1437640000000044
21
-77.9891420000000011
0
LINE
8
BLACK
6
CONTINUOUS
10
143.1437640000000044
20
-77.9891420000000011
11
142.8312229999999943
21
-77.8567039999999935
0
LINE
8
BLACK
6
CONTINUOUS
10
142.8312229999999943
20
-77.8567039999999935
11
142.497495999999984
21
-77.7588709999999992
0
LINE
8
BLACK
6
CONTINUOUS
10
142.497495999999984
20
-77.7588709999999992
11
142.3783479999999884
21
-77.7334510000000023
0
LINE
8
BLACK
6
CONTINUOUS
10
142.3783479999999884
20
-77.7334510000000023
11
142.3783479999999884
21
-77.7334519999999998
0
LINE
8
BLACK
6
CONTINUOUS
10
142.3783479999999884
20
-77.7334519999999998
11
142.0846439999999973
21
-77.6764929999999936
0
LINE
8
BLACK
6
CONTINUOUS
10
142.0846439999999973
20
-77.6764929999999936
11
141.4924539999999809
21
-77.5908439999999899
0
LINE
8
BLACK
6
CONTINUOUS
10
141.4924539999999809
20
-77.5908439999999899
11
140.8968429999999898
21
-77.5336349999999896
0
LINE
8
BLACK
6
CONTINUOUS
10
140.8968429999999898
20
-77.5336349999999896
11
140.2991759999999886
21
-77.5049980000000005
0
LINE
8
BLACK
6
CONTINUOUS
10
140.2991759999999886
20
-77.5049980000000005
11
139.700823999999983
21
-77.5049980000000005
0
LINE
8
BLACK
6
CONTINUOUS
10
139.700823999999983
20
-77.5049980000000005
11
139.1031569999999817
21
-77.5336349999999896
0
CIRCLE
8
BLACK
10
142.2999999999999829
20
-97.5
40
0.4
0
CIRCLE
8
BLACK
10
137.7999999999999829
20
-97.3999999999999915
40
0.4
0
CIRCLE
8
BLACK
10
140.7999999999999829
20
-96.7999999999999972
40
0.4
0
CIRCLE
8
BLACK
10
139.2999999999999829
20
-96.7999999999999972
40
0.4
0
CIRCLE
8
BLACK
10
142.2999999999999829
20
-97.5
40
0.4
0
CIRCLE
8
BLACK
10
137.7999999999999829
20
-97.3999999999999915
40
0.4
0
CIRCLE
8
BLACK
10
140.7999999999999829
20
-96.7999999999999972
40
0.4
0
CIRCLE
8
BLACK
10
139.2999999999999829
20
-96.7999999999999972
40
0.4
  0
ENDSEC
  0
EOF
